<?xml version="1.0" encoding="UTF-8"?>
<svg width="512px" height="512px" viewBox="0 0 512 512" version="1.1" xmlns="http://www.w3.org/2000/svg" xmlns:xlink="http://www.w3.org/1999/xlink">
    <!-- Generator: Sketch 55.2 (78181) - https://sketchapp.com -->
    <title>Group</title>
    <desc>Created with Sketch.</desc>
    <g id="Page-1" stroke="none" stroke-width="1" fill="none" fill-rule="evenodd">
        <g id="jmi-main">
            <g id="Group">
                <rect id="Rectangle" stroke="#000000" stroke-width="3" fill="#FFFFFF" x="1.5" y="1.5" width="509" height="509" rx="89.825"></rect>
                <g id="jamia-logo" transform="translate(56.000000, 38.000000)" fill="#000000" fill-rule="nonzero">
                    <path d="M208.986987,2.1367696 C208.759099,2.76085511 205.747055,11.7191686 202.294701,22.0424109 C198.842348,32.3666865 195.675629,41.6070784 195.259036,42.5762708 L194.499065,44.3390024 L191.687068,44.5673515 C190.139283,44.6934086 180.004956,44.7791686 169.16634,44.7574703 C158.326694,44.735772 149.363774,44.8142993 149.247252,44.931057 C148.793538,45.3846556 152.650109,48.5670784 167.219494,59.7634204 C183.850184,72.5437411 184.233779,72.8599169 184.233779,73.7919121 C184.233779,74.5306888 182.852013,79.2423278 178.048829,94.886829 C176.187569,100.948931 173.780821,108.853325 172.702218,112.45215 C171.622584,116.052007 170.655348,119.216865 170.552231,119.486544 C170.132545,120.584893 173.827223,117.942862 196.263395,101.096686 C201.840987,96.9089074 206.914338,93.1240974 207.539226,92.6849644 L208.674543,91.8862589 L210.632732,93.1788599 C211.709273,93.8897387 216.535143,97.2901781 221.355857,100.734014 C234.788894,110.331912 248.561184,119.920511 248.705548,119.775855 C248.776699,119.704561 247.051553,113.222957 244.870631,105.372292 C234.552756,68.2195724 235.335413,73.0469359 239.148675,70.1011283 C240.610873,68.9717815 247.607353,63.5781948 254.696639,58.11538 C267.517161,48.2374703 271.347953,45.1573397 271.111816,44.9196912 C270.928268,44.735772 249.367558,43.8151425 238.885727,43.5433967 C233.875278,43.4142399 228.712216,43.2117221 227.410881,43.0939311 L225.045379,42.8800475 L223.33467,38.2304038 C222.394244,35.6730998 219.568842,27.7687055 217.056914,20.6650831 C209.356145,-1.11178147 209.802642,-0.0867933492 208.986987,2.1367696 M116.943826,22.7698219 C106.933239,24.4405938 99.9635688,31.3747625 97.1618831,42.4481473 L96.4122234,45.4125534 L92.9753377,43.1435273 C82.8647273,36.4697387 76.0229221,34.1345843 69.3512597,35.0800119 C62.1949481,36.0936342 58.4311818,39.8722447 58.4311818,46.040772 C58.4311818,49.037209 58.4600545,49.0465083 60.9792,46.8374109 C64.9626052,43.3450119 66.4526442,43.186924 66.6114442,46.2381235 C66.6681584,47.3271734 66.7723065,48.2188717 66.8434571,48.2188717 C66.9135766,48.2188717 68.143761,47.7487411 69.5760545,47.1732185 C75.1443662,44.939323 76.395174,45.0085511 76.8272338,47.5751544 C77.018,48.7045012 77.1768,48.8646556 78.3048987,49.0733729 C80.6941169,49.5156057 86.4470078,52.0005819 89.0218364,53.7033848 C94.0333169,57.0170309 93.9951636,57.232981 88.6176182,56.0044418 C74.2276571,52.7166271 63.7355143,54.5031235 54.0466519,61.891924 C46.2984494,67.8000713 43.3750857,76.3006532 45.3332753,87.2314489 C45.9024805,90.4056057 45.8828883,90.414905 47.249187,86.3604157 C49.1743792,80.64962 50.7500052,79.0232779 51.8399506,81.6239786 C52.6339506,83.5189667 52.7185065,83.4311401 53.5980935,79.8188836 C54.5313013,75.9886105 56.2677896,72.0808432 57.955813,70.0174347 C59.3757325,68.2805344 59.9047221,68.4458551 61.2246182,71.0362233 C62.0103688,72.579905 62.0794571,72.5933373 63.0157584,71.3802969 C65.2977351,68.4262233 67.9261844,66.128266 69.0243792,66.128266 C69.1986468,66.128266 69.4203481,66.8329454 69.5172779,67.6946793 C69.7513532,69.7777197 69.8493143,69.8262827 71.7487273,68.8043943 C75.026813,67.0395962 81.4602753,65.2138361 81.4602753,66.0476722 C81.4602753,66.2160926 81.073587,67.307209 80.6013117,68.4727197 C80.1280052,69.6382304 79.7413169,70.7500119 79.7413169,70.9432304 C79.7413169,71.16538 81.4943039,71.2945368 84.4991299,71.2945368 C90.2551143,71.2945368 93.2135377,71.9475534 97.8300805,74.2382779 C102.835374,76.7211876 102.862184,76.9443705 98.2167688,77.4589311 C70.1009195,80.5679929 55.488226,96.0802375 55.7047714,122.586306 C55.744987,127.419869 56.0759922,127.364074 57.5577818,122.271164 C58.8580857,117.803373 60.8750519,112.968777 61.4401325,112.968777 C61.5968701,112.968777 62.1330779,113.782981 62.6301013,114.776971 L63.5354675,116.585166 L64.1521065,115.035285 C66.3093117,109.6138 70.2525013,102.636235 71.1588987,102.636235 C71.3207922,102.636235 71.9755844,103.567197 72.6149091,104.703777 L73.7770364,106.770285 L74.4534831,105.995344 C74.8257351,105.56861 76.2435922,103.728385 77.6057662,101.904691 C80.3146468,98.2800356 85.2096052,93.6820546 86.3614208,93.6820546 C86.5150649,93.6820546 86.9419688,94.3857007 87.3100961,95.2464014 C88.0855351,97.0597625 88.1443117,97.0494299 90.9944623,94.5964846 C94.2364571,91.8066983 98.9818961,89.3940499 103.229281,88.3762945 C104.720351,88.0198219 104.142896,88.561247 100.302823,91.1226841 C86.0139169,100.655487 81.9026468,116.481841 92.1534961,122.494347 C95.426426,124.414133 95.6780312,124.392435 95.4367377,122.219501 C95.3243403,121.204846 95.1294494,119.310891 95.0046779,118.011057 L94.7778208,115.649038 L96.1967091,115.888753 C96.9762727,116.02101 97.6125039,116.076805 97.6094104,116.012743 C97.6063169,115.948682 97.3165584,114.307874 96.9649299,112.36639 C96.2317688,108.3119 96.1492753,108.40076 98.9653974,110.224454 L101.109197,111.613147 L100.879247,108.243705 C100.595675,104.076591 101.504135,97.8150713 102.393003,97.8150713 C102.534273,97.8150713 103.04367,98.7770309 103.525226,99.9518409 C104.677042,102.765392 104.79047,102.754026 106.560987,99.6542637 C108.904834,95.5491449 111.955031,92.9939074 114.514392,92.9928741 C115.726016,92.9928741 120.437426,100.006603 121.043753,102.715796 C121.227301,103.5331 122.115138,105.203872 123.041127,106.476841 C125.100371,109.304857 125.304543,109.698527 125.612862,111.418895 C125.773725,112.317827 126.575974,113.748884 127.917525,115.531247 C129.94274,118.222874 129.964395,118.27557 129.269387,118.803563 C128.57541,119.331556 128.609439,119.40595 131.19561,123.082268 L133.827153,126.823682 L133.011499,127.439501 L132.195844,128.056354 L134.655182,132.136675 C137.737345,137.249216 137.720847,137.205819 136.641213,137.698682 C135.347096,138.28867 135.212013,138.048955 140.322486,144.234014 C142.745732,147.16639 142.746764,147.20152 140.409104,146.909109 C138.043603,146.612565 138.045665,146.730356 140.479223,149.872482 C145.634036,156.529739 146.152714,157.530962 144.704953,158.036223 C143.306688,158.524952 143.37887,158.856627 145.601039,162.183705 C147.227192,164.617019 148.486249,166.939774 148.486249,167.507031 C148.486249,167.584525 148.022223,167.840772 147.455081,168.076354 C146.183649,168.604347 146.089813,168.109418 148.291358,172.506948 L150.157774,176.236995 L145.124639,176.466378 C139.333595,176.729857 131.740068,178.124751 126.516166,179.883349 L123.222613,180.992031 L122.808083,186.158302 C122.580195,188.999751 121.453127,203.336152 120.304405,218.016627 C119.154652,232.697102 117.759481,250.090903 117.202649,256.667565 C116.645818,263.245261 116.30347,268.931259 116.441647,269.30323 C116.710782,270.029608 122.679187,277.135297 125.83147,280.480974 L127.753569,282.520618 L133.221857,279.782494 C141.696003,275.538919 150.572304,272.854525 158.404031,272.166378 L161.550127,271.889466 L162.619449,274.142993 C163.208247,275.381865 164.064117,277.227257 164.522987,278.245012 L165.356171,280.093504 L164.224979,279.898219 C163.603184,279.79076 162.356501,279.598575 161.45526,279.472518 L159.815701,279.243135 L160.162174,280.157565 C160.35294,280.659727 161.356268,282.513385 162.39053,284.275083 C165.551062,289.655238 165.560343,289.920784 162.517364,288.068159 C159.793016,286.409786 159.794047,286.362257 162.422496,292.807696 C163.685678,295.904359 164.803465,298.652815 164.906582,298.915261 C165.089099,299.379192 162.248229,299.267601 160.430278,298.738575 C159.545535,298.481295 159.658964,299.036152 161.384109,303.418183 C162.961797,307.424109 164.031119,310.665428 163.776421,310.665428 C163.699083,310.665428 162.768969,310.339952 161.708927,309.94215 C159.261964,309.025653 159.326927,308.8438 160.524114,313.267162 C162.125519,319.186675 162.609138,319.124679 152.895527,314.253919 C113.677083,294.590059 89.3384052,262.645974 81.6696026,220.772316 C75.0020649,184.365606 83.382374,152.264466 108.17786,119.238563 C110.353626,116.340285 112.063304,113.899739 111.977717,113.812945 C111.376545,113.211591 97.1814753,126.597399 91.3244364,133.289786 C62.2423818,166.51924 52.1998286,205.298302 59.7809818,255.089786 C61.144187,264.045 66.9146078,279.954014 74.2524052,294.991995 C97.3691481,342.364632 141.256725,372.978919 191.991262,377.122268 C194.248491,377.307221 198.338106,377.637862 201.078953,377.856912 C231.205582,380.271627 270.726158,367.793017 296.46207,347.740653 C324.797558,325.663112 344.398016,288.978456 347.64826,251.939394 C351.44193,208.703907 341.092088,171.563587 316.741036,141.029893 C310.932462,133.745451 298.824478,121.23481 297.582951,121.23481 C297.201418,121.23481 297.124081,121.111853 301.378683,127.262815 C329.797696,168.339834 335.708356,210.733219 318.794094,252.17291 C306.662392,281.893432 274.453834,313.029513 248.835475,319.800428 C246.356545,320.456544 246.355514,321.291413 248.843725,312.611045 C249.622257,309.89772 249.749091,309.954549 246.364795,311.486865 L244.388044,312.381663 L244.388044,311.597423 C244.388044,310.347185 245.342906,306.969477 246.676208,303.50601 C248.123969,299.744964 248.145623,299.799727 245.493457,300.488907 C244.35814,300.783385 243.355844,301.024133 243.266132,301.024133 C242.548439,301.024133 243.983826,296.852886 246.191558,292.520451 C248.253896,288.472162 248.250803,288.459762 245.362499,288.904062 C242.643306,289.321496 242.719613,289.638705 244.601496,285.739204 C246.388512,282.034988 246.384387,281.8769 244.506629,282.398694 C241.903958,283.123005 241.354345,282.574347 242.485538,280.382815 C245.388278,274.757779 254.685296,276.741627 271.934688,286.667067 C274.135203,287.933836 276.077925,288.97019 276.251161,288.97019 C276.712094,288.97019 284.895449,279.253468 286.461795,276.845986 C287.112462,275.844762 287.087714,273.682162 285.937961,232.485285 C285.734821,225.192577 285.39041,212.224204 285.171803,203.66886 C284.954226,195.112482 284.698496,188.051223 284.603629,187.975796 C284.196317,187.655487 276.862644,185.560048 272.917392,184.638385 C269.157751,183.759086 266.41381,183.251758 260.638234,182.365226 L259.185317,182.143076 L260.012314,180.535333 C260.466029,179.6519 262.006595,177.611223 263.434764,176.00038 C266.551987,172.486283 266.509709,172.78696 263.973034,172.185606 L261.904509,171.695843 L263.171816,169.815321 C263.868886,168.781033 265.341395,167.005903 266.443714,165.869323 C268.819527,163.421544 268.761782,163.60753 267.159345,163.577565 C263.850325,163.51557 264.661855,161.471793 270.214699,155.888088 C274.182636,151.89766 273.954748,152.349192 272.144016,152.07538 C268.2926,151.492625 268.304974,151.876995 272.015119,148.145914 C275.883034,144.255713 275.798478,144.466496 273.604151,144.174086 C272.6596,144.049062 271.886223,143.805214 271.886223,143.633694 C271.886223,143.127399 275.423132,139.445914 277.517436,137.772043 C279.899436,135.866722 279.901499,135.89462 277.385447,135.359394 C276.251161,135.118646 275.323109,134.847933 275.323109,134.759074 C275.323109,134.070926 277.947434,131.583884 280.398522,129.950309 L283.363132,127.973694 L281.871031,127.54076 C279.930371,126.977637 279.934496,126.983836 280.786242,125.603409 C281.731823,124.070059 284.124135,121.872328 286.324649,120.514632 C288.309649,119.291259 288.362239,118.797363 286.553569,118.369596 C285.859592,118.204276 285.291418,117.924264 285.291418,117.746544 C285.291418,117.251615 288.069387,114.664347 290.049231,113.316983 C292.118787,111.908658 292.151784,111.814632 290.790642,111.250475 C289.246982,110.609857 289.496525,110.103563 292.5096,107.764276 C295.555673,105.39709 295.582483,105.35576 294.485319,104.606651 C293.76247,104.113789 293.750096,104.040428 294.284242,103.487637 C296.000106,101.712506 299.130735,104.463029 302.199494,110.44247 C304.315452,114.566188 304.589743,114.687078 305.768369,112.025416 C306.425223,110.540629 306.718075,110.174857 306.936683,110.563361 C307.396584,111.378599 307.977132,116.197696 307.977132,119.203432 L307.977132,121.941556 L309.266094,121.289572 C312.667919,119.569204 312.730821,119.766556 310.866468,126.31842 C310.655078,127.062363 310.731384,127.093361 312.787535,127.093361 L314.928242,127.093361 L314.709634,128.259905 C314.588987,128.901556 314.099182,130.391508 313.621751,131.570451 C312.619455,134.040962 312.640078,134.106057 314.307478,133.791948 C323.635431,132.038515 322.677475,116.476675 312.582332,105.75253 C311.383083,104.479561 308.774226,102.071045 306.783039,100.401306 C302.587213,96.8799762 302.761481,97.1124584 304.625834,97.5278266 C308.755665,98.4484561 312.768974,101.197945 317.654652,106.452043 L321.210122,110.27715 L321.483382,108.955618 C321.632901,108.228207 321.869039,107.177387 322.006184,106.620463 L322.255727,105.605808 L324.847055,108.170344 C327.679675,110.97253 329.690455,114.076425 331.555839,118.526651 C333.34801,122.801223 333.48,122.845653 334.627691,119.54234 C335.784662,116.210095 335.744447,116.220428 337.505683,118.861425 C339.048312,121.176948 339.923774,123.67639 340.820891,128.326033 C341.607673,132.402221 341.727288,132.447684 343.326631,129.289026 L344.699117,126.576734 L345.271416,127.927197 C346.271649,130.283017 347.146081,134.298242 347.51627,138.232874 C347.929769,142.625238 347.999888,142.793658 348.708301,141.094988 C352.137969,132.869252 350.494286,120.76158 344.538255,110.388741 C337.25614,97.7055463 326.588699,90.1400594 312.956647,87.9888242 C307.363587,87.1074584 307.370805,87.1157245 310.752008,85.4056888 C315.158192,83.1769596 321.256525,82.78019 326.790808,84.3631354 C328.159169,84.7547387 329.435756,85.0740143 329.626522,85.0740143 C330.158605,85.0740143 330.022491,83.3836105 329.329545,81.3718646 C328.986166,80.3768409 328.753122,79.5636698 328.811899,79.5636698 C329.660551,79.5636698 333.298514,81.405962 335.319605,82.8587173 C338.495605,85.142209 338.224408,85.1763064 338.224408,82.4908789 C338.224408,81.1176841 338.36774,80.2528504 338.595629,80.2528504 C339.432938,80.2528504 342.919319,84.2753088 343.738068,86.1878622 C344.517631,88.0094893 344.670244,88.1624109 345.700382,88.1686105 L346.817138,88.1737767 L346.817138,86.1072684 C346.817138,83.9126366 346.853229,83.8516746 347.841088,84.381734 C348.8836,84.9407245 351.226416,94.8516983 351.282099,98.9371853 C351.290348,99.5199406 352.144156,99.1169715 353.743499,97.7737411 C354.675675,96.992601 355.503704,96.4191449 355.584135,96.4997387 C355.755309,96.6712589 357.972322,104.365903 358.319826,105.997411 C358.641551,107.504929 359.027208,107.40677 359.677875,105.653337 C367.822047,83.6904869 346.30774,63.1669596 319.69946,67.5169596 C314.815844,68.3156651 314.705509,68.295 316.467777,66.9145724 C320.935831,63.4180404 326.912486,62.1368052 331.990992,63.5885273 C332.673626,63.7838124 332.773649,63.7166508 332.617943,63.1679929 C331.914686,60.6912827 331.948714,60.2759145 332.856143,60.2759145 C334.145104,60.2759145 337.103527,61.4703563 339.69073,63.0336698 C342.518195,64.741639 342.349083,64.7747031 342.349083,62.5149762 C342.349083,61.4734561 342.498603,60.6210214 342.681119,60.6210214 C343.309101,60.6210214 345.470431,62.7846556 346.358268,64.3025059 C347.145049,65.6478029 347.372938,65.8120903 348.321613,65.7190974 L349.39506,65.6147387 L349.283694,63.7207838 C349.043431,59.6487292 346.602655,54.6519121 343.812312,52.5161758 C337.550023,47.7249762 323.429197,48.6879691 316.844153,54.3553682 C316.220296,54.8926603 315.333491,55.5880404 314.871527,55.9011164 L314.033187,56.4714727 L313.240218,53.7188836 C308.898997,38.6519715 295.724784,29.0241093 282.455704,31.2218409 C280.650127,31.5204513 280.818208,31.8252613 283.658047,33.3875416 C288.134351,35.8508195 289.782158,37.4244656 289.835779,39.2853563 C289.861558,40.1925534 290.102852,40.4622328 291.543395,41.1937767 C295.584545,43.2458195 297.520049,45.9808432 295.898021,47.3488717 L294.817356,48.2602019 L295.639197,48.8098931 C298.704862,50.8588361 301.915922,55.7316627 302.353138,58.9998456 L302.574839,60.6499525 L300.034039,58.8872209 C288.80461,51.0933848 279.054909,49.8803444 268.533894,54.9660214 C262.382971,57.9397268 258.062374,64.5267221 258.549086,70.1868884 L258.652203,71.3957957 L261.264153,69.169133 C264.007062,66.8298456 265.837387,65.4421853 266.181797,65.4421853 C266.294195,65.4421853 266.385969,66.546734 266.385969,67.8971971 L266.385969,70.352209 L268.914395,67.9457601 C271.125221,65.8420546 274.504361,63.7207838 275.645865,63.7207838 C276.097517,63.7207838 276.107829,63.4924347 275.499439,66.6800238 C274.887956,69.8820784 274.878675,69.8655463 276.715187,68.7041686 C279.69939,66.81538 284.15507,65.7924584 283.792099,67.0788599 C283.698262,67.4095012 283.518839,68.4944181 283.393036,69.4894418 L283.164117,71.2976366 L286.547382,71.3048694 C292.62406,71.3183017 295.590732,73.9933967 296.568281,80.3386105 C296.932283,82.6995962 296.932283,82.6995962 294.435823,80.9079335 C277.754605,68.9387173 257.098231,71.7502019 251.165917,86.7964489 C249.634631,90.6794181 249.145857,96.4770071 250.526592,94.3764014 C251.546418,92.8244537 253.428301,90.8933017 254.420286,90.3797743 C255.458673,89.8414489 255.453517,89.8373159 256.111403,91.8624941 C256.189771,92.1032423 257.261156,91.3882304 258.652203,90.1658907 C259.976223,89.0034798 261.983909,87.4525653 263.11407,86.7189549 L265.170221,85.3850238 L265.691992,86.9276722 C266.394218,89.0014133 266.361221,88.9890143 268.524613,88.0301544 C273.263865,85.9295487 278.300094,86.4100119 283.314668,89.4405463 C285.834844,90.9635629 285.846187,90.9552969 282.283499,90.2092874 C267.788358,87.1725534 255.086421,96.2713895 253.81499,110.600558 C253.429332,114.942292 253.701561,114.915428 257.770553,110.209988 C261.987003,105.334062 261.795205,105.402257 262.100431,108.66734 C262.233452,110.088064 262.471652,111.250475 262.629421,111.250475 C263.667808,111.250475 265.050605,109.998171 267.16347,107.144323 L269.586717,103.870974 L270.046618,105.449786 C270.970545,108.624976 271.939844,108.545416 274.802369,105.05715 C277.513312,101.753836 282.953758,98.1157482 283.845719,99.0095131 C284.501543,99.6666627 281.570961,103.672589 280.433582,103.672589 C279.189992,103.672589 279.146683,103.717019 278.505296,105.653337 C277.863909,107.590689 277.815444,107.640285 276.268691,107.945095 C274.432179,108.306734 274.303283,108.57228 274.297096,112.025416 L274.29194,114.350238 L272.424494,114.350238 L270.558078,114.350238 L270.032182,116.84658 C269.743455,118.219774 269.336143,120.232553 269.126816,121.318504 C268.64526,123.815879 268.378187,123.960534 266.805655,122.577007 L265.527005,121.451793 L264.937177,125.220071 C264.61339,127.291746 264.173081,130.036069 263.96066,131.316271 L263.57294,133.645226 L262.209735,132.878551 C260.416532,131.868029 260.339195,132.030249 260.113369,137.253349 C259.886512,142.516746 259.895792,142.50228 257.760242,141.306805 C255.546322,140.067933 255.405052,140.295249 255.372055,145.175309 C255.327714,151.751971 255.014239,152.794525 253.23341,152.301663 L252.045504,151.973088 L251.639223,156.495641 C251.41546,158.983717 251.144262,161.586485 251.03599,162.280831 L250.840068,163.543468 L249.535639,163.081603 C247.967231,162.527779 248.08066,162.241568 247.451647,168.305736 L247.016494,172.493515 L246.195683,172.180439 C244.624182,171.582185 244.505597,171.720641 244.770608,173.848112 C244.906722,174.937162 245.030462,177.029501 245.046961,178.497755 L245.075834,181.166651 L237.875182,181.166651 C226.961291,181.166651 220.651569,182.178207 210.631701,185.53215 L205.870795,187.126461 L201.669813,185.361663 C189.211231,180.12823 181.105213,177.985261 170.143888,177.029501 C164.636416,176.548005 165.290177,176.992304 165.827416,174.102292 C166.073865,172.778694 166.383216,171.095523 166.514174,170.360879 L166.753405,169.026948 L165.235525,169.255297 L163.716613,169.483646 L163.494912,166.628765 C163.373234,165.058219 163.272179,162.649703 163.271148,161.276508 L163.269086,158.780166 L161.722332,158.780166 L160.175579,158.780166 L160.173517,156.282791 C160.172486,154.909596 160.074525,152.528979 159.954909,150.991496 L159.737332,148.19861 L158.277197,148.362898 L156.817062,148.528219 L156.617016,146.1631 C156.506681,144.862233 156.320039,142.433052 156.201455,140.764347 L155.98594,137.730713 L154.56499,137.837138 L153.14507,137.94253 L152.385099,133.120333 C151.966444,130.469002 151.615847,128.179311 151.603473,128.033622 C151.59213,127.887933 150.970335,128.081152 150.221706,128.464489 C148.263517,129.464679 148.33673,129.562838 147.469517,124.769572 C146.276455,118.171211 146.23727,118.093717 144.727639,119.212732 C143.468582,120.144727 143.137577,119.913278 142.863286,117.905665 C142.740577,117.0088 142.31161,114.508325 141.909455,112.348824 L141.179387,108.421425 L139.935797,108.630143 C139.252132,108.744834 138.363265,108.929786 137.961109,109.040344 C137.202169,109.250095 137.078429,108.884323 135.941049,103.087767 C135.748221,102.103076 135.568797,101.962553 134.260244,101.766235 L132.794953,101.546152 L132.166971,99.0787411 C130.706836,93.3483135 130.726429,93.3896437 129.317852,93.1519952 C127.133836,92.7831235 126.893574,92.6529335 125.7696,91.2301425 L124.67553,89.8466152 L126.012956,90.0770309 C129.858184,90.7383135 134.725301,94.395 138.12919,99.1820665 L139.724408,101.424228 L139.825462,98.932019 C139.881145,97.561924 140.052319,96.43981 140.205964,96.43981 C141.105143,96.43981 143.876925,99.2233967 145.608257,101.863361 C146.69614,103.521734 147.642753,104.951758 147.711842,105.040618 C147.977883,105.380558 148.457377,104.145819 148.872938,102.052447 C149.541135,98.6861045 151.755055,100.172957 155.181629,106.290855 C157.093416,109.703694 157.251184,109.730558 156.723226,106.554335 C154.004034,90.2154869 146.245519,83.076734 130.443888,82.3751544 L125.288044,82.1468052 L126.384177,81.3625653 C130.313961,78.5552138 136.384452,78.7277672 144.62246,81.8833254 C144.936966,82.0042162 145.052457,81.4855226 145.052457,79.9449406 C145.052457,77.4661639 145.255597,77.3814371 148.076875,78.6978029 C150.392881,79.7785867 153.76274,82.9775416 155.128008,85.3922565 C155.708556,86.4193112 156.218984,87.1167577 156.263325,86.9421378 C156.306634,86.7675178 156.447904,85.6939667 156.5768,84.5573872 L156.811906,82.4908789 L158.257605,84.089323 C159.052636,84.9675891 160.269416,86.7499525 160.960299,88.0497862 C162.553455,91.0420903 162.714317,89.8972447 161.359361,85.2114371 C156.030281,66.7864489 132.282462,59.651829 115.098034,71.3152019 C112.930517,72.7855226 112.741813,72.7565914 112.741813,70.9473634 C112.741813,65.3822565 117.449099,62.5656057 125.379818,63.3849762 C127.014221,63.5544299 128.406299,63.6381235 128.473325,63.570962 C128.581597,63.4624703 127.706135,60.1498575 127.246234,58.9295843 C126.964725,58.1835748 129.678761,58.6692043 132.854761,59.9339074 C135.956517,61.1686461 135.828652,61.2027435 135.392468,59.2571259 C134.78614,56.5520665 134.960408,56.358848 137.110395,57.3600713 C139.723377,58.5782779 142.117751,60.4226366 143.391244,62.1998337 C144.851379,64.2374109 145.052457,64.132019 145.052457,61.3298337 C145.052457,57.7506413 145.662909,57.785772 149.606099,61.5933135 C152.110808,64.0111283 152.259296,63.9398337 151.275561,60.7925416 C146.12281,44.313171 129.538522,38.8617221 111.058945,47.5710214 C109.093538,48.4968171 107.438512,49.2552257 107.381797,49.2552257 C106.298039,49.2552257 110.088616,42.63 112.825338,39.7430879 C114.879426,37.5763539 115.125875,37.1733848 114.947483,36.2785867 C114.721657,35.1502732 115.600213,34.2792399 119.874408,31.3923278 C122.211036,29.8145487 122.263626,29.7298219 121.518091,28.7420309 C121.240706,28.3741924 121.008694,27.9112945 121.002506,27.713943 C120.98807,27.2510451 124.626034,25.1721378 127.623642,23.9301663 C128.908478,23.3980404 130.038639,22.8338836 130.1366,22.676829 C130.367582,22.3017577 119.286642,22.3823515 116.946919,22.7729216 M209.858325,33.2180879 C210.093431,34.7845012 209.690244,36.6908551 209.128257,36.674323 C207.822797,36.6340261 207.680496,31.689905 208.984925,31.689905 C209.485042,31.689905 209.680964,32.0339786 209.858325,33.2180879 M213.1096,40.1832542 C213.1096,43.1879572 212.005218,44.2635748 210.064558,43.1476603 C209.057106,42.5680048 209.003486,42.573171 208.210517,43.3191805 C206.683356,44.7564371 205.543914,43.6880523 205.552119,40.8259382 C205.561444,37.2384798 206.49259,36.4521734 207.093761,39.5230048 C207.530977,41.7527672 207.660904,41.8612589 208.64567,40.8114727 L209.455138,39.9487055 L210.422374,40.877601 L211.390642,41.8064964 L211.390642,39.7327553 C211.390642,38.593076 211.50407,37.5453563 211.643278,37.405867 C212.168143,36.8799406 213.1096,38.662304 213.1096,40.1832542 M202.435971,39.5250713 C203.420738,43.0784323 201.281062,46.7258195 200.011694,43.6580879 C199.221818,41.7486342 199.40846,40.0024347 200.504592,39.0580404 C201.785304,37.9545249 202.016286,38.0103207 202.435971,39.5250713 M217.89113,42.5907363 C218.759374,43.2003563 220.501018,46.7020546 221.671395,50.1913539 C224.206008,57.7485748 218.952203,62.4137173 213.532379,57.4179335 L212.751784,56.6987886 L212.177423,57.5408907 C207.708338,64.0968884 204.381787,62.1047743 203.229971,52.1824347 L202.949494,49.7718527 L201.413052,51.3558314 C200.567494,52.2278979 199.153761,53.7199169 198.271081,54.6705107 C195.331218,57.8405344 194.233023,57.7485748 193.975231,54.3119715 L193.8154,52.1824347 L194.554748,53.1299287 C195.849896,54.7914014 197.394587,53.8366746 199.962197,49.7873515 C203.571288,44.0951544 204.64886,44.5818171 205.161351,52.134905 C205.450078,56.3836461 205.851203,57.5212589 207.059732,57.5212589 C208.732288,57.5212589 210.416187,55.41962 211.40714,52.0966746 C211.948504,50.281247 211.71546,50.2192518 214.243886,52.8499169 C216.770249,55.4805819 218.041681,55.9786105 219.048101,54.7325059 C220.481426,52.9584086 218.737719,47.4573634 216.677444,47.2558789 C215.659681,47.1566865 215.594717,47.0605938 215.396732,45.361924 C215.023449,42.1588361 215.895818,41.190677 217.89113,42.5907363 M226.259065,52.0966746 C226.956135,53.2807838 227.794475,54.6694774 228.122387,55.1830048 C228.655501,56.0168409 228.673031,56.3433492 228.283249,58.233171 C227.671766,61.2037767 227.281984,61.1820784 234.358896,58.5751781 C240.379891,56.3567815 243.504332,57.5977197 241.246073,61.3091686 C239.831309,63.6350238 236.396486,67.5086936 235.748912,67.5086936 C234.540382,67.5086936 235.080714,66.3132185 237.151301,64.4089311 C240.843917,61.0126247 240.023106,59.7241568 235.083808,61.1655463 C233.635016,61.5891805 229.238112,63.6825534 228.648283,64.2301781 C228.5926,64.2818409 229.026722,66.241924 229.611395,68.5853444 C230.747743,73.132696 231.223112,77.3091093 230.839517,79.3580523 C230.367242,81.8833254 229.68667,79.9294418 227.750135,70.4875653 C226.33434,63.5874941 226.744745,64.1330523 223.489345,64.8077672 C215.777234,66.4062114 215.185343,67.4177672 218.840836,72.762791 L221.186745,76.1921615 L221.30533,79.6101663 C221.451756,83.8361758 221.139312,84.4664608 218.590262,85.0791805 C213.663338,86.2632898 208.984925,84.6741449 207.10201,81.1765796 L206.062592,79.2454276 L204.688044,79.4551781 C201.986382,79.86538 201.873984,79.9769715 201.416145,82.7274941 C200.743823,86.7675178 198.748512,88.9683492 193.628758,91.3169359 C187.82534,93.9796318 186.871509,92.6105701 191.996418,88.9735154 C199.313592,83.7793468 200.583992,81.9525534 199.016616,78.8744893 C197.368808,75.6393705 198.571151,74.0202613 201.962665,74.9057601 C205.018018,75.7034323 205.203629,75.6559026 205.203629,74.0812233 C205.203629,70.3263777 207.415486,70.4348694 207.769177,74.2072803 C208.208455,78.9106532 213.582906,82.1809026 218.213886,80.5628266 C220.003995,79.9377078 218.924361,77.3215083 215.040979,72.8723159 C210.396595,67.5520903 211.434982,65.0826128 219.185247,63.0150713 C225.935278,61.2141093 225.483626,61.4228266 225.483626,60.1023278 C225.483626,59.4493112 225.096938,57.8849644 224.623631,56.6264608 C223.717234,54.2138124 223.543997,52.2919596 224.099797,50.8268052 C224.585478,49.5455701 224.850488,49.7015914 226.259065,52.0966746 M203.829081,63.0357363 C203.829081,64.20538 202.257579,65.3905226 197.860675,67.5376247 L195.501361,68.6897031 L195.700377,70.3780404 C196.014883,73.0345368 194.237148,75.0865796 191.620042,75.0865796 C190.818823,75.0865796 191.026088,74.1256532 191.884021,73.8632067 C193.846335,73.2639192 194.51247,71.5290855 193.001808,70.9535629 C192.004668,70.5733254 191.964452,70.3232779 192.64193,68.7000356 C193.069865,67.6719477 193.597823,67.2875772 196.336608,66.002209 C198.094751,65.1776722 200.228239,63.9480998 201.078953,63.2682185 C203.044361,61.6997387 203.829081,61.6325772 203.829081,63.0357363 M225.551683,69.8510808 C225.986836,70.8192399 226.142543,71.6758076 225.99921,72.3267577 C225.879595,72.8743824 226.119857,75.2302019 226.534387,77.5622565 C227.368603,82.2604632 227.561431,88.7689311 226.912826,90.3477435 C226.080673,92.3760214 225.789883,91.1350831 224.600945,80.4605344 C224.302938,77.7813064 223.700735,74.5224228 223.233616,73.0562352 C222.397338,70.4317696 222.21379,68.717601 222.611821,67.229715 L222.824242,66.4341093 L223.854379,67.4022684 C224.421522,67.9343943 225.184587,69.0368765 225.551683,69.8510808 M207.285558,87.796639 C209.405642,89.9210095 206.385348,93.1674941 203.907449,91.4285273 C202.600958,90.5120309 202.439065,89.8311164 203.148509,88.2430048 C203.987881,86.3655819 205.675904,86.1837292 207.285558,87.796639 M124.237283,91.7715677 C136.013231,109.717126 146.055784,130.428705 152.790348,150.659822 C156.235483,161.007862 159.925005,174.988824 159.359925,175.555048 C159.054699,175.860891 153.988566,176.169834 153.988566,175.882589 C153.988566,175.097316 149.400896,159.416651 147.258127,152.880285 C140.595745,132.554109 131.167769,112.737328 119.861003,95.2918646 C117.067566,90.9831948 117.047974,90.5399287 119.562995,88.618076 C121.390226,87.2211164 121.140683,87.052696 124.237283,91.7715677 M291.905335,97.5071615 C295.047306,98.7739311 295.256634,97.8316033 290.117288,105.567577 C274.575512,128.963551 262.651075,153.755451 257.296216,173.804715 C256.79713,175.675938 256.151618,177.942898 255.862891,178.841829 L255.336995,180.478504 L252.810631,180.478504 L250.284268,180.478504 L251.155605,177.291948 C254.589397,164.730677 261.002236,148.244074 268.601951,132.437352 C273.962997,121.287506 288.02814,96.4449762 288.984034,96.4387751 C289.129429,96.4377435 290.444169,96.9182067 291.905335,97.5071615 M124.092919,98.6788717 C124.092919,100.037601 125.070468,101.262007 126.155257,101.262007 C127.252421,101.262007 126.686309,98.4711876 125.455094,97.8109382 C124.388865,97.2385154 124.092919,97.4265677 124.092919,98.6788717 M128.562005,106.340451 C128.562005,107.254881 129.992236,109.324489 130.722304,109.465012 C131.446184,109.604501 131.562706,107.577257 130.882135,106.685558 C130.174753,105.757696 128.562005,105.517981 128.562005,106.340451 M283.618862,107.31791 C282.88467,108.253005 282.614504,110.217221 283.2198,110.217221 C284.056078,110.217221 285.333696,109.334822 285.508995,108.635309 C286.01633,106.610131 284.82533,105.780428 283.618862,107.31791 M279.592148,113.924537 C278.510452,114.648848 277.976306,117.45 278.919826,117.45 C279.757135,117.45 281.110029,115.962114 281.347197,114.780071 C281.577148,113.634192 280.680031,113.197126 279.592148,113.924537 M133.372408,115.172708 C133.372408,116.496306 134.184969,117.619454 135.400717,117.975926 C136.189561,118.207375 136.216371,118.161912 136.015294,116.92304 C135.619325,114.475261 133.372408,112.987375 133.372408,115.172708 M275.343732,122.529477 C273.700049,124.049394 273.569091,125.370926 275.062223,125.370926 C276.388306,125.370926 277.045161,124.453397 277.045161,122.599739 C277.045161,121.335036 276.653317,121.318504 275.343732,122.529477 M138.528252,125.397791 C138.528252,126.739988 140.461694,128.886057 140.959748,128.097684 C141.469145,127.290713 141.319626,126.205796 140.565842,125.245903 C139.553234,123.955368 138.528252,124.031829 138.528252,125.397791 M271.023135,131.209846 C269.344392,131.891793 268.510177,134.827268 270.097145,134.466663 C271.343829,134.183551 272.237852,133.101734 272.237852,131.877328 C272.237852,130.821342 272.128548,130.76038 271.023135,131.209846 M16.3553688,135.472019 C10.7272494,145.55658 4.40824675,162.620772 1.26008831,176.236995 L0.76718961,178.367565 L3.22343377,179.256164 C7.50072208,180.803979 21.0904961,184.969026 22.5320701,185.175677 L23.9169299,185.373029 L24.3211481,183.012043 C25.4451221,176.449846 24.9934701,176.909644 29.4821481,177.770344 C31.6558519,178.186746 31.6249169,177.877803 30.1018805,183.884109 C28.5922494,189.840819 29.2604468,189.425451 22.006174,188.911924 C14.914826,188.409762 15.7284182,187.949964 14.6714701,193.049074 C12.2265688,204.838504 10.5292649,224.259549 11.9058753,224.690416 C13.6846416,225.24734 46.0664364,226.562672 46.0695299,226.078076 C46.070561,225.908622 46.6098623,220.499537 47.2687792,214.059264 C47.9266649,207.617957 48.5670208,200.478171 48.690761,198.192613 L48.9145247,194.037898 L44.6557974,193.113135 C42.3129818,192.605808 39.5690416,192.018919 38.5595273,191.809169 L36.7240468,191.428931 L36.9529662,189.13924 C37.9016416,179.679798 37.9923844,179.603337 45.2250026,182.155475 C47.8812935,183.092637 50.5881117,183.91304 51.2398104,183.977102 L52.4256545,184.094893 L53.5991247,180.56323 C54.2446364,178.620713 54.6973195,176.957173 54.6055455,176.864181 C54.5137714,176.772221 51.2016571,175.785463 47.2450623,174.670582 C43.2884675,173.555701 35.9723247,171.464394 30.9866234,170.023005 C18.9405091,166.540938 20.4594208,166.333254 18.8435792,171.68861 C18.1011377,174.147755 17.4246909,176.228729 17.3401351,176.313456 C17.0565636,176.597601 9.55481039,173.424477 9.36610649,172.940914 C8.68244156,171.190582 19.5643662,144.013931 21.2008312,143.384679 C21.4276883,143.297886 24.7563013,144.630784 28.5953429,146.348052 L35.5763558,149.469513 L36.3971662,147.85247 C37.2891273,146.092838 38.5770571,142.54981 38.3914468,142.363824 C37.855239,141.825499 18.5362909,133.292886 17.8557195,133.292886 C17.6989818,133.292886 17.0245974,134.273444 16.3553688,135.472019 M142.312642,133.959335 C142.312642,135.771663 143.278847,137.067363 144.638958,137.076663 C145.448426,137.081829 145.4608,136.896876 144.812195,134.498694 C144.454379,133.176128 142.312642,132.714264 142.312642,133.959335 M265.516694,141.370867 C263.914257,142.977577 264.557706,145.031686 266.313787,143.916805 C267.253182,143.320618 267.422294,143.008575 267.422294,141.869929 C267.422294,140.261152 266.789156,140.095831 265.516694,141.370867 M146.777603,145.364394 C146.777603,146.481342 147.677813,147.932031 148.642987,148.37323 C149.663844,148.839228 149.928855,147.295546 149.128668,145.535914 C148.606896,144.389002 146.777603,144.255713 146.777603,145.364394 M262.041655,150.511033 C260.560896,151.110321 259.760709,153.957969 261.073387,153.957969 C262.094244,153.957969 263.295556,152.443219 263.295556,151.155784 C263.295556,150.101865 263.190377,150.047102 262.041655,150.511033 M367.788018,155.862257 C365.424579,156.503907 360.938995,157.783076 357.819709,158.705772 L352.148281,160.383777 L352.256553,161.363302 C352.316361,161.901627 353.573356,165.608943 355.04999,169.60247 C356.527655,173.594964 358.780758,179.697363 360.056314,183.163931 C361.332901,186.630499 362.640423,189.79329 362.962148,190.191093 L363.547852,190.916437 L366.699104,190.13633 C368.432499,189.706496 369.849325,189.257031 369.848294,189.13614 C369.842106,188.394264 368.660387,185.021722 365.34621,176.282458 C360.746166,164.147922 360.767821,165.359929 365.114197,163.654026 L368.62739,162.275665 L369.100696,163.368848 C372.67679,171.646247 378.289442,188.780701 379.967153,196.547672 L380.20226,197.634656 L374.252416,199.05538 C370.980517,199.83652 365.596784,201.065059 362.287764,201.784204 L356.272956,203.091271 L356.32039,206.255095 C356.376073,209.996508 356.673049,210.547233 358.468314,210.249656 C359.841831,210.02234 385.360166,205.032755 386.631597,204.743444 C388.591849,204.297078 385.729325,187.471568 381.667551,175.563314 C379.080348,167.981295 373.067603,154.579988 372.293195,154.670454 C372.177704,154.684347 370.150426,155.220606 367.788018,155.862257 M150.407317,156.626865 C150.868249,158.688207 153.304901,160.593527 153.299754,158.889691 C153.293558,156.835582 152.605769,155.680404 151.387958,155.680404 C150.263984,155.680404 150.20727,155.735166 150.407317,156.626865 M258.587239,160.504667 C257.680842,160.870439 257.103387,161.865463 257.103387,163.061971 C257.103387,164.669715 259.186348,163.992933 259.817423,162.179572 C260.514494,160.177126 260.258764,159.828919 258.587239,160.504667 M153.985473,169.274929 C153.985473,170.884739 154.330914,171.337304 155.845701,171.718575 C156.836655,171.967589 156.840779,171.962423 156.631452,170.669822 C156.200423,168.008159 153.985473,166.840582 153.985473,169.274929 M386.596538,171.071758 C385.77779,171.286675 385.78707,171.343504 387.65761,177.206188 L389.305418,182.372458 L390.829486,182.485083 C392.591753,182.615273 395.600704,182.292898 396.22353,181.907494 C396.545255,181.708076 396.226623,180.319382 394.920132,176.239062 L393.189831,170.834109 L390.194286,170.874406 C388.545447,170.896105 386.927543,170.984964 386.596538,171.071758 M253.926356,173.675558 C252.75701,174.583789 252.554901,176.689561 253.635566,176.689561 C254.786351,176.689561 255.640158,175.818527 255.934042,174.342007 C256.177397,173.124834 255.096732,172.766295 253.926356,173.675558 M164.348719,179.611603 C177.033127,180.828777 187.911958,183.415012 202.360696,188.649477 L207.602127,190.547565 L212.672384,189.13614 C235.855122,182.681401 260.882621,182.765095 280.112888,189.362423 C282.603161,190.215891 282.423738,188.675309 282.852704,212.853456 C283.056875,224.314311 283.384787,241.827969 283.582771,251.77304 C283.780756,261.718112 283.896247,271.042197 283.839532,272.492886 L283.737447,275.131817 L278.955917,273.244062 C254.559494,263.6131 231.816034,264.263017 209.83667,275.217577 C203.249564,278.500226 204.503465,278.48266 199.524982,275.360166 C176.534042,260.939038 153.185286,258.252577 126.037704,266.902981 C123.617551,267.673789 121.545932,268.305107 121.431473,268.305107 C121.024161,268.305107 123.922777,210.566865 125.46953,187.882803 C125.918088,181.302007 125.15193,182.126544 131.811218,181.04886 C136.549439,180.282185 139.549109,179.901948 145.388618,179.328492 C148.752291,178.998884 159.656901,179.161105 164.348719,179.611603 M245.068616,186.851615 C244.069413,187.200855 235.501431,191.372102 235.169395,191.670713 C234.908509,191.905261 235.584956,193.642162 235.999486,193.801283 C236.544974,194.011033 244.943844,190.291318 245.865709,189.432684 C246.295706,189.030748 246.456569,188.472791 246.381294,187.639988 L246.270958,186.431081 L245.068616,186.851615 M152.434595,189.2188 C150.922901,189.852185 147.829395,191.226413 145.560823,192.2731 C133.446652,197.857838 134.36233,197.240986 135.294506,199.199002 C135.813184,200.289086 135.813184,200.501936 135.294506,202.027019 C134.4242,204.584323 134.511849,204.76101 136.193686,203.833147 L137.654852,203.027209 L137.755906,200.74785 L137.85593,198.469525 L139.989418,197.697684 C144.127499,196.202565 154.724821,191.349371 154.998081,190.824477 C155.452826,189.953444 155.776613,188.055356 155.469325,188.061541 C155.312587,188.064656 153.947319,188.585416 152.434595,189.2188 M187.494335,190.509335 C182.709712,192.44462 174.707842,196.120938 174.199475,196.617933 C173.024974,197.765879 172.974447,199.900582 174.128325,199.637102 C176.386584,199.121508 189.457681,192.373325 189.768062,191.563254 C190.511535,189.61867 190.133096,189.443017 187.494335,190.509335 M164.522987,190.696354 C163.761984,191.457862 165.111784,202.769929 166.771966,209.555309 C168.788932,217.792411 174.93573,219.718397 184.682338,215.165879 C187.406686,213.89291 187.789249,213.79785 188.463634,214.223551 C195.206447,218.475392 198.399977,216.904846 197.386338,209.833254 C196.269582,202.049751 193.654538,201.422565 187.120021,207.372043 C175.814286,217.665321 171.365823,216.364454 168.763153,202.004287 C167.197839,193.369382 165.738735,189.478147 164.522987,190.696354 M265.5136,191.31734 C261.352834,192.224537 257.098231,194.853135 257.098231,196.515641 C257.098231,197.935333 258.025252,197.904335 261.088855,196.382352 C262.877932,195.49272 265.060917,194.739477 266.887117,194.379905 L269.816668,193.802316 L269.816668,192.307197 C269.816668,190.569264 269.389764,190.471105 265.5136,191.31734 M243.263039,191.750273 C241.961704,193.190629 241.680195,196.072375 242.756735,196.933076 C243.414621,197.457969 248.542623,196.132304 249.278878,195.245772 C249.902735,194.495629 250.08319,192.35266 249.587197,191.569454 C249.362403,191.215048 249.208758,191.237779 248.841662,191.681045 C247.338218,193.496473 244.846914,193.878777 244.663366,192.321663 C244.527252,191.161318 243.992075,190.942268 243.263039,191.750273 M157.980221,193.592565 C157.524444,195.879157 157.81214,198.721639 158.970143,203.348551 C160.417904,209.131675 160.426153,209.327993 159.240309,209.779525 C157.666745,210.379846 151.525104,210.909905 149.160634,210.650558 L146.91681,210.404644 L146.135184,208.384632 C143.460332,201.471128 139.561483,201.500059 137.665164,208.44766 C136.919629,211.180618 134.659306,214.325843 131.445153,217.10633 C128.047452,220.043872 128.060857,219.984976 130.861512,219.727696 C133.392,219.495214 134.05401,219.223468 136.324644,217.486568 L137.829119,216.335523 L139.772873,217.005071 C142.463192,217.932933 143.12314,217.857506 144.688455,216.439881 L146.052691,215.205143 L150.467125,215.627743 C162.056431,216.736425 165.156125,212.910285 162.443119,200.84291 C161.101569,194.8769 158.551488,190.733551 157.980221,193.592565 M224.492673,195.005024 C220.60001,197.078765 219.827665,197.62639 219.423447,198.597648 C218.475803,200.868741 218.130361,200.924537 225.279455,197.638789 C231.343758,194.852102 230.689997,195.355297 230.263094,193.805416 C229.808348,192.155309 229.861969,192.143943 224.492673,195.005024 M25.7142571,197.067399 C27.3527844,197.378409 27.5291143,197.495166 27.3651584,198.160582 C26.6361221,201.10639 25.7163195,207.58696 25.3719091,212.19734 L24.9635662,217.675653 L22.3918312,217.675653 L19.8190649,217.675653 L20.0407662,211.905962 C20.2552494,206.337755 21.059561,198.046924 21.4957455,196.905178 C21.7184779,196.324489 21.816439,196.327589 25.7142571,197.067399 M38.845161,197.701817 C39.8495195,197.891936 40.713639,198.091354 40.7651974,198.143017 C40.817787,198.195713 40.4857506,200.325249 40.0289429,202.876354 C39.5721351,205.427458 38.9771506,209.966544 38.7059532,212.961948 C38.130561,219.338159 38.5182805,218.641746 35.6526623,218.443361 L33.3325325,218.28424 L33.3387195,215.654608 C33.3438753,212.734632 33.7893403,206.698361 34.4152597,201.056793 L34.8266961,197.354644 L35.9228286,197.354644 C36.5260623,197.354644 37.8418338,197.510665 38.845161,197.701817 M246.357577,198.978919 C245.216073,199.152506 245.227416,198.830131 246.107003,205.940986 C246.906158,212.406057 247.169106,211.675546 243.349657,213.611865 C238.284556,216.179501 234.634218,215.257838 231.01894,210.499703 C226.973665,205.175344 225.042286,205.955451 223.392416,213.577767 C222.458177,217.891603 219.877161,221.095724 216.396966,222.257102 C216.218574,222.317031 216.172171,222.62804 216.294881,222.948349 C216.961016,224.687316 221.815758,222.916318 223.518218,220.313551 C223.990494,219.591306 224.176104,219.572708 229.981584,219.6812 C233.269982,219.742162 236.621281,219.800024 237.430748,219.809323 C239.483805,219.834121 241.595639,218.940356 244.108597,216.984406 L246.257553,215.310534 L248.165216,217.133195 C252.700296,221.467696 258.834719,221.636116 267.341862,217.660154 C268.91027,216.926544 271.058195,216.166069 272.115143,215.970784 C274.573449,215.515119 274.972512,215.15658 274.972512,213.396948 C274.972512,210.794181 273.495878,210.472838 269.454727,212.195273 C264.974299,214.10576 261.927195,212.795594 261.641561,208.833064 C261.394081,205.407827 262.854216,204.640119 266.723161,206.162102 L269.151564,207.115796 L270.744719,206.454513 C272.910174,205.554549 272.886457,205.302435 270.495177,203.805249 C262.921242,199.06158 257.110605,203.073705 258.654265,211.982423 C259.218314,215.238207 259.3998,214.970594 256.486748,215.179311 C253.745901,215.375629 252.452816,214.874501 251.152512,213.11177 C249.961512,211.49886 249.884174,211.165119 249.346935,205.306568 C248.694205,198.181247 248.889096,198.594549 246.357577,198.978919 M142.096096,208.929157 C143.198416,209.353824 142.81379,211.820202 141.645475,211.820202 C140.563779,211.820202 140.233805,211.331473 140.233805,209.725796 C140.233805,208.692542 140.824665,208.440428 142.096096,208.929157 M193.854584,209.40962 C195.514766,211.073159 193.475114,213.173765 191.73347,211.594952 C190.769327,210.719786 191.527236,208.720439 192.823416,208.720439 C193.012119,208.720439 193.476145,209.030416 193.854584,209.40962 M228.361618,212.709834 C228.935979,214.209086 228.615286,214.967494 227.453158,214.855903 C225.800195,214.695748 225.503218,212.164276 227.138652,212.164276 C227.747042,212.164276 228.236847,212.382292 228.361618,212.709834 M372.33341,215.866425 L368.466527,215.97595 L368.466527,218.806033 C368.463434,229.232601 369.231655,246.455914 369.717335,246.833052 C369.999875,247.052102 371.650777,247.485036 373.387265,247.793979 C384.246504,249.725131 384.27847,249.733397 384.27847,250.519703 C384.27847,253.296057 381.685081,271.188919 380.490987,276.650701 C378.867927,284.077732 377.748078,287.249822 376.757125,287.22709 C374.615387,287.176461 370.705195,285.724739 370.592797,284.938432 C370.505148,284.320546 374.268914,264.442803 374.863899,262.382494 C375.047447,261.743943 372.199358,260.676591 369.050169,260.203361 C367.061044,259.903717 367.343584,259.227969 365.0812,269.709299 C364.117057,274.175024 362.79613,280.142067 362.146494,282.96905 C361.495826,285.796033 360.862688,288.805903 360.738948,289.658337 L360.515184,291.208219 L367.080636,293.245796 C370.690758,294.365843 373.866758,295.45076 374.137956,295.656378 C374.604044,296.010784 373.089257,301.352708 371.164065,306.135641 C370.52474,307.724786 370.265917,307.658658 358.938527,302.995582 C353.686784,300.834014 348.907317,298.97209 348.316457,298.857399 L347.24301,298.648682 L342.910039,307.20196 L343.866964,310.054774 C344.817701,312.893124 354.47666,338.727577 356.489501,343.81842 C357.785681,347.096936 357.665034,347.103135 359.951135,343.645867 C375.618714,319.955416 386.963634,289.702767 390.852171,261.243848 C392.498948,249.186805 391.717322,218.534287 389.698294,216.038979 C389.355945,215.616378 383.272049,215.555416 372.33341,215.866425 M384.449644,223.245926 C384.655878,223.437078 384.841488,227.164026 384.91367,232.549347 L385.034317,241.533492 L381.476784,241.302043 C375.309364,240.899074 376.076553,242.612209 375.471257,227.902803 L375.247494,222.458587 L379.676364,222.692102 C382.113016,222.821259 384.26094,223.070273 384.449644,223.245926 M192.136657,224.034299 C188.835886,225.283504 177.817847,230.516936 177.442501,231.013931 C177.206364,231.327007 177.013535,232.038919 177.013535,232.593777 C177.013535,234.083729 178.119979,233.744822 185.52274,229.986876 C192.443945,226.473812 193.340031,225.867292 193.654538,224.477565 C193.8948,223.41538 193.824681,223.395748 192.136657,224.034299 M147.625223,226.240297 C143.145826,228.218979 131.911242,233.478242 131.68954,233.700392 C131.603953,233.786152 131.818436,234.488765 132.166971,235.261639 C132.780517,236.626568 132.780517,236.720594 132.163878,238.538088 C131.42453,240.716188 131.498774,240.885641 132.96819,240.372114 C134.321083,239.899917 134.735613,239.162173 134.735613,237.223789 C134.735613,234.977494 134.948034,234.828705 143.500548,231.102791 C151.664312,227.544264 152.265483,227.162993 152.265483,225.531485 C152.265483,224.252316 152.051,224.28538 147.625223,226.240297 M241.547174,225.624477 C239.534332,226.799287 239.745722,228.680843 241.890553,228.691176 C243.262008,228.697375 243.268195,228.839964 241.977171,230.879608 C240.471665,233.259192 240.883101,233.548504 243.287787,231.803337 C247.333062,228.866829 245.731657,223.182898 241.547174,225.624477 M262.733569,227.656888 C261.882855,228.000962 260.53821,229.615938 260.53821,230.29272 C260.53821,230.621295 261.010486,230.76285 262.107649,230.76285 C263.874042,230.76285 263.924569,231.077993 262.551052,233.476176 C261.720961,234.923765 261.881823,235.104584 263.341958,234.364774 C267.758455,232.126746 267.189249,225.852827 262.733569,227.656888 M233.380317,229.127209 C230.942634,230.512803 230.800332,230.661591 230.697216,231.912862 C230.567288,233.492708 230.743618,233.478242 234.672371,231.583254 C237.266792,230.331983 237.603984,229.818456 236.808953,228.329537 C236.336678,227.445071 236.342865,227.443005 233.380317,229.127209 M167.362826,229.703765 C165.870725,231.19785 166.026431,231.796105 167.90419,231.796105 C169.741732,231.796105 169.733483,231.755808 168.397088,234.128159 C167.128751,236.381686 167.244242,236.59557 169.160153,235.536485 C172.966197,233.430713 173.26833,228.696342 169.596338,228.696342 C168.696127,228.696342 168.098049,228.966021 167.362826,229.703765 M216.177327,232.187708 C211.887665,234.361675 211.352488,234.72848 211.524694,235.37323 C211.631935,235.774133 211.721647,236.306259 211.72474,236.555273 C211.730927,237.206223 212.630106,236.877648 217.486912,234.446401 L221.697174,232.338563 L221.697174,231.034596 C221.697174,229.348325 221.834319,229.319394 216.177327,232.187708 M155.083668,231.218515 C154.546429,232.708468 154.577364,235.25234 155.186784,239.718064 C155.969442,245.448492 156.06534,245.093052 153.382239,246.364988 C148.229488,248.809667 143.514984,247.604893 142.306455,243.535938 C140.580278,237.72905 136.93819,238.98962 134.895444,246.100475 C134.117943,248.804501 133.243512,250.498005 131.421436,252.82696 C129.576675,255.185879 129.576675,255.216876 131.421436,255.216876 C132.676369,255.216876 133.170299,254.996793 134.456166,253.86228 L135.991577,252.507684 L136.995935,253.171033 C138.465351,254.141259 139.863616,254.013135 141.577418,252.749466 L143.056114,251.660416 L145.364901,252.405392 C149.085358,253.606033 151.258031,253.250594 155.107384,250.815214 L157.279026,249.440986 L158.037966,250.761485 C160.530301,255.100119 167.321579,255.981485 178.768584,253.450012 L182.070387,252.719501 L184.326584,253.623599 C192.405792,256.861817 197.816335,251.140689 195.936514,241.347506 C194.472255,233.717957 194.458849,233.699359 192.529532,236.545974 L191.178701,238.540154 L192.004668,241.007565 C192.458382,242.365261 192.928595,244.632221 193.047179,246.044679 L193.263725,248.614382 L191.92733,248.986354 C190.447603,249.397589 187.2252,249.490582 186.867384,249.133076 C186.741582,249.007019 187.050932,248.197981 187.555174,247.335214 C190.478538,242.338397 189.555642,240.801948 183.441842,240.486805 C177.190896,240.16443 173.752979,241.809371 173.988086,245.010392 L174.091203,246.419751 L176.266969,246.98804 C179.56774,247.850808 179.497621,248.113254 175.732823,248.998753 C169.40454,250.486639 165.246868,250.303753 161.686242,248.3788 C159.616686,247.260819 159.443449,246.808254 157.354301,237.015071 C155.774551,229.608705 155.716805,229.463017 155.083668,231.218515 M10.6478494,232.617542 C10.6478494,235.934287 14.0692675,262.697637 14.5415429,263.078907 C15.0870312,263.51804 25.1244286,262.036354 30.2276831,260.763385 C32.4086052,260.219893 34.6410857,259.670202 35.1896675,259.543112 L36.1857766,259.310629 L35.949639,248.567886 C35.8207429,242.658705 35.6227584,237.087399 35.5113922,236.187435 L35.3072208,234.551793 L31.1949195,234.551793 L27.0826182,234.551793 L27.2888519,236.187435 C28.4468545,245.338967 28.8768519,253.129703 28.2272156,253.160701 C28.1055377,253.1669 26.8464805,253.326021 25.4286234,253.514074 C24.0107662,253.702126 22.3021195,253.766188 21.6308286,253.656663 L20.411987,253.458278 L19.7974104,243.401615 C19.459187,237.871639 19.0601247,233.216829 18.9085429,233.059774 C18.1547584,232.270368 10.6478494,231.869466 10.6478494,232.617542 M225.997148,233.50304 C225.315545,235.019857 225.30214,234.838005 226.663283,242.473753 C228.881327,254.911033 230.484795,257.393943 234.810548,255.089786 L236.342865,254.273515 L237.692665,254.966829 C238.871291,255.573349 239.229106,255.610546 240.521161,255.264406 C241.733816,254.939964 242.179281,254.961663 243.001122,255.387363 C244.377732,256.100309 245.290317,256.035214 247.346468,255.076354 C248.999431,254.305546 249.27166,254.276615 251.686657,254.625855 C257.594223,255.47829 259.864857,251.393836 256.986865,245.094086 C256.238236,243.456378 251.900109,238.340736 251.259753,238.340736 C250.386353,238.340736 249.641849,242.191675 250.394603,242.816793 C252.795164,244.814074 254.771914,250.422577 253.059143,250.380214 C251.915577,250.351283 249.930577,249.457518 248.229148,248.20728 C246.160623,246.685297 246.315299,246.690463 245.439836,248.109121 C244.746891,249.233302 244.687083,249.256033 243.386779,248.90886 C242.158657,248.580285 241.951392,248.630914 240.901662,249.51538 L239.757065,250.480439 L238.506257,249.026651 L237.256481,247.571829 L235.612797,248.829299 C231.83047,251.721378 230.971506,250.628195 228.63694,239.953646 C226.80146,231.562589 226.834457,231.643183 225.997148,233.50304 M273.458756,232.997779 C272.501831,234.4619 272.447179,235.89709 273.204057,239.739762 C273.593839,241.716378 274.466208,246.510677 275.143686,250.39158 C276.308906,257.073634 276.780151,258.73614 277.1854,257.599561 C278.189758,254.77981 278.295969,250.804881 277.501969,245.698539 C277.038974,242.716568 277.014226,241.851734 277.365855,240.784382 C277.813382,239.425653 276.318187,235.032257 274.677597,232.884121 L274.060958,232.07715 L273.458756,232.997779 M244.478787,233.144501 C243.14033,235.289537 244.985091,237.995629 247.785745,237.995629 C248.190995,237.995629 249.19226,235.819596 249.19226,234.937197 C249.19226,233.5888 245.157296,232.054418 244.478787,233.144501 M267.739894,234.055831 C266.876805,235.454857 266.951049,236.616235 268.145143,240.407245 C271.077787,249.718931 267.969844,257.490036 260.773317,258.843599 C259.146132,259.149442 259.154382,259.588575 260.792909,259.936781 C271.562436,262.225439 275.284956,252.884822 270.187888,236.359988 C268.978327,232.441888 268.824683,232.297233 267.739894,234.055831 M253.30353,235.63361 C254.129496,237.810677 254.846158,238.593884 258.128369,240.90114 C261.316743,243.142268 262.713977,244.676651 265.41667,248.899561 C267.836823,252.680238 268.435932,252.573812 267.79867,248.47696 C266.994358,243.30139 261.521945,237.411841 254.855439,234.548694 C252.62399,233.589834 252.548714,233.643563 253.30353,235.63361 M223.09647,241.203884 C222.533452,242.675238 222.647912,244.277815 223.447068,246.087043 C225.324826,250.34095 223.473878,252.621342 217.798325,253.049109 C212.296008,253.463444 210.574987,250.763551 211.743301,243.549371 C212.166081,240.937304 211.979439,240.603563 210.860621,241.970558 C205.272717,248.794169 209.184971,259.340594 217.154875,258.936591 C226.790117,258.446829 230.680717,248.868563 224.330779,241.267945 L223.467691,240.234691 L223.09647,241.203884 M130.607844,242.128646 C130.607844,242.912886 130.764582,243.1619 131.258512,243.1619 C132.17419,243.1619 132.509319,242.08215 131.763784,241.535558 C130.854294,240.869109 130.607844,240.9962 130.607844,242.128646 M216.02059,241.442565 C215.905099,241.630618 215.722582,242.833325 215.61534,244.115594 L215.420449,246.447648 L217.259023,247.036603 C219.376013,247.714418 219.44407,247.676188 220.027712,245.481556 C220.445335,243.913076 220.426774,243.803551 219.618338,242.998646 C218.557265,241.943694 216.311379,240.972435 216.02059,241.442565 M140.035821,245.769834 C141.445429,247.182292 139.904862,249.259133 138.146719,248.316805 C137.487803,247.962399 137.284662,246.833052 137.690943,245.773967 C137.959047,245.07342 139.337719,245.071354 140.035821,245.769834 M191.829369,257.334014 L190.419761,258.373468 L188.705958,257.803112 C186.698273,257.134596 186.426044,257.250321 185.591829,259.116378 C184.818452,260.848112 185.057683,261.375071 187.116927,262.469287 L188.668836,263.294857 L189.646384,262.355629 C190.813668,261.234549 191.382873,261.194252 193.164732,262.105582 C195.016712,263.052043 195.022899,263.048943 196.405696,260.768551 C197.911203,258.284608 197.921514,258.477827 196.246896,257.622292 C193.494706,256.215 193.360655,256.205701 191.829369,257.334014 M269.300052,260.675558 C263.70493,263.248361 263.284213,263.535606 263.284213,264.783777 C263.284213,266.210701 263.445075,266.176603 268.211138,263.74019 C271.702675,261.954727 272.178044,261.492862 271.663491,260.380048 C271.373732,259.752862 271.278865,259.765261 269.300052,260.675558 M14.9313247,270.195962 C17.5329636,287.57633 31.6125429,319.520416 45.2198468,338.910463 C55.0706026,352.947221 76.1549117,375.688112 79.0060935,375.350238 C80.0444805,375.22728 93.4909221,360.231663 93.4909221,359.196342 C93.4909221,357.83348 74.7958312,336.160974 73.6172052,336.156841 C73.1799896,336.155808 70.0864831,337.883409 66.7434338,339.996413 C63.4003844,342.108385 60.3553429,344.026105 59.9779351,344.257553 C59.3468597,344.642957 59.0478208,344.34848 56.3327532,340.674228 C51.4491377,334.065534 47.328587,328.092292 47.2935273,327.568432 C47.2729039,327.263622 49.7446156,325.794335 53.7909221,323.706128 C61.1792468,319.894454 60.7523429,320.504074 58.8704597,316.437185 C57.3092701,313.06361 57.7547351,313.035713 49.5074468,317.020974 L42.8172234,320.254026 L42.2717351,319.335463 C40.7569481,316.788492 34.6740831,303.741591 34.6132442,302.907755 C34.5462182,301.996425 34.9195013,301.738112 41.9324805,297.842743 C59.1076286,288.305808 57.4649766,289.954881 55.6418701,284.076698 C54.2167948,279.478717 55.0468857,279.948848 41.2323169,275.904691 C34.5276571,273.942542 26.5536286,271.597055 23.5116805,270.69399 C20.4697325,269.790926 17.2401117,268.940558 16.3337143,268.805202 L14.6859065,268.557221 L14.9313247,270.195962 M173.061065,274.326912 C178.246813,274.705083 177.904465,274.4881 178.696403,277.896805 C181.061904,288.077458 180.489605,299.608575 176.825862,315.606449 C174.992444,323.611069 175.439971,323.125439 170.998727,321.919632 L168.249631,321.172589 L168.258912,319.451188 C168.265099,318.503694 168.565169,315.093955 168.926078,311.873302 C169.876816,303.395451 169.830413,289.979679 168.82193,281.564857 C167.838195,273.365986 167.819634,273.74519 169.194182,273.954941 C169.808758,274.048967 171.549371,274.216354 173.061065,274.326912 M241.087273,276.829454 C238.816639,286.651568 238.343332,297.705321 239.550831,312.693705 C239.954018,317.691556 240.238621,321.819406 240.185,321.866936 C239.650855,322.342233 230.870452,325.15785 230.653906,324.924335 C228.967945,323.107874 226.88086,303.627933 227.510904,295.594382 C228.032675,288.949525 229.847532,279.43842 230.929229,277.683955 C231.050906,277.486603 233.084371,277.095 235.44781,276.813955 C241.319286,276.115475 241.25226,276.115475 241.087273,276.829454 M190.247556,278.553955 C193.573075,280.220594 196.666582,282.460689 199.742558,285.432328 C202.846377,288.429798 202.850501,288.432898 203.76721,287.888373 C204.271452,287.588729 206.772036,285.995451 209.324179,284.347411 C213.385953,281.723979 221.98487,277.087767 222.266379,277.369846 C222.487049,277.590962 223.417164,282.535083 223.417164,283.487743 C223.417164,284.309181 223.187213,284.612957 222.21379,285.077922 C220.694878,285.804299 220.693847,285.787767 222.622132,290.515938 C224.441114,294.97443 224.4638,294.773979 222.094174,295.055024 C220.009151,295.303005 219.998839,294.815309 222.241631,301.54076 L223.735795,306.018884 L222.459208,306.117043 C219.856538,306.316461 219.780231,305.904192 223.6698,312.662708 C226.25494,317.154264 226.296187,316.786425 223.17587,317.077803 C220.323657,317.343349 220.362842,316.935214 222.659255,322.438325 L224.04927,325.769537 L221.584777,326.226235 C214.605826,327.520903 189.555642,326.466983 184.347208,324.660855 L183.211891,324.266152 L185.279384,319.99158 C187.368532,315.67361 187.437621,315.175582 185.950675,315.145618 C184.585408,315.11772 184.523538,314.637257 185.543364,311.984893 C187.199421,307.674157 187.205608,307.568765 185.785688,307.568765 C184.299774,307.568765 184.288431,308.048195 185.955831,300.509572 C186.709616,297.099834 187.326255,294.271817 187.326255,294.223254 C187.326255,294.175724 186.93441,294.136461 186.455948,294.136461 C185.191735,294.136461 185.154613,293.674596 186.054823,289.123112 C186.502351,286.860285 186.777673,284.983895 186.667338,284.952898 C186.557003,284.9219 186.047605,284.804109 185.535114,284.691485 L184.602938,284.485867 L185.868182,280.87361 C187.288101,276.816021 187.040621,276.947245 190.247556,278.553955 M171.417382,280.445843 C171.564839,281.439834 171.659706,283.532173 171.626709,285.095487 L171.56587,287.936936 L172.90639,287.936936 C174.650096,287.936936 175.314169,286.767292 175.337886,283.656164 C175.362634,280.436544 174.276813,278.637648 172.309343,278.637648 L171.147216,278.637648 L171.417382,280.445843 M38.7472,283.183967 C44.2722026,284.383575 48.4546234,285.454026 48.4494723,285.666876 C48.4360623,286.294062 31.1495481,295.210012 30.8835065,294.726449 C30.6453065,294.293515 27.3600026,283.355487 26.9444416,281.61342 C26.6649948,280.440677 25.236826,280.250558 38.7472,283.183967 M234.463044,281.508029 C233.1978,283.035178 232.536821,288.524857 233.47106,289.743064 C233.707197,290.052007 234.480574,290.40848 235.188987,290.536603 L236.477948,290.769086 L236.486197,288.060926 C236.494447,285.675143 236.779049,283.618967 237.374034,281.650618 C237.601922,280.895309 235.072465,280.771318 234.463044,281.508029 M172.101047,295.772102 C172.250566,296.482981 172.354714,298.651781 172.332029,300.594299 C172.285626,304.442138 172.365026,304.569228 174.360338,303.808753 C177.543556,302.595713 176.388647,294.480534 173.032192,294.480534 L171.826756,294.480534 L172.101047,295.772102 M231.978958,298.674513 C230.22494,302.119382 230.908605,306.535511 233.195738,306.535511 L234.41561,306.535511 L234.417673,304.554762 C234.419735,302.63291 234.864169,299.223171 235.285917,297.891306 C235.776753,296.340392 232.809049,297.043005 231.978958,298.674513 M14.9488545,306.848587 C12.7638078,307.62766 10.3085948,308.882031 10.3085948,309.220938 C10.3085948,310.383349 15.5201221,319.967815 16.1522286,319.967815 C17.3391039,319.967815 21.9948312,317.497304 21.9948312,316.868052 C21.9948312,316.324561 17.4298468,306.98291 16.9204494,306.484881 C16.7812416,306.348492 15.8944364,306.512779 14.9488545,306.848587 M170.593478,308.80867 C171.425631,311.661485 171.545247,312.735036 171.326639,315.367767 C171.195681,316.950713 171.22146,318.244347 171.386447,318.243314 C172.821834,318.234014 174.233504,317.446675 174.574821,316.46405 C175.462657,313.912945 174.478922,308.602019 173.11881,308.602019 C172.849675,308.602019 172.128888,308.50076 171.516374,308.378836 C170.536764,308.182518 170.425397,308.234181 170.593478,308.80867 M360.338855,313.882981 C363.526197,315.314038 366.233016,316.587007 366.353662,316.710998 C366.617642,316.98171 360.139839,329.693836 359.654158,329.856057 C359.467517,329.918052 358.336325,327.60253 357.140169,324.710451 C353.168106,315.100154 351.722408,311.536461 351.473896,310.749121 L351.228478,309.970048 L352.885566,310.625131 C353.797119,310.985736 357.151512,312.450891 360.338855,313.882981 M232.546101,311.67905 C230.108418,314.37791 230.52501,320.311888 233.152429,320.311888 L234.606377,320.311888 L234.473356,318.920095 C234.348584,317.603729 234.936351,312.537684 235.335413,311.495131 C235.633421,310.71709 233.274106,310.872078 232.546101,311.67905 M19.9912701,320.993836 L17.162774,322.363931 L17.9062468,323.823919 C18.4620468,324.916069 23.441561,333.123207 23.8705273,333.654299 C24.0076727,333.824786 29.4873039,331.037067 29.7028182,330.687827 C30.1678753,329.933551 23.9612701,319.622708 23.0414675,319.622708 C22.9197896,319.622708 21.5462727,320.239561 19.9912701,320.993836 M327.362075,347.778884 C323.236369,352.088587 317.80314,357.719822 315.289151,360.291591 C312.775161,362.864394 310.717979,365.126188 310.717979,365.31734 C310.717979,365.508492 312.564803,368.432601 314.822031,371.814442 C317.07926,375.196283 318.858026,378.072862 318.775532,378.207185 C318.569299,378.54196 310.896371,384.364347 309.044392,385.590819 L307.54301,386.585843 L306.886156,385.772672 C306.524216,385.326306 304.531997,382.155249 302.457286,378.725879 C292.011545,361.457102 293.198421,362.581283 289.255231,366.22557 L286.523665,368.748777 L287.343444,370.103373 C287.794065,370.848349 290.502945,375.255178 293.363408,379.896556 C299.203948,389.37253 300.632117,391.844074 300.39701,392.066223 C300.307299,392.149917 296.021761,394.328017 290.872104,396.905986 L281.510122,401.592827 L280.970821,400.302292 C280.512982,399.207043 279.273517,395.879964 276.475956,388.23595 C275.86241,386.557945 276.155262,386.558979 271.798574,388.224584 C268.485429,389.491354 268.640104,389.032589 270.020839,393.50038 C272.036774,400.024347 272.85346,402.844097 273.085473,404.081936 L273.309236,405.278444 L266.492179,407.610499 C257.716932,410.612102 255.307091,411.304382 254.932777,410.929311 C254.643018,410.638967 250.849348,400.612268 247.597042,391.539264 C245.410964,385.442031 246.181247,385.945226 240.071571,386.617874 C233.398878,387.352518 233.737101,387.173765 232.191379,390.799454 C231.476779,392.474359 227.979055,400.532708 224.418429,408.705748 C217.120847,425.453765 217.170343,425.323575 218.315971,425.160321 C218.756281,425.097292 220.894925,424.873076 223.068629,424.661259 C268.881397,420.196568 309.354774,401.827375 337.012784,372.945855 C346.764548,362.763135 352.58034,355.669846 351.875021,354.815344 C350.247836,352.843895 335.857875,339.943717 335.285577,339.943717 C335.053564,339.943717 331.488813,343.469181 327.362075,347.778884 M78.3451143,352.965819 C83.9917948,358.863634 83.7391584,357.984335 80.9199429,361.932399 C78.1306312,365.8412 78.4863844,365.887696 74.2008468,361.058266 C63.9541221,349.512684 64.2748156,350.409549 69.078,346.731164 L70.6237221,345.548088 L72.0714831,346.73633 C72.8675455,347.39038 75.6908857,350.193599 78.3451143,352.965819 M96.9216208,348.254181 C96.9236831,350.780487 97.3732727,358.452399 98.1012779,368.358207 C98.7839117,377.635796 98.9767403,381.617957 98.7447273,381.617957 C98.6385169,381.617957 97.0309247,380.805819 95.1727584,379.812862 L91.7936182,378.006734 L90.4314442,379.338599 C89.6828156,380.072209 88.6000883,381.32658 88.0257273,382.127352 L86.9821844,383.58424 L90.662426,386.357494 C118.762808,407.529905 157.928662,422.594751 188.20481,423.877019 L193.043055,424.082637 L194.316548,414.81848 C195.016712,409.723504 195.683878,404.523135 195.798338,403.261532 L196.006634,400.966675 L194.154655,400.750724 C193.136891,400.6319 191.377717,400.656698 190.245494,400.80652 L188.188312,401.079299 L187.467525,407.106271 C186.743644,413.151841 186.3518,415.715344 186.14866,415.715344 C185.914584,415.715344 172.320686,413.29753 171.580306,413.124976 C170.662566,412.910059 170.61307,413.42462 172.399055,404.559299 C174.010771,396.558812 174.187101,397.262458 170.495517,396.98348 C165.241712,396.585677 165.733579,395.947126 163.409325,406.178409 C162.102834,411.925368 162.087366,411.966698 161.241808,411.753848 C160.773657,411.636057 157.285213,410.318658 153.489481,408.826639 C145.358714,405.630784 145.862956,406.778729 149.180226,399.011758 C152.542868,391.140428 152.582052,391.914335 148.758478,390.773622 C146.998273,390.247696 145.314374,389.7538 145.017397,389.675273 C144.61421,389.568848 143.619132,391.217922 141.098956,396.166176 C139.24079,399.814596 137.575452,402.98772 137.398091,403.216069 C137.099052,403.602506 115.138249,392.985819 115.138249,392.454727 C115.138249,392.067257 116.931452,388.76601 120.649847,382.307138 C129.337444,367.217494 128.902291,368.760143 125.030252,366.780428 C122.122356,365.294608 122.23166,365.227447 118.40293,370.83595 C112.396371,379.634109 108.25726,385.4069 107.954096,385.4069 C107.568439,385.4069 107.140504,381.724382 105.688618,365.888729 C105.024545,358.65905 104.395532,352.515321 104.288291,352.237375 C104.136709,351.840606 99.9058234,348.26658 97.350587,346.376758 C97.0185506,346.130843 96.9205896,346.557577 96.9216208,348.254181 M338.65853,353.22 C341.123023,355.604751 341.29626,355.863064 340.860075,356.48715 C340.076387,357.609264 324.905831,373.00785 324.589262,373.003718 C324.31394,372.999584 321.968031,369.53715 320.362501,366.765962 L319.639652,365.518824 L327.585839,358.070095 C331.955932,353.973242 335.633081,350.623432 335.757852,350.625498 C335.881592,350.628599 337.187052,351.796176 338.65853,353.22 M204.627205,389.441758 L203.543447,389.579181 L203.328964,393.434252 C203.120668,397.177732 202.45247,419.396829 202.448345,422.68981 L202.446283,424.326485 L206.021345,424.326485 L209.597439,424.326485 L209.816047,420.451781 C210.188299,413.886485 210.691509,398.565392 210.693571,393.758694 L210.695634,389.195843 L208.20433,389.250606 C206.833906,389.28057 205.224252,389.367363 204.627205,389.441758 M242.835104,403.590107 C244.105504,407.323254 245.223291,410.939644 245.318158,411.626758 L245.491395,412.875962 L243.303255,413.245867 C237.668948,414.197494 230.575538,415.085059 230.357961,414.864976 C230.22494,414.730653 232.273873,410.357922 234.90954,405.148254 C238.947597,397.171532 239.768408,395.765273 240.114881,396.239537 C240.340706,396.54848 241.564704,399.85696 242.835104,403.590107 M276.690439,420.99734 C272.142984,422.765238 272.05121,422.822067 272.092457,423.824323 C272.137829,424.95367 274.559013,430.52601 275.003447,430.52601 C275.964496,430.52601 285.970958,426.459121 285.970958,426.068551 C285.970958,425.465131 282.217504,419.320368 281.813286,419.262506 C281.548275,419.224276 279.242582,420.005416 276.690439,420.99734 M266.207577,424.840012 C257.531322,427.203064 257.830361,426.881722 259.881356,431.655356 C261.221875,434.775784 260.382504,434.663159 267.633683,432.695843 C273.493816,431.106698 273.231899,431.313349 272.205886,429.08462 C269.838322,423.942114 269.745517,423.875986 266.207577,424.840012" id="Shape"></path>
                </g>
            </g>
        </g>
    </g>
</svg>