<?xml version="1.0" encoding="UTF-8"?>
<svg version="1.1" viewBox="0 0 400 433.33" xmlns="http://www.w3.org/2000/svg">
  <path d="m210.67 8.068c-0.221 0.604-3.142 9.274-6.49 19.265-3.348 9.992-6.419 18.935-6.823 19.873l-0.737 1.706-2.727 0.221c-1.501 0.122-11.329 0.205-21.84 0.184-10.512-0.021-19.204 0.055-19.317 0.168-0.44 0.439 3.3 3.519 17.429 14.355 16.128 12.369 16.5 12.675 16.5 13.577 0 0.715-1.34 5.275-5.998 20.416-1.805 5.867-4.139 13.517-5.185 17-1.047 3.484-1.985 6.547-2.085 6.808-0.407 1.063 3.176-1.494 24.934-17.798 5.409-4.053 10.329-7.716 10.935-8.141l1.101-0.773 1.899 1.251c1.044 0.688 5.724 3.979 10.399 7.312 13.027 9.289 26.383 18.569 26.523 18.429 0.069-0.069-1.604-6.342-3.719-13.94-10.006-35.957-9.247-31.285-5.549-34.136 1.418-1.093 8.203-6.313 15.078-11.6 12.433-9.56 16.148-12.541 15.919-12.771-0.178-0.178-21.087-1.069-31.252-1.332-4.859-0.125-9.866-0.321-11.128-0.435l-2.294-0.207-1.659-4.5c-0.912-2.475-3.652-10.125-6.088-17-7.468-21.076-7.035-20.084-7.826-17.932m-89.261 19.969c-9.708 1.617-16.467 8.328-19.184 19.045l-0.727 2.869-3.333-2.196c-9.805-6.459-16.44-8.719-22.91-7.804-6.94 0.981-10.59 4.638-10.59 10.608 0 2.9 0.028 2.909 2.471 0.771 3.863-3.38 5.308-3.533 5.462-0.58 0.055 1.054 0.156 1.917 0.225 1.917 0.068 0 1.261-0.455 2.65-1.012 5.4-2.162 6.613-2.095 7.032 0.389 0.185 1.093 0.339 1.248 1.433 1.45 2.317 0.428 7.896 2.833 10.393 4.481 4.86 3.207 4.823 3.416-0.392 2.227-13.955-3.182-24.13-1.453-33.526 5.698-7.514 5.718-10.349 13.945-8.45 24.524 0.552 3.072 0.533 3.081 1.858-0.843 1.867-5.527 3.395-7.101 4.452-4.584 0.77 1.834 0.852 1.749 1.705-1.747 0.905-3.707 2.589-7.489 4.226-9.486 1.377-1.681 1.89-1.521 3.17 0.986 0.762 1.494 0.829 1.507 1.737 0.333 2.213-2.859 4.762-5.083 5.827-5.083 0.169 0 0.384 0.682 0.478 1.516 0.227 2.016 0.322 2.063 2.164 1.074 3.179-1.708 9.418-3.475 9.418-2.668 0 0.163-0.375 1.219-0.833 2.347-0.459 1.128-0.834 2.204-0.834 2.391 0 0.215 1.7 0.34 4.614 0.34 5.582 0 8.451 0.632 12.928 2.849 4.854 2.403 4.88 2.619 0.375 3.117-27.266 3.009-41.437 18.022-41.227 43.675 0.039 4.678 0.36 4.624 1.797-0.305 1.261-4.324 3.217-9.003 3.765-9.003 0.152 0 0.672 0.788 1.154 1.75l0.878 1.75 0.598-1.5c2.092-5.247 5.916-12 6.795-12 0.157 0 0.792 0.901 1.412 2.001l1.127 2 0.656-0.75c0.361-0.413 1.736-2.194 3.057-3.959 2.627-3.508 7.374-7.958 8.491-7.958 0.149 0 0.563 0.681 0.92 1.514 0.752 1.755 0.809 1.745 3.573-0.629 3.144-2.7 7.746-5.035 11.865-6.02 1.446-0.345 0.886 0.179-2.838 2.658-13.857 9.226-17.844 24.543-7.903 30.362 3.174 1.858 3.418 1.837 3.184-0.266-0.109-0.982-0.298-2.815-0.419-4.073l-0.22-2.286 1.376 0.232c0.756 0.128 1.373 0.182 1.37 0.12s-0.284-1.65-0.625-3.529c-0.711-3.924-0.791-3.838 1.94-2.073l2.079 1.344-0.223-3.261c-0.275-4.033 0.606-10.093 1.468-10.093 0.137 0 0.631 0.931 1.098 2.068 1.117 2.723 1.227 2.712 2.944-0.288 2.273-3.973 5.231-6.446 7.713-6.447 1.175 0 5.744 6.788 6.332 9.41 0.178 0.791 1.039 2.408 1.937 3.64 1.997 2.737 2.195 3.118 2.494 4.783 0.156 0.87 0.934 2.255 2.235 3.98 1.964 2.605 1.985 2.656 1.311 3.167-0.673 0.511-0.64 0.583 1.868 4.141l2.552 3.621-0.791 0.596-0.791 0.597 2.385 3.949c2.989 4.948 2.973 4.906 1.926 5.383-1.255 0.571-1.386 0.339 3.57 6.325 2.35 2.838 2.351 2.872 0.084 2.589-2.294-0.287-2.292-0.173 0.068 2.868 4.999 6.443 5.502 7.412 4.098 7.901-1.356 0.473-1.286 0.794 0.869 4.014 1.577 2.355 2.798 4.603 2.798 5.152 0 0.075-0.45 0.323-1 0.551-1.233 0.511-1.324 0.032 0.811 4.288l1.81 3.61-4.881 0.222c-5.616 0.255-12.98 1.605-18.046 3.307l-3.194 1.073-0.402 5c-0.221 2.75-1.314 16.625-2.428 30.833-1.115 14.208-2.468 31.042-3.008 37.407-0.54 6.366-0.872 11.869-0.738 12.229 0.261 0.703 6.049 7.58 9.106 10.818l1.864 1.974 5.303-2.65c8.218-4.107 16.826-6.705 24.421-7.371l3.051-0.268 1.037 2.181c0.571 1.199 1.401 2.985 1.846 3.97l0.808 1.789-1.097-0.189c-0.603-0.104-1.812-0.29-2.686-0.412l-1.59-0.222 0.336 0.885c0.185 0.486 1.158 2.28 2.161 3.985 3.065 5.207 3.074 5.464 0.123 3.671-2.642-1.605-2.641-1.651-0.092 4.587 1.225 2.997 2.309 5.657 2.409 5.911 0.177 0.449-2.578 0.341-4.341-0.171-0.858-0.249-0.748 0.288 0.925 4.529 1.53 3.877 2.567 7.014 2.32 7.014-0.075 0-0.977-0.315-2.005-0.7-2.373-0.887-2.31-1.063-1.149 3.218 1.553 5.729 2.022 5.669-7.398 0.955-38.033-19.031-61.636-49.947-69.073-90.473-6.466-35.235 1.661-66.303 25.707-98.266 2.11-2.805 3.768-5.167 3.685-5.251-0.583-0.582-14.349 12.373-20.029 18.85-28.203 32.16-37.942 69.691-30.59 117.88 1.322 8.667 6.918 24.064 14.034 38.618 22.418 45.848 64.979 75.477 114.18 79.487 2.189 0.179 6.155 0.499 8.813 0.711 29.216 2.337 67.542-9.74 92.5-29.147 27.479-21.367 46.487-56.871 49.639-92.718 3.679-41.844-6.358-77.789-29.973-107.34-5.633-7.05-17.375-19.158-18.579-19.158-0.37 0-0.445-0.119 3.681 5.834 27.56 39.755 33.292 80.784 16.889 120.89-11.765 28.764-43 58.898-67.844 65.451-2.404 0.635-2.405 1.443 8e-3 -6.958 0.755-2.626 0.878-2.571-2.404-1.088l-1.917 0.866v-0.759c0-1.21 0.926-4.479 2.219-7.831 1.404-3.64 1.425-3.587-1.147-2.92-1.101 0.285-2.073 0.518-2.16 0.518-0.696 0 0.696-4.037 2.837-8.23 2-3.918 1.997-3.93-0.804-3.5-2.637 0.404-2.563 0.711-0.738-3.063 1.733-3.585 1.729-3.738-0.092-3.233-2.524 0.701-3.057 0.17-1.96-1.951 2.815-5.444 11.831-3.524 28.559 6.082 2.134 1.226 4.018 2.229 4.186 2.229 0.447 0 8.383-9.404 9.902-11.734 0.631-0.969 0.607-3.062-0.508-42.933-0.197-7.058-0.531-19.609-0.743-27.889-0.211-8.281-0.459-15.115-0.551-15.188-0.395-0.31-7.507-2.338-11.333-3.23-3.646-0.851-6.307-1.342-11.908-2.2l-1.409-0.215 0.802-1.556c0.44-0.855 1.934-2.83 3.319-4.389 3.023-3.401 2.982-3.11 0.522-3.692l-2.006-0.474 1.229-1.82c0.676-1.001 2.104-2.719 3.173-3.819 2.304-2.369 2.248-2.189 0.694-2.218-3.209-0.06-2.422-2.038 2.963-7.442 3.848-3.862 3.627-3.425 1.871-3.69-3.735-0.564-3.723-0.192-0.125-3.803 3.751-3.765 3.669-3.561 1.541-3.844-0.916-0.121-1.666-0.357-1.666-0.523 0-0.49 3.43-4.053 5.461-5.673 2.31-1.844 2.312-1.817-0.128-2.335-1.1-0.233-2-0.495-2-0.581 0-0.666 2.545-3.073 4.922-4.654l2.875-1.913-1.447-0.419c-1.882-0.545-1.878-0.539-1.052-1.875 0.917-1.484 3.237-3.611 5.371-4.925 1.925-1.184 1.976-1.662 0.222-2.076-0.673-0.16-1.224-0.431-1.224-0.603 0-0.479 2.694-2.983 4.614-4.287 2.007-1.363 2.039-1.454 0.719-2-1.497-0.62-1.255-1.11 1.667-3.374 2.954-2.291 2.98-2.331 1.916-3.056-0.701-0.477-0.713-0.548-0.195-1.083 1.664-1.718 4.7 0.944 7.676 6.731 2.052 3.991 2.318 4.108 3.461 1.532 0.637-1.437 0.921-1.791 1.133-1.415 0.446 0.789 1.009 5.453 1.009 8.362v2.65l1.25-0.631c3.299-1.665 3.36-1.474 1.552 4.867-0.205 0.72-0.131 0.75 1.863 0.75h2.076l-0.212 1.129c-0.117 0.621-0.592 2.063-1.055 3.204-0.972 2.391-0.952 2.454 0.665 2.15 9.046-1.697 8.117-16.758-1.673-27.137-1.163-1.232-3.693-3.563-5.624-5.179-4.069-3.408-3.9-3.183-2.092-2.781 4.005 0.891 7.897 3.552 12.635 8.637l3.448 3.702 0.265-1.279c0.145-0.704 0.374-1.721 0.507-2.26l0.242-0.982 2.513 2.482c2.747 2.712 4.697 5.716 6.506 10.023 1.738 4.137 1.866 4.18 2.979 0.983 1.122-3.225 1.083-3.215 2.791-0.659 1.496 2.241 2.345 4.66 3.215 9.16 0.763 3.945 0.879 3.989 2.43 0.932l1.331-2.625 0.555 1.307c0.97 2.28 1.818 6.166 2.177 9.974 0.401 4.251 0.469 4.414 1.156 2.77 3.326-7.961 1.732-19.679-4.044-29.718-7.062-12.275-17.407-19.597-30.627-21.679-5.424-0.853-5.417-0.845-2.138-2.5 4.273-2.157 10.187-2.541 15.554-1.009 1.327 0.379 2.565 0.688 2.75 0.688 0.516 0 0.384-1.636-0.288-3.583-0.333-0.963-0.559-1.75-0.502-1.75 0.823 0 4.351 1.783 6.311 3.189 3.08 2.21 2.817 2.243 2.817-0.356 0-1.329 0.139-2.166 0.36-2.166 0.812 0 4.193 3.893 4.987 5.744 0.756 1.763 0.904 1.911 1.903 1.917l1.083 5e-3v-2c0-2.124 0.035-2.183 0.993-1.67 1.011 0.541 3.283 10.133 3.337 14.087 8e-3 0.564 0.836 0.174 2.387-1.126 0.904-0.756 1.707-1.311 1.785-1.233 0.166 0.166 2.316 7.613 2.653 9.192 0.312 1.459 0.686 1.364 1.317-0.333 7.898-21.256-12.966-41.119-38.77-36.909-4.736 0.773-4.843 0.753-3.134-0.583 4.333-3.384 10.129-4.624 15.054-3.219 0.662 0.189 0.759 0.124 0.608-0.407-0.682-2.397-0.649-2.799 0.231-2.799 1.25 0 4.119 1.156 6.628 2.669 2.742 1.653 2.578 1.685 2.578-0.502 0-1.008 0.145-1.833 0.322-1.833 0.609 0 2.705 2.094 3.566 3.563 0.763 1.302 0.984 1.461 1.904 1.371l1.041-0.101-0.108-1.833c-0.233-3.941-2.6-8.777-5.306-10.844-6.073-4.637-19.767-3.705-26.153 1.78-0.605 0.52-1.465 1.193-1.913 1.496l-0.813 0.552-0.769-2.664c-4.21-14.582-16.986-23.9-29.854-21.773-1.751 0.289-1.588 0.584 1.166 2.096 4.341 2.384 5.939 3.907 5.991 5.708 0.025 0.878 0.259 1.139 1.656 1.847 3.919 1.986 5.796 4.633 4.223 5.957l-1.048 0.882 0.797 0.532c2.973 1.983 6.087 6.699 6.511 9.862l0.215 1.597-2.464-1.706c-10.89-7.543-20.345-8.717-30.548-3.795-5.965 2.878-10.155 9.253-9.683 14.731l0.1 1.17 2.533-2.155c2.66-2.264 4.435-3.607 4.769-3.607 0.109 0 0.198 1.069 0.198 2.376v2.376l2.452-2.329c2.144-2.036 5.421-4.089 6.528-4.089 0.438 0 0.448-0.221-0.142 2.864-0.593 3.099-0.602 3.083 1.179 1.959 2.894-1.828 7.215-2.818 6.863-1.573-0.091 0.32-0.265 1.37-0.387 2.333l-0.222 1.75 3.281 7e-3c5.893 0.013 8.77 2.602 9.718 8.743 0.353 2.285 0.353 2.285-2.068 0.551-16.177-11.584-36.209-8.863-41.962 5.699-1.485 3.758-1.959 9.369-0.62 7.336 0.989-1.502 2.814-3.371 3.776-3.868 1.007-0.521 1.002-0.525 1.64 1.435 0.076 0.233 1.115-0.459 2.464-1.642 1.284-1.125 3.231-2.626 4.327-3.336l1.994-1.291 0.506 1.493c0.681 2.007 0.649 1.995 2.747 1.067 4.596-2.033 9.48-1.568 14.343 1.365 2.444 1.474 2.455 1.466-1 0.744-14.057-2.939-26.375 5.867-27.608 19.735-0.374 4.202-0.11 4.176 3.836-0.378 4.089-4.719 3.903-4.653 4.199-1.493 0.129 1.375 0.36 2.5 0.513 2.5 1.007 0 2.348-1.212 4.397-3.974l2.35-3.168 0.446 1.528c0.896 3.073 1.836 2.996 4.612-0.38 2.629-3.197 7.905-6.718 8.77-5.853 0.636 0.636-2.206 4.513-3.309 4.513-1.206 0-1.248 0.043-1.87 1.917-0.622 1.875-0.669 1.923-2.169 2.218-1.781 0.35-1.906 0.607-1.912 3.949l-5e-3 2.25h-1.811-1.81l-0.51 2.416c-0.28 1.329-0.675 3.277-0.878 4.328-0.467 2.417-0.726 2.557-2.251 1.218l-1.24-1.089-0.572 3.647c-0.314 2.005-0.741 4.661-0.947 5.9l-0.376 2.254-1.322-0.742c-1.739-0.978-1.814-0.821-2.033 4.234-0.22 5.094-0.211 5.08-2.282 3.923-2.147-1.199-2.284-0.979-2.316 3.744-0.043 6.365-0.347 7.374-2.074 6.897l-1.152-0.318-0.394 4.377c-0.217 2.408-0.48 4.927-0.585 5.599l-0.19 1.222-1.265-0.447c-1.521-0.536-1.411-0.813-2.021 5.056l-0.422 4.053-0.796-0.303c-1.524-0.579-1.639-0.445-1.382 1.614 0.132 1.054 0.252 3.079 0.268 4.5l0.028 2.583h-6.983c-10.584 0-16.703 0.979-26.42 4.225l-4.617 1.543-4.074-1.708c-12.082-5.065-19.943-7.139-30.573-8.064-5.341-0.466-4.707-0.036-4.186-2.833 0.239-1.281 0.539-2.91 0.666-3.621l0.232-1.291-1.472 0.221-1.473 0.221-0.215-2.763c-0.118-1.52-0.216-3.851-0.217-5.18l-2e-3 -2.416h-1.5-1.5l-2e-3 -2.417c-1e-3 -1.329-0.096-3.633-0.212-5.121l-0.211-2.703-1.416 0.159-1.416 0.16-0.194-2.289c-0.107-1.259-0.288-3.61-0.403-5.225l-0.209-2.936-1.378 0.103-1.377 0.102-0.737-4.667c-0.406-2.566-0.746-4.782-0.758-4.923-0.011-0.141-0.614 0.046-1.34 0.417-1.899 0.968-1.828 1.063-2.669-3.576-1.157-6.386-1.195-6.461-2.659-5.378-1.221 0.902-1.542 0.678-1.808-1.265-0.119-0.868-0.535-3.288-0.925-5.378l-0.708-3.801-1.206 0.202c-0.663 0.111-1.525 0.29-1.915 0.397-0.736 0.203-0.856-0.151-1.959-5.761-0.187-0.953-0.361-1.089-1.63-1.279l-1.421-0.213-0.609-2.388c-1.416-5.546-1.397-5.506-2.763-5.736-2.118-0.357-2.351-0.483-3.441-1.86l-1.061-1.339 1.297 0.223c3.729 0.64 8.449 4.179 11.75 8.812l1.547 2.17 0.098-2.412c0.054-1.326 0.22-2.412 0.369-2.412 0.872 0 3.56 2.694 5.239 5.249 1.055 1.605 1.973 2.989 2.04 3.075 0.258 0.329 0.723-0.866 1.126-2.892 0.648-3.258 2.795-1.819 6.118 4.102 1.854 3.303 2.007 3.329 1.495 0.255-2.637-15.813-10.161-22.722-25.485-23.401l-5-0.221 1.063-0.759c3.811-2.717 9.698-2.55 17.687 0.504 0.305 0.117 0.417-0.385 0.417-1.876 0-2.399 0.197-2.481 2.933-1.207 2.246 1.046 5.514 4.142 6.838 6.479 0.563 0.994 1.058 1.669 1.101 1.5 0.042-0.169 0.179-1.208 0.304-2.308l0.228-2 1.402 1.547c0.771 0.85 1.951 2.575 2.621 3.833 1.545 2.896 1.701 1.788 0.387-2.747-5.168-17.832-28.198-24.737-44.863-13.449-2.102 1.423-2.285 1.395-2.285-0.356 0-5.386 4.565-8.112 12.256-7.319 1.585 0.164 2.935 0.245 3 0.18 0.105-0.105-0.744-3.311-1.19-4.492-0.273-0.722 2.359-0.252 5.439 0.972 3.008 1.195 2.884 1.228 2.461-0.655-0.588-2.618-0.419-2.805 1.666-1.836 2.534 1.179 4.856 2.964 6.091 4.684 1.416 1.972 1.611 1.87 1.611-0.842 0-3.464 0.592-3.43 4.416 0.255 2.429 2.34 2.573 2.271 1.619-0.775-4.997-15.949-21.08-21.225-39.001-12.796-1.906 0.896-3.511 1.63-3.566 1.63-1.051 0 2.625-6.412 5.279-9.206 1.992-2.097 2.231-2.487 2.058-3.353-0.219-1.092 0.633-1.935 4.778-4.729 2.266-1.527 2.317-1.609 1.594-2.565-0.269-0.356-0.494-0.804-0.5-0.995-0.014-0.448 3.514-2.46 6.421-3.662 1.246-0.515 2.342-1.061 2.437-1.213 0.224-0.363-10.522-0.285-12.791 0.093m90.103 10.109c0.228 1.516-0.163 3.361-0.708 3.345-1.266-0.039-1.404-4.824-0.139-4.824 0.485 0 0.675 0.333 0.847 1.479m3.153 6.741c0 2.908-1.071 3.949-2.953 2.869-0.977-0.561-1.029-0.556-1.798 0.166-1.481 1.391-2.586 0.357-2.578-2.413 9e-3 -3.472 0.912-4.233 1.495-1.261 0.424 2.158 0.55 2.263 1.505 1.247l0.785-0.835 0.938 0.899 0.939 0.899v-2.007c0-1.103 0.11-2.117 0.245-2.252 0.509-0.509 1.422 1.216 1.422 2.688m-10.351-0.637c0.955 3.439-1.12 6.969-2.351 4-0.766-1.848-0.585-3.538 0.478-4.452 1.242-1.068 1.466-1.014 1.873 0.452m14.988 2.967c0.842 0.59 2.531 3.979 3.666 7.356 2.458 7.314-2.637 11.829-7.893 6.994l-0.757-0.696-0.557 0.815c-4.334 6.345-7.56 4.417-8.677-5.186l-0.272-2.333-1.49 1.533c-0.82 0.844-2.191 2.288-3.047 3.208-2.851 3.068-3.916 2.979-4.166-0.347l-0.155-2.061 0.717 0.917c1.256 1.608 2.754 0.684 5.244-3.235 3.5-5.509 4.545-5.038 5.042 2.272 0.28 4.112 0.669 5.213 1.841 5.213 1.622 0 3.255-2.034 4.216-5.25 0.525-1.757 0.299-1.817 2.751 0.729 2.45 2.546 3.683 3.028 4.659 1.822 1.39-1.717-0.301-7.041-2.299-7.236-0.987-0.096-1.05-0.189-1.242-1.833-0.362-3.1 0.484-4.037 2.419-2.682m8.115 9.2c0.676 1.146 1.489 2.49 1.807 2.987 0.517 0.807 0.534 1.123 0.156 2.952-0.593 2.875-0.971 2.854 5.892 0.331 5.839-2.147 8.869-0.946 6.679 2.646-1.372 2.251-4.703 6-5.331 6-1.172 0-0.648-1.157 1.36-3 3.581-3.287 2.785-4.534-2.005-3.139-1.405 0.41-5.669 2.436-6.241 2.966-0.054 0.05 0.367 1.947 0.934 4.215 1.102 4.401 1.563 8.443 1.191 10.426-0.458 2.444-1.118 0.553-2.996-8.585-1.373-6.678-0.975-6.15-4.132-5.497-7.479 1.547-8.053 2.526-4.508 7.699l2.275 3.319 0.115 3.308c0.142 4.09-0.161 4.7-2.633 5.293-4.778 1.146-9.315-0.392-11.141-3.777l-1.008-1.869-1.333 0.203c-2.62 0.397-2.729 0.505-3.173 3.167-0.652 3.91-2.587 6.04-7.552 8.313-5.628 2.577-6.553 1.252-1.583-2.268 7.096-5.027 8.328-6.795 6.808-9.774-1.598-3.131-0.432-4.698 2.857-3.841 2.963 0.772 3.143 0.726 3.143-0.798 0-3.634 2.145-3.529 2.488 0.122 0.426 4.552 5.638 7.717 10.129 6.151 1.736-0.605 0.689-3.137-3.077-7.443-4.504-5.149-3.497-7.539 4.019-9.54 6.546-1.743 6.108-1.541 6.108-2.819 0-0.632-0.375-2.146-0.834-3.364-0.879-2.335-1.047-4.195-0.508-5.613 0.471-1.24 0.728-1.089 2.094 1.229m-21.752 10.587c0 1.132-1.524 2.279-5.788 4.357l-2.288 1.115 0.193 1.634c0.305 2.571-1.419 4.557-3.957 4.557-0.777 0-0.576-0.93 0.256-1.184 1.903-0.58 2.549-2.259 1.084-2.816-0.967-0.368-1.006-0.61-0.349-2.181 0.415-0.995 0.927-1.367 3.583-2.611 1.705-0.798 3.774-1.988 4.599-2.646 1.906-1.518 2.667-1.583 2.667-0.225m21.066 6.596c0.422 0.937 0.573 1.766 0.434 2.396-0.116 0.53 0.117 2.81 0.519 5.067 0.809 4.547 0.996 10.846 0.367 12.374-0.807 1.963-1.089 0.762-2.242-9.569-0.289-2.593-0.873-5.747-1.326-7.166-0.811-2.54-0.989-4.199-0.603-5.639l0.206-0.77 0.999 0.937c0.55 0.515 1.29 1.582 1.646 2.37m-17.714 17.368c2.056 2.056-0.873 5.198-3.276 3.515-1.267-0.887-1.424-1.546-0.736-3.083 0.814-1.817 2.451-1.993 4.012-0.432m-80.538 3.847c11.42 17.368 21.159 37.413 27.69 56.993 3.341 10.015 6.919 23.546 6.371 24.094-0.296 0.296-5.209 0.595-5.209 0.317 0-0.76-4.449-15.936-6.527-22.262-6.461-19.672-15.604-38.851-26.569-55.735-2.709-4.17-2.728-4.599-0.289-6.459 1.772-1.352 1.53-1.515 4.533 3.052m162.6 5.551c3.047 1.226 3.25 0.314-1.734 7.801-15.072 22.643-26.636 46.637-31.829 66.041-0.484 1.811-1.11 4.005-1.39 4.875l-0.51 1.584h-2.45-2.45l0.845-3.084c3.33-12.157 9.549-28.113 16.919-43.411 5.199-10.791 18.839-34.834 19.766-34.84 0.141-1e-3 1.416 0.464 2.833 1.034m-162.74 1.134c0 1.315 0.948 2.5 2 2.5 1.064 0 0.515-2.701-0.679-3.34-1.034-0.554-1.321-0.372-1.321 0.84m4.334 7.415c0 0.885 1.387 2.888 2.095 3.024 0.702 0.135 0.815-1.827 0.155-2.69-0.686-0.898-2.25-1.13-2.25-0.334m150.37 0.946c-0.712 0.905-0.974 2.806-0.387 2.806 0.811 0 2.05-0.854 2.22-1.531 0.492-1.96-0.663-2.763-1.833-1.275m-3.905 6.394c-1.049 0.701-1.567 3.412-0.652 3.412 0.812 0 2.124-1.44 2.354-2.584 0.223-1.109-0.647-1.532-1.702-0.828m-141.8 1.208c0 1.281 0.788 2.368 1.967 2.713 0.765 0.224 0.791 0.18 0.596-1.019-0.384-2.369-2.563-3.809-2.563-1.694m137.68 7.12c-1.594 1.471-1.721 2.75-0.273 2.75 1.286 0 1.923-0.888 1.923-2.682 0-1.224-0.38-1.24-1.65-0.068m-132.68 2.776c0 1.299 1.875 3.376 2.358 2.613 0.494-0.781 0.349-1.831-0.382-2.76-0.982-1.249-1.976-1.175-1.976 0.147m128.49 5.625c-1.628 0.66-2.437 3.501-0.898 3.152 1.209-0.274 2.076-1.321 2.076-2.506 0-1.022-0.106-1.081-1.178-0.646m-246.97 4.125c-5.458 9.76-11.586 26.275-14.639 39.453l-0.478 2.062 2.382 0.86c4.148 1.498 17.327 5.529 18.725 5.729l1.343 0.191 0.392-2.285c1.09-6.351 0.652-5.906 5.005-5.073 2.108 0.403 2.078 0.104 0.601 5.917-1.464 5.765-0.816 5.363-7.851 4.866-6.877-0.486-6.088-0.931-7.113 4.004-2.371 11.41-4.017 30.206-2.682 30.623 1.725 0.539 33.128 1.812 33.131 1.343 1e-3 -0.164 0.524-5.399 1.163-11.632 0.638-6.234 1.259-13.144 1.379-15.356l0.217-4.021-4.13-0.895c-2.272-0.491-4.933-1.059-5.912-1.262l-1.78-0.368 0.222-2.216c0.92-9.155 1.008-9.229 8.022-6.759 2.576 0.907 5.201 1.701 5.833 1.763l1.15 0.114 1.138-3.418c0.626-1.88 1.065-3.49 0.976-3.58-0.089-0.089-3.301-1.044-7.138-2.123s-10.932-3.103-15.767-4.498c-11.682-3.37-10.209-3.571-11.776 1.612-0.72 2.38-1.376 4.394-1.458 4.476-0.275 0.275-7.55-2.796-7.733-3.264-0.663-1.694 9.89-27.996 11.477-28.605 0.22-0.084 3.448 1.206 7.171 2.868l6.77 3.021 0.796-1.565c0.865-1.703 2.114-5.132 1.934-5.312-0.52-0.521-19.255-8.779-19.915-8.779-0.152 0-0.806 0.949-1.455 2.109m122.15-1.464c0 1.754 0.937 3.008 2.256 3.017 0.785 5e-3 0.797-0.174 0.168-2.495-0.347-1.28-2.424-1.727-2.424-0.522m119.48 7.173c-1.554 1.555-0.93 3.543 0.773 2.464 0.911-0.577 1.075-0.879 1.075-1.981 0-1.557-0.614-1.717-1.848-0.483m-115.15 3.865c0 1.081 0.873 2.485 1.809 2.912 0.99 0.451 1.247-1.043 0.471-2.746-0.506-1.11-2.28-1.239-2.28-0.166m111.78 4.981c-1.436 0.58-2.212 3.336-0.939 3.336 0.99 0 2.155-1.466 2.155-2.712 0-1.02-0.102-1.073-1.216-0.624m102.55 5.179c-2.292 0.621-6.642 1.859-9.667 2.752l-5.5 1.624 0.105 0.948c0.058 0.521 1.277 4.109 2.709 7.974 1.433 3.864 3.618 9.77 4.855 13.125 1.238 3.355 2.506 6.416 2.818 6.801l0.568 0.702 3.056-0.755c1.681-0.416 3.055-0.851 3.054-0.968-6e-3 -0.718-1.152-3.982-4.366-12.44-4.461-11.744-4.44-10.571-0.225-12.222l3.407-1.334 0.459 1.058c3.468 8.011 8.911 24.594 10.538 32.111l0.228 1.052-5.77 1.375c-3.173 0.756-8.394 1.945-11.603 2.641l-5.833 1.265 0.046 3.062c0.054 3.621 0.342 4.154 2.083 3.866 1.332-0.22 26.079-5.049 27.312-5.329 1.901-0.432-0.875-16.716-4.814-28.241-2.509-7.338-8.34-20.308-9.091-20.22-0.112 0.013-2.078 0.532-4.369 1.153m-210.81 0.74c0.447 1.995 2.81 3.839 2.805 2.19-6e-3 -1.988-0.673-3.106-1.854-3.106-1.09 0-1.145 0.053-0.951 0.916m104.91 3.753c-0.879 0.354-1.439 1.317-1.439 2.475 0 1.556 2.02 0.901 2.632-0.854 0.676-1.938 0.428-2.275-1.193-1.621m-101.44 8.488c0 1.558 0.335 1.996 1.804 2.365 0.961 0.241 0.965 0.236 0.762-1.015-0.418-2.576-2.566-3.706-2.566-1.35m225.58 1.739c-0.794 0.208-0.785 0.263 1.029 5.937l1.598 5 1.478 0.109c1.709 0.126 4.627-0.186 5.231-0.559 0.312-0.193 3e-3 -1.537-1.264-5.486l-1.678-5.231-2.905 0.039c-1.599 0.021-3.168 0.107-3.489 0.191m-128.66 2.52c-1.134 0.879-1.33 2.917-0.282 2.917 1.116 0 1.944-0.843 2.229-2.272 0.236-1.178-0.812-1.525-1.947-0.645m-86.87 5.745c12.301 1.178 22.851 3.681 36.863 8.747l5.083 1.837 4.917-1.366c22.482-6.247 46.753-6.166 65.402 0.219 2.415 0.826 2.241-0.665 2.657 22.735 0.198 11.092 0.516 28.042 0.708 37.667s0.304 18.649 0.249 20.053l-0.099 2.554-4.637-1.827c-23.659-9.321-45.715-8.692-67.03 1.91-6.388 3.177-5.172 3.16-10 0.138-22.296-13.957-44.939-16.557-71.266-8.185-2.347 0.746-4.356 1.357-4.467 1.357-0.395 0 2.416-55.88 3.916-77.834 0.435-6.369-0.308-5.571 6.15-6.614 4.595-0.742 7.504-1.11 13.167-1.665 3.262-0.319 13.837-0.162 18.387 0.274m78.28 7.007c-0.969 0.338-9.278 4.375-9.6 4.664-0.253 0.227 0.403 1.908 0.805 2.062 0.529 0.203 8.674-3.397 9.568-4.228 0.417-0.389 0.573-0.929 0.5-1.735l-0.107-1.17-1.166 0.407m-89.834 2.291c-1.466 0.613-4.466 1.943-6.666 2.956-11.748 5.405-10.86 4.808-9.956 6.703 0.503 1.055 0.503 1.261 0 2.737-0.844 2.475-0.759 2.646 0.872 1.748l1.417-0.78 0.098-2.206 0.097-2.205 2.069-0.747c4.013-1.447 14.29-6.144 14.555-6.652 0.441-0.843 0.755-2.68 0.457-2.674-0.152 3e-3 -1.476 0.507-2.943 1.12m34 1.249c-4.64 1.873-12.4 5.431-12.893 5.912-1.139 1.111-1.188 3.177-0.069 2.922 2.19-0.499 14.866-7.03 15.167-7.814 0.721-1.882 0.354-2.052-2.205-1.02m-22.277 0.181c-0.738 0.737 0.571 11.685 2.181 18.252 1.956 7.972 7.917 9.836 17.369 5.43 2.642-1.232 3.013-1.324 3.667-0.912 6.539 4.115 9.636 2.595 8.653-4.249-1.083-7.533-3.619-8.14-9.956-2.382-10.964 9.962-15.278 8.703-17.802-5.195-1.518-8.357-2.933-12.123-4.112-10.944m97.938 0.601c-4.035 0.878-8.161 3.422-8.161 5.031 0 1.374 0.899 1.344 3.87-0.129 1.735-0.861 3.852-1.59 5.623-1.938l2.841-0.559v-1.447c0-1.682-0.414-1.777-4.173-0.958m-21.578 0.419c-1.262 1.394-1.535 4.183-0.491 5.016 0.638 0.508 5.611-0.775 6.325-1.633 0.605-0.726 0.78-2.8 0.299-3.558-0.218-0.343-0.367-0.321-0.723 0.108-1.458 1.757-3.874 2.127-4.052 0.62-0.132-1.123-0.651-1.335-1.358-0.553m-82.705 1.783c-0.442 2.213-0.163 4.964 0.96 9.442 1.404 5.597 1.412 5.787 0.262 6.224-1.526 0.581-7.482 1.094-9.775 0.843l-2.176-0.238-0.758-1.955c-2.594-6.691-6.375-6.663-8.214 0.061-0.723 2.645-2.915 5.689-6.032 8.38-3.295 2.843-3.282 2.786-0.566 2.537 2.454-0.225 3.096-0.488 5.298-2.169l1.459-1.114 1.885 0.648c2.609 0.898 3.249 0.825 4.767-0.547l1.323-1.195 4.281 0.409c11.239 1.073 14.245-2.63 11.614-14.309-1.301-5.774-3.774-9.784-4.328-7.017m64.502 1.367c-3.775 2.007-4.524 2.537-4.916 3.477-0.919 2.198-1.254 2.252 5.679-0.928 5.881-2.697 5.247-2.21 4.833-3.71-0.441-1.597-0.389-1.608-5.596 1.161m-192.77 1.996c1.589 0.301 1.76 0.414 1.601 1.058-0.707 2.851-1.599 9.123-1.933 13.585l-0.396 5.302h-2.494-2.495l0.215-5.584c0.208-5.389 0.988-13.413 1.411-14.518 0.216-0.562 0.311-0.559 4.091 0.157m12.734 0.614c0.974 0.184 1.812 0.377 1.862 0.427 0.051 0.051-0.271 2.112-0.714 4.581s-1.02 6.862-1.283 9.761c-0.558 6.171-0.182 5.497-2.961 5.305l-2.25-0.154 6e-3 -2.545c5e-3 -2.826 0.437-8.668 1.044-14.128l0.399-3.583h1.063c0.585 0 1.861 0.151 2.834 0.336m201.24 1.236c-1.107 0.168-1.096-0.144-0.243 6.738 0.775 6.257 1.03 5.55-2.674 7.424-4.912 2.485-8.452 1.593-11.958-3.012-3.923-5.153-5.796-4.398-7.396 2.979-0.906 4.175-3.409 7.276-6.784 8.4-0.173 0.058-0.218 0.359-0.099 0.669 0.646 1.683 5.354-0.031 7.005-2.55 0.458-0.699 0.638-0.717 6.268-0.612 3.189 0.059 6.439 0.115 7.224 0.124 1.991 0.024 4.039-0.841 6.476-2.734l2.084-1.62 1.85 1.764c4.398 4.195 10.347 4.358 18.597 0.51 1.521-0.71 3.604-1.446 4.629-1.635 2.384-0.441 2.771-0.788 2.771-2.491 0-2.519-1.432-2.83-5.351-1.163-4.345 1.849-7.3 0.581-7.577-3.254-0.24-3.315 1.176-4.058 4.928-2.585l2.355 0.923 1.545-0.64c2.1-0.871 2.077-1.115-0.242-2.564-7.345-4.591-12.98-0.708-11.483 7.914 0.547 3.151 0.723 2.892-2.102 3.094-2.658 0.19-3.912-0.295-5.173-2.001-1.155-1.561-1.23-1.884-1.751-7.554-0.633-6.896-0.444-6.496-2.899-6.124m-101.11 9.63c1.069 0.411 0.696 2.798-0.437 2.798-1.049 0-1.369-0.473-1.369-2.027 0-1 0.573-1.244 1.806-0.771m50.194 0.465c1.61 1.61-0.368 3.643-2.057 2.115-0.935-0.847-0.2-2.782 1.057-2.782 0.183 0 0.633 0.3 1 0.667m33.464 3.194c0.557 1.451 0.246 2.185-0.881 2.077-1.603-0.155-1.891-2.605-0.305-2.605 0.59 0 1.065 0.211 1.186 0.528m139.62 3.055-3.75 0.106v2.739c-3e-3 10.091 0.742 26.76 1.213 27.125 0.274 0.212 1.875 0.631 3.559 0.93 10.531 1.869 10.562 1.877 10.562 2.638 0 2.687-2.515 20.004-3.673 25.29-1.574 7.188-2.66 10.258-3.621 10.236-2.077-0.049-5.869-1.454-5.978-2.215-0.085-0.598 3.565-19.836 4.142-21.83 0.178-0.618-2.584-1.651-5.638-2.109-1.929-0.29-1.655-0.944-3.849 9.2-0.935 4.322-2.216 10.097-2.846 12.833-0.631 2.736-1.245 5.649-1.365 6.474l-0.217 1.5 6.367 1.972c3.501 1.084 6.581 2.134 6.844 2.333 0.452 0.343-1.017 5.513-2.884 10.142-0.62 1.538-0.871 1.474-11.856-3.039-5.093-2.092-9.728-3.894-10.301-4.005l-1.041-0.202-4.202 8.278 0.928 2.761c0.922 2.747 10.289 27.75 12.241 32.677 1.257 3.173 1.14 3.179 3.357-0.167 15.194-22.928 26.196-52.207 29.967-79.75 1.597-11.669 0.839-41.335-1.119-43.75-0.332-0.409-6.232-0.468-16.84-0.167m11.75 7.142c0.2 0.185 0.38 3.792 0.45 9.004l0.117 8.695-3.45-0.224c-5.981-0.39-5.237 1.268-5.824-12.968l-0.217-5.269 4.295 0.226c2.363 0.125 4.446 0.366 4.629 0.536m-186.5 0.763c-3.201 1.209-13.886 6.274-14.25 6.755-0.229 0.303-0.416 0.992-0.416 1.529 0 1.442 1.073 1.114 8.252-2.523 6.712-3.4 7.581-3.987 7.886-5.332 0.233-1.028 0.165-1.047-1.472-0.429m-43.166 2.135c-4.344 1.915-15.239 7.005-15.454 7.22-0.083 0.083 0.125 0.763 0.463 1.511 0.595 1.321 0.595 1.412-3e-3 3.171-0.717 2.108-0.645 2.272 0.78 1.775 1.312-0.457 1.714-1.171 1.714-3.047 0-2.174 0.206-2.318 8.5-5.924 7.917-3.444 8.5-3.813 8.5-5.392 0-1.238-0.208-1.206-4.5 0.686m91.083-0.596c-1.952 1.137-1.747 2.958 0.333 2.968 1.33 6e-3 1.336 0.144 0.084 2.118-1.46 2.303-1.061 2.583 1.271 0.894 3.923-2.842 2.37-8.343-1.688-5.98m20.546 1.967c-0.825 0.333-2.129 1.896-2.129 2.551 0 0.318 0.458 0.455 1.522 0.455 1.713 0 1.762 0.305 0.43 2.626-0.805 1.401-0.649 1.576 0.767 0.86 4.283-2.166 3.731-8.238-0.59-6.492m-28.466 1.423c-2.364 1.341-2.502 1.485-2.602 2.696-0.126 1.529 0.045 1.515 3.855-0.319 2.516-1.211 2.843-1.708 2.072-3.149-0.458-0.856-0.452-0.858-3.325 0.772m-64.022 0.558c-1.447 1.446-1.296 2.025 0.525 2.025 1.782 0 1.774-0.039 0.478 2.257-1.23 2.181-1.118 2.388 0.74 1.363 3.691-2.038 3.984-6.62 0.423-6.62-0.873 0-1.453 0.261-2.166 0.975m47.339 2.404c-4.16 2.104-4.679 2.459-4.512 3.083 0.104 0.388 0.191 0.903 0.194 1.144 6e-3 0.63 0.878 0.312 5.588-2.041l4.083-2.04v-1.262c0-1.632 0.133-1.66-5.353 1.116m-59.247-0.938c-0.521 1.442-0.491 3.904 0.1 8.226 0.759 5.546 0.852 5.202-1.75 6.433-4.997 2.366-9.569 1.2-10.741-2.738-1.674-5.62-5.206-4.4-7.187 2.482-0.754 2.617-1.602 4.256-3.369 6.51-1.789 2.283-1.789 2.313 0 2.313 1.217 0 1.696-0.213 2.943-1.311l1.489-1.311 0.974 0.642c1.425 0.939 2.781 0.815 4.443-0.408l1.434-1.054 2.239 0.721c3.608 1.162 5.715 0.818 9.448-1.539l2.106-1.33 0.736 1.278c2.417 4.199 9.003 5.052 20.104 2.602l3.202-0.707 2.188 0.875c7.835 3.134 13.082-2.403 11.259-11.881-1.42-7.384-1.433-7.402-3.304-4.647l-1.31 1.93 0.801 2.388c0.44 1.314 0.896 3.508 1.011 4.875l0.21 2.487-1.296 0.36c-1.435 0.398-4.56 0.488-4.907 0.142-0.122-0.122 0.178-0.905 0.667-1.74 2.835-4.836 1.94-6.323-3.989-6.628-6.062-0.312-9.396 1.28-9.168 4.378l0.1 1.364 2.11 0.55c3.201 0.835 3.133 1.089-0.518 1.946-6.137 1.44-10.169 1.263-13.622-0.6-2.007-1.082-2.175-1.52-4.201-10.998-1.532-7.168-1.588-7.309-2.202-5.61m-140.07 1.354c0 3.21 3.318 29.112 3.776 29.481 0.529 0.425 10.263-1.009 15.212-2.241 2.115-0.526 4.28-1.058 4.812-1.181l0.966-0.225-0.229-10.397c-0.125-5.719-0.317-11.111-0.425-11.982l-0.198-1.583h-3.988-3.988l0.2 1.583c1.123 8.857 1.54 16.397 0.91 16.427-0.118 6e-3 -1.339 0.16-2.714 0.342s-3.032 0.244-3.683 0.138l-1.182-0.192-0.596-9.733c-0.328-5.352-0.715-9.857-0.862-10.009-0.731-0.764-8.011-1.152-8.011-0.428m208.84 0.857c-0.661 1.468-0.674 1.292 0.646 8.682 2.151 12.037 3.706 14.44 7.901 12.21l1.486-0.79 1.309 0.671c1.143 0.587 1.49 0.623 2.743 0.288 1.176-0.314 1.608-0.293 2.405 0.119 1.335 0.69 2.22 0.627 4.214-0.301 1.603-0.746 1.867-0.774 4.209-0.436 5.729 0.825 7.931-3.128 5.14-9.225-0.726-1.585-4.933-6.536-5.554-6.536-0.847 0-1.569 3.727-0.839 4.332 2.328 1.933 4.245 7.361 2.584 7.32-1.109-0.028-3.034-0.893-4.684-2.103-2.006-1.473-1.856-1.468-2.705-0.095-0.672 1.088-0.73 1.11-1.991 0.774-1.191-0.318-1.392-0.269-2.41 0.587l-1.11 0.934-1.213-1.407-1.212-1.408-1.594 1.217c-3.668 2.799-4.501 1.741-6.765-8.59-1.78-8.121-1.748-8.043-2.56-6.243m46.027-0.489c-0.928 1.417-0.981 2.806-0.247 6.525 0.378 1.913 1.224 6.553 1.881 10.309 1.13 6.467 1.587 8.076 1.98 6.976 0.974-2.729 1.077-6.576 0.307-11.518-0.449-2.886-0.473-3.723-0.132-4.756 0.434-1.315-1.016-5.567-2.607-7.646l-0.598-0.781-0.584 0.891m-28.104 0.142c-1.298 2.076 0.491 4.695 3.207 4.695 0.393 0 1.364-2.106 1.364-2.96 0-1.305-3.913-2.79-4.571-1.735m22.558 0.882c-0.837 1.354-0.765 2.478 0.393 6.147 2.844 9.012-0.17 16.533-7.149 17.843-1.578 0.296-1.57 0.721 0.019 1.058 10.444 2.215 14.054-6.825 9.111-22.818-1.173-3.792-1.322-3.932-2.374-2.23m-14 1.527c0.801 2.107 1.496 2.865 4.679 5.098 3.092 2.169 4.447 3.654 7.068 7.741 2.347 3.659 2.928 3.556 2.31-0.409-0.78-5.009-6.087-10.709-12.552-13.48-2.164-0.928-2.237-0.876-1.505 1.05m-29.294 5.391c-0.546 1.424-0.435 2.975 0.34 4.726 1.821 4.117 0.026 6.324-5.478 6.738-5.336 0.401-7.005-2.212-5.872-9.194 0.41-2.528 0.229-2.851-0.856-1.528-5.419 6.604-1.625 16.811 6.104 16.42 9.344-0.474 13.117-9.744 6.959-17.1l-0.837-1-0.36 0.938m-89.693 0.895c0 0.759 0.152 1 0.631 1 0.888 0 1.213-1.045 0.49-1.574-0.882-0.645-1.121-0.522-1.121 0.574m82.831-0.664c-0.112 0.182-0.289 1.346-0.393 2.587l-0.189 2.257 1.783 0.57c2.053 0.656 2.119 0.619 2.685-1.505 0.405-1.518 0.387-1.624-0.397-2.403-1.029-1.021-3.207-1.961-3.489-1.506m-73.688 4.188c1.367 1.367-0.127 3.377-1.832 2.465-0.639-0.343-0.836-1.436-0.442-2.461 0.26-0.678 1.597-0.68 2.274-4e-3m50.228 11.192-1.367 1.006-1.662-0.552c-1.947-0.647-2.211-0.535-3.02 1.271-0.75 1.676-0.518 2.186 1.479 3.245l1.505 0.799 0.948-0.909c1.132-1.085 1.684-1.124 3.412-0.242 1.796 0.916 1.802 0.913 3.143-1.294 1.46-2.404 1.47-2.217-0.154-3.045-2.669-1.362-2.799-1.371-4.284-0.279m75.129 3.234c-5.426 2.49-5.834 2.768-5.834 3.976 0 1.381 0.156 1.348 4.778-1.01 3.386-1.728 3.847-2.175 3.348-3.252-0.281-0.607-0.373-0.595-2.292 0.286m-246.68 9.214c2.523 16.821 16.177 47.737 29.373 66.503 9.553 13.585 30 35.594 32.765 35.267 1.007-0.119 14.047-14.632 14.047-15.634 0-1.319-18.13-22.294-19.273-22.298-0.424-1e-3 -3.424 1.671-6.666 3.716-3.242 2.044-6.195 3.9-6.561 4.124-0.612 0.373-0.902 0.088-3.535-3.468-4.736-6.396-8.732-12.177-8.766-12.684-0.02-0.295 2.377-1.717 6.301-3.738 7.165-3.689 6.751-3.099 4.926-7.035-1.514-3.265-1.082-3.292-9.08 0.565l-6.488 3.129-0.529-0.889c-1.469-2.465-7.368-15.092-7.427-15.899-0.065-0.882 0.297-1.132 7.098-4.902 16.656-9.23 15.063-7.634 13.295-13.323-1.382-4.45-0.577-3.995-13.974-7.909-6.502-1.899-14.235-4.169-17.185-5.043s-6.082-1.697-6.961-1.828l-1.598-0.24 0.238 1.586m153.35 3.998c5.029 0.366 4.697 0.156 5.465 3.455 2.294 9.853 1.739 21.013-1.814 36.496-1.778 7.747-1.344 7.277-5.651 6.11l-2.666-0.723 9e-3 -1.666c6e-3 -0.917 0.297-4.217 0.647-7.334 0.922-8.205 0.877-21.189-0.101-29.333-0.954-7.935-0.972-7.568 0.361-7.365 0.596 0.091 2.284 0.253 3.75 0.36m65.97 2.422c-2.202 9.506-2.661 20.204-1.49 34.71 0.391 4.837 0.667 8.832 0.615 8.878-0.518 0.46-9.033 3.185-9.243 2.959-1.635-1.758-3.659-20.611-3.048-28.386 0.506-6.431 2.266-15.636 3.315-17.334 0.118-0.191 2.09-0.57 4.382-0.842 5.694-0.676 5.629-0.676 5.469 0.015m-49.303 1.669c3.225 1.613 6.225 3.781 9.208 6.657 3.01 2.901 3.014 2.904 3.903 2.377 0.489-0.29 2.914-1.832 5.389-3.427 3.939-2.539 12.278-7.026 12.551-6.753 0.214 0.214 1.116 4.999 1.116 5.921 0 0.795-0.223 1.089-1.167 1.539-1.473 0.703-1.474 0.687 0.396 5.263 1.764 4.315 1.786 4.121-0.512 4.393-2.022 0.24-2.032-0.232 0.143 6.277l1.449 4.334-1.238 0.095c-2.524 0.193-2.598-0.206 1.174 6.335 2.507 4.347 2.547 3.991-0.479 4.273-2.766 0.257-2.728-0.138-0.501 5.188l1.348 3.224-2.39 0.442c-6.768 1.253-31.061 0.233-36.112-1.515l-1.101-0.382 2.005-4.137c2.026-4.179 2.093-4.661 0.651-4.69-1.324-0.027-1.384-0.492-0.395-3.059 1.606-4.172 1.612-4.274 0.235-4.274-1.441 0-1.452 0.464 0.165-6.832 0.731-3.3 1.329-6.037 1.329-6.084 0-0.046-0.38-0.084-0.844-0.084-1.226 0-1.262-0.447-0.389-4.852 0.434-2.19 0.701-4.006 0.594-4.036s-0.601-0.144-1.098-0.253l-0.904-0.199 1.227-3.496c1.377-3.927 1.137-3.8 4.247-2.245m-18.261 1.831c0.143 0.962 0.235 2.987 0.203 4.5l-0.059 2.75h1.3c1.691 0 2.335-1.132 2.358-4.143 0.024-3.116-1.029-4.857-2.937-4.857h-1.127l0.262 1.75m-128.66 2.65c5.358 1.161 9.414 2.197 9.409 2.403-0.013 0.607-16.777 9.236-17.035 8.768-0.231-0.419-3.417-11.005-3.82-12.691-0.271-1.135-1.656-1.319 11.446 1.52m189.8-1.622c-1.227 1.478-1.868 6.791-0.962 7.97 0.229 0.299 0.979 0.644 1.666 0.768l1.25 0.225 8e-3 -2.621c8e-3 -2.309 0.284-4.299 0.861-6.204 0.221-0.731-2.232-0.851-2.823-0.138m-60.477 13.805c0.145 0.688 0.246 2.787 0.224 4.667-0.045 3.724 0.032 3.847 1.967 3.111 3.087-1.174 1.967-9.028-1.288-9.028h-1.169l0.266 1.25m58.068 2.809c-1.701 3.334-1.038 7.608 1.18 7.608h1.183l2e-3 -1.917c2e-3 -1.86 0.433-5.16 0.842-6.449 0.476-1.501-2.402-0.821-3.207 0.758m-210.47 7.911c-2.119 0.754-4.5 1.968-4.5 2.296 0 1.125 5.054 10.401 5.667 10.401 1.151 0 5.666-2.391 5.666-3 0-0.526-4.427-9.567-4.921-10.049-0.135-0.132-0.995 0.027-1.912 0.352m150.94 1.897c0.807 2.761 0.923 3.8 0.711 6.348-0.127 1.532-0.102 2.784 0.058 2.783 1.392-9e-3 2.761-0.771 3.092-1.722 0.861-2.469-0.093-7.609-1.412-7.609-0.261 0-0.96-0.098-1.554-0.216-0.95-0.19-1.058-0.14-0.895 0.416m184.01 4.911c3.091 1.385 5.716 2.617 5.833 2.737 0.256 0.262-6.026 12.565-6.497 12.722-0.181 0.06-1.278-2.181-2.438-4.98-3.852-9.301-5.254-12.75-5.495-13.512l-0.238-0.754 1.607 0.634c0.884 0.349 4.137 1.767 7.228 3.153m-123.93-2.133c-2.364 2.612-1.96 8.355 0.588 8.355h1.41l-0.129-1.347c-0.121-1.274 0.449-6.177 0.836-7.186 0.289-0.753-1.999-0.603-2.705 0.178m-206.13 9.015-2.743 1.326 0.721 1.413c0.539 1.057 5.368 9 5.784 9.514 0.133 0.165 5.447-2.533 5.656-2.871 0.451-0.73-5.568-10.709-6.46-10.709-0.118 0-1.45 0.597-2.958 1.327m298.08 25.923c-4.001 4.171-9.27 9.621-11.708 12.11-2.438 2.49-4.433 4.679-4.433 4.864s1.791 3.015 3.98 6.288 3.914 6.057 3.834 6.187c-0.2 0.324-7.641 5.959-9.437 7.146l-1.456 0.963-0.637-0.787c-0.351-0.432-2.283-3.501-4.295-6.82-10.13-16.713-8.979-15.625-12.803-12.098l-2.649 2.442 0.795 1.311c0.437 0.721 3.064 4.986 5.838 9.478 5.664 9.171 7.049 11.563 6.821 11.778-0.087 0.081-4.243 2.189-9.237 4.684l-9.079 4.536-0.523-1.249c-0.444-1.06-1.646-4.28-4.359-11.678-0.595-1.624-0.311-1.623-4.536-0.011-3.213 1.226-3.063 0.782-1.724 5.106 1.955 6.314 2.747 9.043 2.972 10.241l0.217 1.158-6.611 2.257c-8.51 2.905-10.847 3.575-11.21 3.212-0.281-0.281-3.96-9.985-7.114-18.766-2.12-5.901-1.373-5.414-7.298-4.763-6.471 0.711-6.143 0.538-7.642 4.047-0.693 1.621-4.085 9.42-7.538 17.33-7.077 16.209-7.029 16.083-5.918 15.925 0.427-0.061 2.501-0.278 4.609-0.483 44.428-4.321 83.678-22.099 110.5-50.051 9.457-9.855 15.097-16.72 14.413-17.547-1.578-1.908-15.533-14.393-16.088-14.393-0.225 0-3.682 3.412-7.684 7.583m-241.49 5.02c5.476 5.708 5.231 4.857 2.497 8.678-2.705 3.783-2.36 3.828-6.516-0.846-9.937-11.174-9.626-10.306-4.968-13.866l1.499-1.145 1.404 1.15c0.772 0.633 3.51 3.346 6.084 6.029m18.015-4.56c2e-3 2.445 0.438 9.87 1.144 19.457 0.662 8.979 0.849 12.833 0.624 12.833-0.103 0-1.662-0.786-3.464-1.747l-3.277-1.748-1.321 1.289c-0.726 0.71-1.776 1.924-2.333 2.699l-1.012 1.41 3.569 2.684c27.251 20.491 65.233 35.071 94.594 36.312l4.692 0.199 1.235-8.966c0.679-4.931 1.326-9.964 1.437-11.185l0.202-2.221-1.796-0.209c-0.987-0.115-2.693-0.091-3.791 0.054l-1.995 0.264-0.699 5.833c-0.702 5.851-1.082 8.332-1.279 8.332-0.227 0-13.41-2.34-14.128-2.507-0.89-0.208-0.938 0.29 0.794-8.29 1.563-7.743 1.734-7.062-1.846-7.332-5.095-0.385-4.618-1.003-6.872 8.899-1.267 5.562-1.282 5.602-2.102 5.396-0.454-0.114-3.837-1.389-7.518-2.833-7.885-3.093-7.396-1.982-4.179-9.499 3.261-7.618 3.299-6.869-0.409-7.973-1.707-0.509-3.34-0.987-3.628-1.063-0.391-0.103-1.356 1.493-3.8 6.282-1.802 3.531-3.417 6.602-3.589 6.823-0.29 0.374-21.587-9.901-21.587-10.415 0-0.375 1.739-3.57 5.345-9.821 8.425-14.604 8.003-13.111 4.248-15.027-2.82-1.438-2.714-1.503-6.427 3.925-5.825 8.515-9.839 14.102-10.133 14.102-0.374 0-0.789-3.564-2.197-18.89-0.644-6.997-1.254-12.943-1.358-13.212-0.147-0.384-4.25-3.843-6.728-5.672-0.322-0.238-0.417 0.175-0.416 1.817m234.43 4.806c2.39 2.308 2.558 2.558 2.135 3.162-0.76 1.086-15.472 15.989-15.779 15.985-0.267-4e-3 -2.542-3.355-4.099-6.037l-0.701-1.207 7.706-7.209c4.238-3.965 7.804-7.207 7.925-7.205 0.12 3e-3 1.386 1.133 2.813 2.511m-129.98 35.056-1.051 0.133-0.208 3.731c-0.202 3.623-0.85 25.127-0.854 28.314l-2e-3 1.584h3.467 3.468l0.212-3.75c0.361-6.354 0.849-21.182 0.851-25.834l2e-3 -4.416-2.416 0.053c-1.329 0.029-2.89 0.113-3.469 0.185m37.053 13.693c1.232 3.613 2.316 7.113 2.408 7.778l0.168 1.209-2.122 0.358c-5.464 0.921-12.343 1.78-12.554 1.567-0.129-0.13 1.858-4.362 4.414-9.404 3.916-7.72 4.712-9.081 5.048-8.622 0.219 0.299 1.406 3.501 2.638 7.114m32.832 16.847c-4.41 1.711-4.499 1.766-4.459 2.736 0.044 1.093 2.392 6.486 2.823 6.486 0.932 0 10.636-3.936 10.636-4.314 0-0.584-3.64-6.531-4.032-6.587-0.257-0.037-2.493 0.719-4.968 1.679m-10.166 3.719c-8.414 2.287-8.124 1.976-6.135 6.596 1.3 3.02 0.486 2.911 7.518 1.007 5.683-1.538 5.429-1.338 4.434-3.495-2.296-4.977-2.386-5.041-5.817-4.108" fill-rule="evenodd"/>
</svg>
