<?xml version="1.0" encoding="UTF-8"?>
<svg version="1.1" viewBox="0 0 750 500" xmlns="http://www.w3.org/2000/svg">
<title>2668180</title>
<desc>Created with Sketch.</desc>
<g fill="none" fill-rule="evenodd">
<path d="m623.36 70.206c-5.595 0-10.132-4.536-10.132-10.131s4.537-10.131 10.132-10.131c5.594 0 10.131 4.536 10.131 10.131s-4.537 10.131-10.131 10.131zm-430.18 242.9h-54.13c-29.133 0-52.968 23.836-52.968 52.968 0 29.133 23.835 52.968 52.968 52.968h457.7c47.175 0 85.771-38.596 85.771-85.77 0-47.173-38.596-85.769-85.77-85.769h-1e-3c-19.946-1e-3 -36.265-16.319-36.265-36.266 0-19.946 16.32-36.265 36.266-36.265h43.646c20.737 0 37.704-16.967 37.704-37.704 0-20.738-16.967-37.705-37.704-37.705h-55.192c-8.073 0-14.679-6.606-14.679-14.679s6.606-14.678 14.679-14.678h9.73c5.571 0 10.13-4.56 10.13-10.131 0-5.572-4.559-10.131-10.13-10.131h-36.464-27.377c-13.446 0-14.943 15.884-48.904 15.884h-97.855c-7.271 0-13.22 5.949-13.22 13.218v1e-3c0 7.269 5.95 13.219 13.22 13.219h12.694c10.536 0 19.155 8.62 19.155 19.153v1e-3c0 10.534-8.619 19.154-19.155 19.154h-19.104c-51.591 0-58.879 13.483-67.914 40.299-9.036 26.816-55.965 28.978-55.965 28.978h-64.167c-15.876 0-28.865 12.989-28.865 28.864v1e-3c0 15.875 12.989 28.864 28.865 28.864h3.304c15.269 0 27.763 12.494 27.763 27.764 0 15.269-12.494 27.762-27.763 27.762z" fill="#CED8E4"/>
<path d="m202.37 386.24 19.766-19.766 19.767 19.766v0.267l-19.767 19.765-19.766-19.765v-0.267zm0-44.171 19.766-19.766 19.767 19.766v0.267l-19.767 19.766-19.766-19.766v-0.267zm0-88.341 19.766-19.766 19.767 19.766v0.266l-19.767 19.768-19.766-19.768v-0.266zm39.533 92.979v35.161l-17.581-17.58 17.581-17.581zm0-44.17v35.161l-17.581-17.581 17.581-17.58zm0-44.171v35.162l-17.581-17.581 17.581-17.581zm0-44.171v35.162l-17.581-17.58 17.581-17.582zm-39.533 35.162v-35.162l17.581 17.582-17.581 17.58zm0 132.51v-35.161l17.581 17.581-17.581 17.58zm-4.638 37.171h4.638v-28.161l17.581 17.581-10.581 10.58h4.371l8.395-8.395 8.395 8.395h4.372l-10.581-10.58 17.581-17.581v28.161h4.637v-219.19h-4.637v5.339l-5.34-5.339h-4.371l9.711 9.71v0.266l-19.767 19.766-19.766-19.766v-0.266l9.71-9.71h-4.371l-5.339 5.339v-5.339h-4.638v58.108c1.595 0.267 3.145 0.67 4.638 1.198v-0.788l1.275 1.275c6.883 2.826 12.403 8.346 15.229 15.23l1.077 1.076-0.488 0.488c0.382 1.117 0.693 2.265 0.929 3.441l1.744-1.743 19.767 19.766v0.266l-19.767 19.767-11.252-11.252c-0.8 0.666-1.638 1.287-2.51 1.861l11.577 11.576-17.581 17.581v-26.17c-1.493 0.528-3.043 0.931-4.638 1.198v106.31z" fill="#A5B7D1"/>
<path d="m526.69 386.24 19.767-19.766 19.767 19.766v0.267l-19.767 19.765-19.767-19.765v-0.267zm0-44.171 19.767-19.766 19.767 19.766v0.267l-19.767 19.766-19.767-19.766v-0.267zm0-44.17 19.767-19.766 19.767 19.766v0.266l-19.767 19.767-19.767-19.767v-0.266zm0-44.171 19.767-19.766 19.767 19.766v0.266l-19.767 19.768-19.767-19.768v-0.266zm0-88.341 19.767-19.766 19.767 19.766v0.266l-19.767 19.767-19.767-19.767v-0.266zm0-44.17 19.767-19.767 19.767 19.767v0.266l-19.767 19.766-19.767-19.766v-0.266zm0-44.171 19.767-19.766 19.767 19.766v0.266l-19.767 19.767-19.767-19.767v-0.266zm39.534 269.66v35.161l-17.581-17.58 17.581-17.581zm0-44.17v35.161l-17.581-17.581 17.581-17.58zm0-44.171v35.162l-17.581-17.581 17.581-17.581zm0-132.51v35.162l-17.581-17.581 17.581-17.581zm0-44.17v35.162l-17.581-17.582 17.581-17.58zm-39.534 35.162v-35.162l17.581 17.58-17.581 17.582zm0 44.17v-35.162l17.581 17.581-17.581 17.581zm0 44.171v-35.162l17.581 17.581-17.581 17.581zm0 44.17v-35.162l17.581 17.582-17.581 17.58zm0 44.171v-35.162l17.581 17.581-17.581 17.581zm0 44.17v-35.161l17.581 17.58-17.581 17.581zm0 44.17v-35.161l17.581 17.581-17.581 17.58zm-4.636 37.171h4.636v-28.161l17.581 17.581-10.581 10.58h4.371l8.396-8.395 8.396 8.395h4.371l-10.581-10.58 17.581-17.581v28.161h4.637v-182.47c-1.734-1.772-3.292-3.717-4.637-5.81v18.6l-17.581-17.58 12.701-12.701c-0.274-1.226-0.483-2.476-0.628-3.745l-14.259 14.259-19.767-19.766v-0.266l19.767-19.767 14.666 14.667c0.23-1.192 0.515-2.365 0.857-3.515l-13.337-13.337 17.581-17.581v21.686c1.345-2.092 2.903-4.038 4.637-5.81v-97.894c-0.22-1.008-0.339-2.054-0.339-3.126s0.119-2.117 0.339-3.125v-31.815h-4.637v22.734l-17.581-17.581 5.153-5.153h-4.371l-2.968 2.967-2.967-2.967h-4.372l5.153 5.153-17.581 17.581v-22.101c-1.64 0.491-3.14 1.238-4.636 2.145v366.32z" fill="#A5B7D1"/>
<path d="m174.49 334.76v51.81l-25.905-25.906 25.905-25.904zm-58.252 51.81v-51.81l25.906 25.904-25.906 25.906zm65.085-185.42c-6.859 2.144-12.637 6.792-16.256 12.86l9.423-9.423v48.516c2.11 1.339 4.404 2.415 6.833 3.174v-55.127zm0 111.95h-6.833v8.377l-8.377-8.377h-6.441l14.818 14.819v0.391l-29.126 29.125-29.126-29.125v-0.391l14.091-14.09c-2.979 0.499-5.876 1.247-8.667 2.226l-5.424 5.422v-3.178c-2.381 1.144-4.663 2.464-6.832 3.938v87.663c2.169 1.475 4.452 2.794 6.832 3.939v-14.003l19.065 19.065c1.239 0.088 2.489 0.135 3.748 0.135h2.829l-25.642-25.641v-0.392l29.126-29.126 29.126 29.126v0.392l-25.642 25.641h6.441l19.201-19.2v19.2h6.833v-105.94z" fill="#A5B7D1"/>
<path d="m594.11 327.92 29.125-29.126 29.125 29.126v0.391l-29.125 29.125-29.125-29.125v-0.391zm0-195.25 29.125-29.125 29.125 29.125v0.392l-29.125 29.125-29.125-29.125v-0.392zm58.25 202.09v51.81l-25.904-25.906 25.904-25.904zm0-65.084v51.809l-25.904-25.905 25.904-25.904zm-58.25 51.809v-51.809l25.905 25.904-25.905 25.905zm0 65.085v-51.81l25.905 25.904-25.905 25.906zm-6.834-316.36h7.655c0.446 0 0.885-0.03 1.318-0.087l-2.139-2.139v-0.392l10.498-10.5c-0.475-1.532-1.308-2.912-2.399-4.041l-8.099 8.1v-11.203h-6.834v20.262zm0 106.03c2.203-0.6 4.489-0.997 6.834-1.169v-35.563l25.905 25.906-9.561 9.561h6.44l6.341-6.341 6.34 6.341h6.442l-9.561-9.561 25.904-25.906v33.507c2.394-0.807 4.68-1.849 6.834-3.097v-65.295c-2.154-1.248-4.44-2.29-6.834-3.097v24.707l-25.904-25.904 0.763-0.763h-7.968l0.764 0.763-25.905 25.904v-26.667h-6.834v76.674zm0 242.8h6.834v-19.2l17.84 17.841c1.786-0.324 3.554-0.707 5.301-1.14l-23.141-23.142v-0.392l29.125-29.126 29.125 29.126v0.392l-15.736 15.737c8.449-4.472 16.072-10.316 22.57-17.229v-117.27c-2.949-3.137-6.127-6.057-9.511-8.726l-26.448 26.447-29.125-29.125v-0.391l14.506-14.508c-1.923-0.269-3.865-0.475-5.826-0.613l-8.68 8.679v-8.994c-2.345-0.171-4.631-0.568-6.834-1.167v172.8z" fill="#A5B7D1"/>
<path d="m217.88 334.74h-46.585c-1.889 0-3.432 1.543-3.432 3.432v32.854c0 1.888 1.543 3.432 3.432 3.432h46.585c1.889 0 3.432-1.544 3.432-3.432v-32.854c0-1.889-1.543-3.432-3.432-3.432" fill="#6F95B8"/>
<path d="m248.44 334.74h-46.585c-1.888 0-3.431 1.543-3.431 3.432v32.854c0 1.888 1.543 3.432 3.431 3.432h46.585c1.89 0 3.432-1.544 3.432-3.432v-32.854c0-1.889-1.542-3.432-3.432-3.432" fill="#9AB2CC"/>
<path d="m242.4 347.85h-34.489c-1.077 0-1.96 0.882-1.96 1.96v9.562c0 1.078 0.883 1.961 1.96 1.961h34.489c1.079 0 1.961-0.883 1.961-1.961v-9.562c0-1.078-0.882-1.96-1.961-1.96" fill="#6F95B8"/>
<path d="m227.34 350.14h-16.961c-0.235 0-0.428 0.191-0.428 0.427v2.087c0 0.235 0.193 0.427 0.428 0.427h16.961c0.235 0 0.427-0.192 0.427-0.427v-2.087c0-0.236-0.192-0.427-0.427-0.427" fill="#D9D5D7"/>
<path d="m218.76 354.8h-8.379c-0.235 0-0.428 0.191-0.428 0.427v2.086c0 0.236 0.193 0.428 0.428 0.428h8.379c0.235 0 0.428-0.192 0.428-0.428v-2.086c0-0.236-0.193-0.427-0.428-0.427" fill="#D9D5D7"/>
<path d="m201.79 374.45h55.823c2.263 0 4.114 1.851 4.114 4.113v39.371c0 2.262-1.851 4.114-4.114 4.114h-55.823c-2.263 0-4.113-1.852-4.113-4.114v-39.371c0-2.262 1.85-4.113 4.113-4.113" fill="#6F95B8"/>
<path d="m165.17 374.45h55.823c2.262 0 4.113 1.851 4.113 4.113v39.371c0 2.262-1.851 4.114-4.113 4.114h-55.823c-2.264 0-4.114-1.852-4.114-4.114v-39.371c0-2.262 1.85-4.113 4.114-4.113" fill="#9AB2CC"/>
<path d="m172.41 390.17h41.329c1.292 0 2.349 1.056 2.349 2.348v11.459c0 1.292-1.057 2.349-2.349 2.349h-41.329c-1.292 0-2.349-1.057-2.349-2.349v-11.459c0-1.292 1.057-2.348 2.349-2.348" fill="#6F95B8"/>
<path d="m190.46 392.91h20.323c0.282 0 0.512 0.231 0.512 0.513v2.501c0 0.282-0.23 0.512-0.512 0.512h-20.323c-0.283 0-0.513-0.23-0.513-0.512v-2.501c0-0.282 0.23-0.513 0.513-0.513" fill="#D9D5D7"/>
<path d="m200.74 398.5h10.04c0.283 0 0.513 0.231 0.513 0.513v2.501c0 0.282-0.23 0.512-0.513 0.512h-10.04c-0.282 0-0.512-0.23-0.512-0.512v-2.501c0-0.282 0.23-0.513 0.512-0.513" fill="#D9D5D7"/>
<path d="m457.65 147.5c-0.97 0.414-1.911 0.885-2.816 1.408-0.924 0.534-1.81 1.121-2.653 1.757-0.845 0.637-1.654 1.328-2.419 2.065-0.03 0.028-0.066 0.045-0.106 0.049-0.04 5e-3 -0.081-2e-3 -0.115-0.022-2.242-1.294-4.488-2.584-6.726-3.884-0.266-0.145-0.553-0.232-0.842-0.265-0.299-0.034-0.6-0.01-0.885 0.066-0.294 0.078-0.575 0.216-0.823 0.405-0.239 0.182-0.446 0.412-0.603 0.687-1.625 2.631-3.169 5.483-4.722 8.174-0.159 0.274-0.255 0.571-0.293 0.87-0.04 0.311-0.018 0.623 0.061 0.916 0.078 0.294 0.215 0.575 0.405 0.823 0.182 0.239 0.412 0.446 0.687 0.603 2.144 1.325 4.471 2.582 6.664 3.849 0.035 0.019 0.061 0.051 0.076 0.087 0.016 0.037 0.021 0.078 0.011 0.117l-0.153 0.622 8e-3 3e-3c-0.067 0.302-0.129 0.609-0.186 0.92-0.098 0.534-0.179 1.059-0.241 1.574-0.062 0.51-0.11 1.037-0.143 1.579-0.032 0.544-0.049 1.076-0.049 1.595s0.017 1.051 0.049 1.594c0.033 0.543 0.081 1.071 0.143 1.581 0.062 0.514 0.144 1.039 0.241 1.572 0.097 0.53 0.21 1.046 0.332 1.546 0.011 0.042 6e-3 0.085-0.012 0.121-0.019 0.041-0.048 0.073-0.082 0.09-2.449 1.308-4.936 2.847-7.357 4.246l0.086 0.107-0.075 0.093c-0.189 0.248-0.326 0.529-0.404 0.823-0.079 0.293-0.101 0.605-0.061 0.916 0.038 0.299 0.134 0.595 0.293 0.869l5.074 8.788 0.093-0.056c0.051 0.045 0.104 0.089 0.158 0.13 0.248 0.189 0.529 0.327 0.823 0.405 0.292 0.078 0.603 0.1 0.913 0.061 0.292-0.037 0.58-0.13 0.847-0.279 2.218-1.177 4.505-2.601 6.696-3.867 0.032-0.017 0.072-0.023 0.111-0.019 0.041 5e-3 0.08 0.023 0.11 0.05 0.764 0.738 1.572 1.427 2.417 2.064 0.842 0.635 1.728 1.222 2.65 1.755 0.912 0.527 1.859 1 2.836 1.415 0.971 0.413 1.969 0.767 2.987 1.06 0.04 0.012 0.075 0.036 0.098 0.066 0.025 0.034 0.04 0.074 0.037 0.113v7.695c0 0.315 0.065 0.618 0.18 0.896 0.121 0.29 0.296 0.549 0.512 0.763 0.217 0.216 0.475 0.391 0.761 0.51 0.278 0.116 0.58 0.18 0.896 0.18h9.444c0.315 0 0.617-0.064 0.896-0.18 0.285-0.119 0.544-0.294 0.762-0.51 0.214-0.214 0.389-0.473 0.51-0.763 0.115-0.278 0.18-0.581 0.18-0.896v-7.695c0-0.047 0.013-0.087 0.037-0.117s0.061-0.054 0.104-0.064l0.031-0.011c1.025-0.296 2.015-0.648 2.967-1.054 0.97-0.413 1.912-0.884 2.818-1.407 0.923-0.534 1.808-1.121 2.651-1.757 0.846-0.637 1.654-1.328 2.42-2.066 0.031-0.031 0.071-0.048 0.109-0.051 0.041-4e-3 0.083 7e-3 0.121 0.03l6.664 3.847c0.273 0.158 0.568 0.254 0.866 0.292 0.308 0.04 0.62 0.017 0.914-0.061s0.575-0.216 0.824-0.405c0.232-0.177 0.435-0.402 0.592-0.667 1.751-2.815 3.405-5.9 5.075-8.791l-0.09-0.054c0.018-0.073 0.031-0.147 0.04-0.221 0.039-0.31 0.018-0.621-0.06-0.914-0.079-0.294-0.216-0.576-0.407-0.823-0.181-0.239-0.412-0.446-0.684-0.603l-6.667-3.848c-0.034-0.02-0.06-0.052-0.075-0.087-0.016-0.038-0.021-0.081-0.011-0.121l0.173-0.705-0.01-2e-3c0.06-0.274 0.115-0.553 0.168-0.835 0.098-0.533 0.179-1.059 0.241-1.574 0.063-0.51 0.111-1.038 0.143-1.581 0.033-0.543 0.05-1.075 0.05-1.594 0-0.518-0.017-1.05-0.05-1.594-0.032-0.542-0.08-1.07-0.143-1.584-0.062-0.51-0.142-1.034-0.241-1.572-0.098-0.528-0.209-1.044-0.332-1.542-0.01-0.041-4e-3 -0.083 0.013-0.125 0.017-0.036 0.048-0.067 0.085-0.086l6.657-3.844c0.275-0.159 0.505-0.365 0.684-0.604 0.19-0.249 0.328-0.53 0.406-0.821 0.078-0.292 0.099-0.604 0.06-0.914-0.038-0.291-0.131-0.579-0.281-0.849-1.587-2.939-3.406-5.902-5.085-8.809l-0.095 0.056c-0.05-0.046-0.103-0.089-0.156-0.131-0.249-0.189-0.53-0.327-0.824-0.405-0.292-0.078-0.604-0.1-0.913-0.061-0.302 0.038-0.596 0.133-0.866 0.288l-0.494 0.283 2e-3 5e-3 -6.182 3.568c-0.038 0.022-0.079 0.029-0.119 0.024-0.039-6e-3 -0.078-0.024-0.106-0.053l-0.015-0.016c-0.758-0.729-1.564-1.416-2.415-2.056-0.845-0.637-1.726-1.221-2.638-1.748-0.911-0.526-1.858-1-2.834-1.415-0.971-0.412-1.969-0.767-2.988-1.059-0.04-0.011-0.074-0.036-0.096-0.066-0.027-0.034-0.041-0.074-0.038-0.113v-7.696c0-0.314-0.065-0.618-0.18-0.895-0.121-0.289-0.296-0.549-0.513-0.763-0.216-0.216-0.474-0.39-0.759-0.51-0.279-0.116-0.581-0.18-0.896-0.18h-9.444c-0.316 0-0.618 0.064-0.896 0.18-0.286 0.12-0.544 0.294-0.763 0.51-0.425 0.425-0.69 1.013-0.69 1.658v7.696c0 0.045-0.015 0.085-0.038 0.118-0.024 0.03-0.062 0.053-0.103 0.063l-0.031 0.011c-1.025 0.296-2.016 0.649-2.968 1.053zm3.32 0.292c-0.942 0.271-1.869 0.603-2.775 0.989-0.92 0.391-1.809 0.837-2.665 1.331-0.869 0.503-1.708 1.059-2.51 1.664-0.806 0.608-1.573 1.262-2.293 1.957-0.256 0.246-0.575 0.39-0.902 0.43-0.334 0.041-0.68-0.028-0.981-0.202-2.211-1.276-4.535-2.54-6.701-3.869-0.105-0.055-0.215-0.089-0.326-0.101-0.125-0.013-0.25-4e-3 -0.369 0.028-0.123 0.033-0.239 0.089-0.34 0.166-0.095 0.073-0.179 0.167-0.243 0.277-1.612 2.439-3.229 5.59-4.722 8.176-0.064 0.11-0.102 0.229-0.118 0.347-0.016 0.124-5e-3 0.255 0.029 0.381 0.032 0.122 0.088 0.238 0.165 0.339 0.072 0.096 0.167 0.18 0.277 0.244 1.989 1.315 4.552 2.631 6.659 3.848 0.311 0.178 0.536 0.443 0.665 0.745 0.046 0.106 0.079 0.216 0.1 0.329l0.138 0.046-0.155 0.621c-0.121 0.489-0.226 0.978-0.316 1.463-0.086 0.474-0.162 0.969-0.225 1.486-0.061 0.504-0.107 1.004-0.136 1.497-0.03 0.482-0.044 0.988-0.044 1.514s0.014 1.031 0.044 1.513c0.029 0.494 0.075 0.995 0.136 1.499 0.063 0.516 0.139 1.011 0.225 1.484 0.09 0.487 0.196 0.976 0.316 1.465 0.09 0.362 0.046 0.726-0.099 1.039-0.144 0.313-0.393 0.575-0.712 0.739l-5.899 3.406 2e-3 2e-3 -0.699 0.403c-0.111 0.064-0.205 0.149-0.278 0.244-0.075 0.101-0.132 0.216-0.164 0.339-0.034 0.127-0.045 0.257-0.029 0.381 0.016 0.118 0.054 0.236 0.118 0.347l4.366 7.566 3e-3 -1e-3 0.353 0.611c0.064 0.11 0.148 0.204 0.243 0.277 0.101 0.077 0.217 0.133 0.34 0.165 0.125 0.034 0.255 0.044 0.378 0.028 0.117-0.015 0.236-0.054 0.346-0.117 2.112-1.327 4.496-2.595 6.675-3.852 0.311-0.177 0.652-0.239 0.975-0.2 0.335 0.04 0.653 0.187 0.902 0.426l3e-3 2e-3c0.72 0.696 1.488 1.35 2.294 1.958 0.802 0.604 1.64 1.16 2.509 1.662 0.861 0.498 1.757 0.946 2.684 1.34 0.908 0.386 1.851 0.72 2.823 0.999 0.342 0.098 0.627 0.302 0.827 0.567 0.201 0.268 0.318 0.603 0.318 0.952l3e-3 7.695c0 0.13 0.025 0.253 0.071 0.362 0.048 0.115 0.12 0.221 0.21 0.311 0.088 0.089 0.194 0.161 0.31 0.21 0.111 0.046 0.233 0.072 0.363 0.072h9.444c0.129 0 0.251-0.026 0.361-0.072 0.117-0.049 0.223-0.121 0.312-0.209 0.089-0.091 0.161-0.197 0.209-0.312 0.046-0.109 0.071-0.232 0.071-0.362v-7.695c0-0.367 0.128-0.706 0.343-0.977 0.217-0.276 0.523-0.478 0.872-0.561 0.942-0.27 1.868-0.602 2.774-0.988 0.919-0.391 1.81-0.837 2.665-1.331 0.87-0.503 1.708-1.059 2.51-1.664 0.807-0.607 1.574-1.262 2.294-1.957 0.268-0.257 0.604-0.401 0.949-0.433 0.35-0.032 0.71 0.054 1.013 0.254l6.588 3.804c0.109 0.063 0.229 0.102 0.35 0.116 0.123 0.016 0.253 6e-3 0.379-0.028 0.124-0.032 0.239-0.088 0.339-0.165 0.096-0.073 0.179-0.166 0.244-0.277 1.565-2.73 3.155-5.448 4.722-8.177 0.064-0.11 0.102-0.229 0.117-0.348 0.016-0.124 6e-3 -0.253-0.028-0.379-0.033-0.124-0.089-0.24-0.164-0.339-0.072-0.098-0.165-0.181-0.272-0.244l-6.666-3.848c-0.309-0.177-0.536-0.443-0.665-0.745-0.035-0.082-0.063-0.167-0.084-0.254l-0.173-0.035 0.174-0.707c0.122-0.488 0.227-0.977 0.317-1.463 0.087-0.474 0.162-0.969 0.225-1.486 0.061-0.504 0.107-1.004 0.137-1.499 0.029-0.482 0.044-0.987 0.044-1.513 0-0.525-0.015-1.03-0.044-1.512-0.03-0.493-0.076-0.993-0.137-1.497-0.064-0.523-0.139-1.02-0.225-1.491-0.09-0.484-0.195-0.972-0.317-1.46-0.089-0.364-0.044-0.729 0.101-1.041 0.147-0.312 0.393-0.575 0.709-0.737l6.602-3.811c0.108-0.061 0.2-0.145 0.274-0.243 0.075-0.097 0.131-0.214 0.164-0.34 0.034-0.126 0.044-0.255 0.028-0.379-0.015-0.119-0.053-0.239-0.117-0.348-1.612-2.397-3.226-5.599-4.722-8.177-0.065-0.11-0.148-0.204-0.244-0.277-0.1-0.076-0.215-0.133-0.339-0.166-0.125-0.033-0.255-0.043-0.379-0.028-0.117 0.015-0.236 0.054-0.348 0.119l-6.67 3.85c-0.313 0.184-0.666 0.245-1 0.2-0.335-0.047-0.654-0.2-0.901-0.446-0.725-0.697-1.489-1.348-2.284-1.947-0.792-0.597-1.628-1.15-2.501-1.655-0.86-0.497-1.757-0.945-2.683-1.338-0.908-0.387-1.852-0.722-2.822-1-0.343-0.098-0.627-0.302-0.828-0.567-0.203-0.268-0.318-0.602-0.318-0.952l-3e-3 -7.696c0-0.129-0.025-0.252-0.07-0.362-0.048-0.114-0.12-0.22-0.211-0.31-0.088-0.09-0.194-0.161-0.311-0.21-0.11-0.046-0.232-0.071-0.361-0.071h-9.444c-0.13 0-0.252 0.025-0.363 0.071-0.116 0.049-0.222 0.12-0.311 0.209-0.172 0.175-0.28 0.413-0.28 0.673v7.696c0 0.369-0.127 0.708-0.339 0.977-0.221 0.276-0.528 0.478-0.876 0.56zm1.664 11.078c-1.667 0.691-3.171 1.707-4.433 2.969-1.262 1.263-2.278 2.766-2.969 4.433-0.665 1.607-1.032 3.372-1.032 5.226 0 1.855 0.367 3.62 1.032 5.227 0.691 1.667 1.707 3.17 2.969 4.433 1.262 1.262 2.766 2.278 4.433 2.968 1.606 0.666 3.372 1.033 5.226 1.033 1.853 0 3.618-0.367 5.224-1.033 1.67-0.69 3.174-1.706 4.437-2.968 1.261-1.263 2.277-2.766 2.967-4.433 0.665-1.607 1.033-3.372 1.033-5.227 0-1.854-0.368-3.619-1.033-5.226-0.69-1.667-1.706-3.17-2.967-4.433-1.263-1.262-2.767-2.278-4.434-2.968-1.606-0.666-3.372-1.034-5.227-1.034-1.854 0-3.62 0.368-5.226 1.033zm-5.419 1.983c1.385-1.385 3.043-2.503 4.891-3.269 1.776-0.735 3.719-1.141 5.754-1.141 2.036 0 3.979 0.406 5.755 1.142 1.847 0.765 3.507 1.883 4.891 3.268 1.385 1.384 2.504 3.044 3.268 4.891 0.736 1.776 1.142 3.72 1.142 5.754 0 2.035-0.406 3.979-1.142 5.755-0.765 1.848-1.883 3.507-3.268 4.891-1.384 1.385-3.042 2.503-4.889 3.267-1.775 0.737-3.72 1.143-5.757 1.143-2.035 0-3.978-0.407-5.754-1.142-1.847-0.765-3.507-1.883-4.891-3.268-1.385-1.384-2.504-3.043-3.269-4.891-0.735-1.776-1.141-3.719-1.141-5.755 0-2.034 0.406-3.979 1.141-5.754 0.765-1.847 1.884-3.507 3.269-4.891z" fill="#A5B7D1"/>
<path d="m67.465 222.98c-0.97 0.414-1.911 0.885-2.817 1.408-0.922 0.534-1.809 1.122-2.652 1.757-0.845 0.637-1.654 1.328-2.419 2.065-0.029 0.028-0.065 0.045-0.105 0.05-0.04 4e-3 -0.082-3e-3 -0.116-0.023-2.242-1.294-4.488-2.584-6.726-3.885-0.267-0.144-0.553-0.231-0.842-0.264-0.298-0.034-0.6-0.011-0.885 0.066-0.294 0.079-0.575 0.216-0.823 0.405-0.238 0.182-0.446 0.413-0.603 0.686-1.625 2.632-3.168 5.484-4.723 8.175-0.158 0.274-0.254 0.571-0.292 0.87-0.04 0.311-0.018 0.623 0.061 0.915 0.079 0.295 0.216 0.576 0.405 0.824 0.182 0.238 0.412 0.445 0.687 0.603 2.144 1.324 4.471 2.582 6.665 3.849 0.034 0.019 0.06 0.051 0.075 0.087 0.016 0.036 0.02 0.078 0.011 0.117l-0.154 0.622 9e-3 3e-3c-0.067 0.302-0.128 0.609-0.186 0.921-0.098 0.533-0.179 1.058-0.241 1.573-0.062 0.51-0.11 1.037-0.143 1.579-0.032 0.544-0.049 1.076-0.049 1.595 0 0.518 0.017 1.051 0.049 1.594 0.033 0.543 0.081 1.07 0.143 1.581 0.062 0.514 0.144 1.039 0.241 1.572 0.098 0.53 0.21 1.045 0.333 1.546 0.01 0.041 5e-3 0.084-0.013 0.121-0.019 0.041-0.047 0.073-0.082 0.089-2.449 1.309-4.936 2.847-7.358 4.246l0.087 0.109-0.074 0.093c-0.189 0.247-0.326 0.528-0.405 0.823-0.079 0.292-0.101 0.604-0.061 0.915 0.038 0.3 0.134 0.596 0.293 0.869l5.074 8.788 0.094-0.057c0.051 0.046 0.103 0.09 0.157 0.131 0.248 0.189 0.529 0.326 0.823 0.405 0.292 0.079 0.604 0.1 0.913 0.06 0.292-0.036 0.579-0.129 0.847-0.277 2.219-1.179 4.504-2.602 6.696-3.867 0.033-0.018 0.072-0.025 0.112-0.02 0.041 5e-3 0.08 0.023 0.109 0.05 0.765 0.737 1.573 1.428 2.417 2.064 0.843 0.635 1.729 1.222 2.651 1.755 0.911 0.527 1.859 1.001 2.835 1.416 0.971 0.412 1.969 0.767 2.988 1.059 0.04 0.012 0.074 0.035 0.097 0.065 0.025 0.034 0.04 0.075 0.037 0.114v7.696c0 0.314 0.064 0.618 0.18 0.895 0.121 0.289 0.296 0.548 0.513 0.763 0.216 0.216 0.474 0.391 0.76 0.51 0.278 0.116 0.581 0.18 0.896 0.18h9.444c0.314 0 0.618-0.064 0.895-0.18 0.286-0.119 0.544-0.294 0.763-0.51 0.215-0.215 0.39-0.474 0.51-0.763 0.116-0.277 0.18-0.581 0.18-0.895v-7.696c0-0.046 0.014-0.087 0.037-0.117 0.024-0.03 0.062-0.054 0.105-0.064l0.03-0.011c1.025-0.296 2.016-0.648 2.967-1.054 0.971-0.414 1.912-0.883 2.818-1.408 0.923-0.533 1.809-1.12 2.651-1.755 0.846-0.637 1.655-1.329 2.42-2.067 0.032-0.03 0.071-0.048 0.11-0.052 0.04-3e-3 0.083 7e-3 0.119 0.03l6.665 3.849c0.274 0.157 0.568 0.253 0.866 0.291 0.309 0.039 0.621 0.017 0.914-0.061 0.295-0.079 0.576-0.216 0.823-0.405 0.233-0.177 0.436-0.402 0.593-0.667 1.751-2.816 3.406-5.899 5.075-8.791l-0.089-0.053c0.017-0.075 0.029-0.148 0.039-0.223 0.039-0.31 0.018-0.62-0.061-0.913-0.078-0.294-0.215-0.576-0.405-0.822-0.182-0.241-0.412-0.447-0.685-0.604l-6.667-3.849c-0.034-0.019-0.06-0.05-0.075-0.086-0.016-0.038-0.02-0.082-0.011-0.121l0.173-0.704-0.01-3e-3c0.06-0.274 0.116-0.552 0.168-0.836 0.098-0.532 0.179-1.058 0.241-1.572 0.063-0.512 0.11-1.039 0.143-1.582s0.05-1.076 0.05-1.594-0.017-1.05-0.05-1.594c-0.033-0.542-0.08-1.07-0.143-1.584-0.062-0.51-0.142-1.034-0.241-1.572-0.097-0.528-0.209-1.044-0.332-1.542-0.01-0.041-4e-3 -0.084 0.013-0.124 0.017-0.037 0.047-0.068 0.085-0.087l6.658-3.844c0.275-0.159 0.505-0.365 0.684-0.604 0.189-0.249 0.326-0.53 0.404-0.822 0.079-0.292 0.1-0.603 0.061-0.913-0.037-0.291-0.13-0.58-0.281-0.849-1.587-2.939-3.406-5.902-5.085-8.809l-0.094 0.056c-0.051-0.046-0.103-0.09-0.158-0.131-0.247-0.189-0.528-0.326-0.823-0.405-0.293-0.078-0.604-0.1-0.913-0.061-0.301 0.038-0.596 0.132-0.866 0.288l-0.493 0.283 2e-3 5e-3 -6.183 3.568c-0.038 0.022-0.08 0.029-0.119 0.024-0.04-6e-3 -0.077-0.024-0.106-0.053l-0.016-0.016c-0.756-0.729-1.563-1.416-2.414-2.056-0.845-0.637-1.726-1.221-2.638-1.748-0.911-0.526-1.858-1-2.834-1.415-0.971-0.412-1.969-0.767-2.987-1.059-0.04-0.012-0.074-0.036-0.097-0.066-0.026-0.034-0.041-0.074-0.038-0.112v-7.697c0-0.315-0.064-0.618-0.18-0.896-0.12-0.288-0.295-0.547-0.513-0.762-0.216-0.216-0.474-0.391-0.76-0.51-0.277-0.116-0.581-0.18-0.895-0.18h-9.444c-0.315 0-0.618 0.064-0.896 0.18-0.286 0.119-0.544 0.294-0.763 0.51-0.425 0.426-0.69 1.012-0.69 1.658v7.697c0 0.044-0.015 0.085-0.038 0.117-0.024 0.03-0.061 0.053-0.103 0.063l-0.03 0.011c-1.026 0.296-2.017 0.649-2.969 1.053zm3.32 0.292c-0.942 0.272-1.869 0.604-2.775 0.989-0.919 0.391-1.809 0.837-2.664 1.331-0.87 0.503-1.708 1.059-2.511 1.664-0.807 0.608-1.573 1.261-2.294 1.957-0.255 0.246-0.573 0.39-0.9 0.429-0.334 0.041-0.681-0.027-0.982-0.201-2.21-1.276-4.535-2.539-6.701-3.869-0.105-0.056-0.215-0.088-0.325-0.101-0.125-0.014-0.251-4e-3 -0.37 0.028-0.122 0.033-0.239 0.089-0.339 0.165-0.096 0.074-0.18 0.167-0.244 0.278-1.612 2.439-3.229 5.59-4.722 8.176-0.064 0.111-0.103 0.229-0.118 0.347-0.015 0.124-5e-3 0.255 0.029 0.381 0.032 0.123 0.088 0.238 0.165 0.338 0.073 0.097 0.167 0.18 0.278 0.245 1.989 1.315 4.551 2.63 6.66 3.848 0.309 0.177 0.535 0.443 0.664 0.746 0.045 0.105 0.078 0.215 0.099 0.327l0.137 0.047-0.154 0.621c-0.12 0.489-0.226 0.977-0.316 1.463-0.086 0.473-0.162 0.969-0.224 1.486-0.061 0.504-0.108 1.004-0.138 1.497-0.028 0.483-0.043 0.988-0.043 1.514 0 0.527 0.015 1.031 0.043 1.513 0.03 0.494 0.077 0.994 0.138 1.499 0.062 0.516 0.138 1.011 0.225 1.484 0.089 0.487 0.195 0.976 0.316 1.464 0.09 0.363 0.045 0.727-0.1 1.039-0.144 0.314-0.392 0.576-0.713 0.741l-5.898 3.405 3e-3 2e-3 -0.699 0.403c-0.112 0.065-0.205 0.149-0.279 0.244-0.076 0.1-0.132 0.216-0.164 0.339-0.034 0.126-0.044 0.257-0.029 0.381 0.015 0.118 0.054 0.236 0.118 0.348l4.367 7.564 2e-3 -1e-3 0.353 0.612c0.064 0.11 0.148 0.204 0.244 0.277 0.1 0.077 0.217 0.133 0.339 0.166 0.125 0.033 0.255 0.043 0.379 0.027 0.117-0.015 0.235-0.053 0.345-0.118 2.113-1.327 4.496-2.594 6.676-3.851 0.311-0.177 0.651-0.24 0.974-0.201 0.335 0.041 0.652 0.188 0.902 0.426l2e-3 3e-3c0.722 0.695 1.489 1.35 2.295 1.958 0.802 0.605 1.641 1.16 2.509 1.662 0.861 0.498 1.757 0.945 2.683 1.34 0.909 0.386 1.853 0.721 2.824 0.999 0.342 0.098 0.627 0.302 0.827 0.566 0.202 0.269 0.318 0.603 0.318 0.953l3e-3 7.696c0 0.129 0.025 0.252 0.071 0.361 0.048 0.114 0.12 0.221 0.21 0.311 0.088 0.09 0.195 0.161 0.311 0.211 0.11 0.045 0.232 0.07 0.362 0.07h9.444c0.129 0 0.251-0.025 0.362-0.07 0.116-0.05 0.222-0.121 0.311-0.209 0.089-0.092 0.161-0.199 0.209-0.313 0.046-0.109 0.072-0.232 0.072-0.361v-7.696c0-0.367 0.127-0.706 0.342-0.977 0.217-0.276 0.523-0.478 0.872-0.561 0.942-0.271 1.869-0.602 2.774-0.988 0.92-0.391 1.81-0.837 2.666-1.332 0.869-0.502 1.707-1.057 2.509-1.662 0.807-0.608 1.574-1.263 2.295-1.958 0.267-0.257 0.604-0.401 0.948-0.433 0.351-0.031 0.71 0.053 1.013 0.253l6.589 3.805c0.109 0.063 0.228 0.102 0.348 0.116 0.125 0.016 0.254 6e-3 0.38-0.027 0.123-0.033 0.239-0.089 0.339-0.166 0.095-0.073 0.18-0.166 0.244-0.277 1.565-2.73 3.155-5.448 4.722-8.177 0.063-0.11 0.102-0.229 0.118-0.349 0.015-0.123 5e-3 -0.252-0.029-0.378-0.032-0.124-0.088-0.241-0.164-0.34-0.072-0.097-0.164-0.18-0.272-0.243l-6.666-3.848c-0.309-0.177-0.535-0.443-0.664-0.746-0.036-0.082-0.064-0.167-0.084-0.253l-0.174-0.036 0.175-0.706c0.12-0.488 0.226-0.977 0.316-1.464 0.087-0.472 0.162-0.969 0.225-1.485 0.061-0.504 0.108-1.005 0.137-1.499 0.029-0.482 0.044-0.986 0.044-1.513 0-0.525-0.015-1.03-0.044-1.512-0.029-0.494-0.076-0.993-0.137-1.497-0.064-0.523-0.139-1.02-0.225-1.491-0.09-0.484-0.195-0.972-0.316-1.46-0.09-0.364-0.046-0.729 0.1-1.042 0.146-0.311 0.393-0.574 0.709-0.736l6.601-3.811c0.109-0.062 0.201-0.145 0.275-0.244 0.075-0.096 0.131-0.213 0.164-0.339 0.034-0.126 0.044-0.255 0.029-0.379-0.016-0.119-0.055-0.238-0.118-0.348-1.612-2.397-3.226-5.599-4.722-8.177-0.064-0.111-0.149-0.204-0.244-0.278-0.1-0.076-0.216-0.132-0.339-0.165-0.126-0.033-0.255-0.043-0.379-0.028-0.116 0.014-0.235 0.054-0.349 0.119l-6.669 3.85c-0.314 0.183-0.666 0.244-1 0.199-0.335-0.046-0.654-0.199-0.901-0.444-0.725-0.698-1.488-1.349-2.283-1.948-0.793-0.597-1.629-1.15-2.502-1.655-0.86-0.497-1.757-0.945-2.682-1.338-0.909-0.387-1.852-0.721-2.824-1-0.342-0.098-0.626-0.302-0.826-0.567-0.203-0.268-0.319-0.602-0.319-0.951l-2e-3 -7.697c0-0.129-0.026-0.252-0.072-0.362-0.047-0.114-0.12-0.219-0.21-0.31-0.088-0.09-0.194-0.161-0.31-0.21-0.111-0.046-0.233-0.071-0.362-0.071h-9.444c-0.13 0-0.252 0.025-0.362 0.071-0.116 0.048-0.223 0.12-0.312 0.209-0.172 0.174-0.28 0.413-0.28 0.673v7.697c0 0.367-0.127 0.707-0.339 0.977-0.221 0.275-0.527 0.477-0.876 0.559zm1.664 11.078c-1.667 0.691-3.17 1.707-4.433 2.969-1.262 1.262-2.278 2.767-2.968 4.433-0.666 1.607-1.033 3.372-1.033 5.226 0 1.855 0.367 3.621 1.033 5.228 0.69 1.666 1.706 3.169 2.968 4.432 1.262 1.262 2.767 2.278 4.433 2.968 1.607 0.666 3.372 1.034 5.227 1.034 1.853 0 3.617-0.368 5.223-1.034 1.67-0.689 3.174-1.706 4.436-2.968 1.263-1.263 2.278-2.766 2.969-4.433 0.665-1.606 1.032-3.372 1.032-5.227 0-1.854-0.367-3.619-1.032-5.226-0.691-1.666-1.706-3.171-2.969-4.433-1.262-1.262-2.766-2.278-4.433-2.969-1.607-0.666-3.372-1.033-5.226-1.033-1.855 0-3.62 0.367-5.227 1.033zm-5.419 1.982c1.385-1.384 3.044-2.503 4.89-3.267 1.777-0.736 3.721-1.143 5.756-1.143 2.034 0 3.979 0.407 5.755 1.143 1.846 0.764 3.505 1.883 4.891 3.267 1.384 1.386 2.503 3.045 3.267 4.892 0.736 1.776 1.142 3.72 1.142 5.754 0 2.035-0.406 3.979-1.142 5.755-0.764 1.847-1.883 3.506-3.267 4.891-1.385 1.385-3.043 2.503-4.889 3.267-1.776 0.737-3.721 1.143-5.757 1.143-2.035 0-3.979-0.406-5.755-1.142-1.847-0.765-3.507-1.883-4.891-3.268-1.385-1.385-2.503-3.044-3.268-4.89-0.736-1.776-1.142-3.72-1.142-5.756 0-2.034 0.406-3.978 1.142-5.754 0.765-1.847 1.883-3.506 3.268-4.892z" fill="#A5B7D1"/>
<path d="m130.32 261.83c-0.886 0.256-1.725 0.616-2.505 1.066-0.799 0.463-1.537 1.02-2.197 1.657-0.129 0.124-0.321 0.142-0.468 0.056l-2.97-1.714-0.016-0.01c-0.17-0.092-0.364-0.109-0.541-0.062-0.183 0.049-0.347 0.167-0.448 0.342l-0.012 0.021-2.089 3.618c-0.101 0.174-0.121 0.376-0.071 0.559 0.048 0.183 0.166 0.346 0.341 0.448l0.02 0.011 2.945 1.7c0.155 0.09 0.226 0.269 0.186 0.433-0.108 0.439-0.192 0.89-0.248 1.351-0.055 0.45-0.083 0.909-0.083 1.377 0 0.467 0.028 0.926 0.083 1.376 0.056 0.461 0.14 0.912 0.248 1.35 0.045 0.183-0.045 0.366-0.207 0.445l-2.944 1.7v1e-3c-0.175 0.101-0.293 0.264-0.341 0.448-0.05 0.183-0.03 0.384 0.071 0.559l2.101 3.638c0.101 0.174 0.265 0.292 0.448 0.341s0.383 0.029 0.557-0.071l0.023-0.012 2.948-1.703c0.155-0.088 0.344-0.06 0.467 0.057 0.66 0.636 1.398 1.194 2.197 1.657 0.784 0.453 1.629 0.814 2.521 1.071 0.173 0.049 0.285 0.206 0.285 0.377v3.425c0 0.202 0.083 0.386 0.216 0.518 0.134 0.134 0.318 0.217 0.519 0.217h4.203c0.202 0 0.386-0.083 0.519-0.217 0.133-0.132 0.216-0.316 0.216-0.518v-3.425c0-0.186 0.129-0.341 0.302-0.382 0.885-0.256 1.725-0.616 2.504-1.066 0.8-0.463 1.538-1.021 2.198-1.657 0.135-0.129 0.338-0.143 0.488-0.044l2.949 1.702c0.174 0.1 0.375 0.12 0.558 0.071 0.182-0.049 0.347-0.167 0.447-0.341l0.013-0.02 2.089-3.62c0.1-0.174 0.12-0.375 0.071-0.558s-0.167-0.347-0.34-0.447l-2.967-1.713c-0.154-0.089-0.225-0.268-0.185-0.433 0.108-0.438 0.192-0.889 0.248-1.35 0.055-0.45 0.083-0.909 0.083-1.376 0-0.468-0.028-0.928-0.083-1.377-0.056-0.461-0.14-0.912-0.248-1.351-0.045-0.182 0.045-0.365 0.207-0.444l2.945-1.7c0.173-0.101 0.291-0.265 0.34-0.448 0.049-0.182 0.029-0.384-0.071-0.558l-0.012-0.022-2.089-3.618h-1e-3c-0.1-0.175-0.265-0.293-0.447-0.342-0.183-0.049-0.384-0.029-0.558 0.072l-2.969 1.714c-0.159 0.092-0.354 0.061-0.477-0.065-0.658-0.633-1.393-1.188-2.189-1.648-0.784-0.453-1.629-0.815-2.52-1.071-0.173-0.049-0.286-0.206-0.286-0.377v-3.425c0-0.202-0.083-0.385-0.216-0.519-0.133-0.133-0.317-0.216-0.519-0.216h-4.203c-0.201 0-0.385 0.083-0.519 0.216-0.133 0.134-0.216 0.317-0.216 0.519v3.425c0 0.186-0.128 0.341-0.301 0.382zm-1.381 6.334c1.157-1.156 2.754-1.872 4.519-1.872 1.764 0 3.362 0.716 4.518 1.872 1.157 1.156 1.872 2.754 1.872 4.519 0 1.763-0.715 3.362-1.872 4.518-1.156 1.156-2.753 1.871-4.518 1.871s-3.362-0.715-4.519-1.871c-1.156-1.156-1.871-2.755-1.871-4.518 0-1.765 0.715-3.363 1.871-4.519z" fill="#A5B7D1"/>
<path d="m263.03 173.88c0-0.605-0.491-1.096-1.096-1.096s-1.096 0.491-1.096 1.096v2.577h-2.577c-0.606 0-1.097 0.491-1.097 1.097 0 0.604 0.491 1.095 1.097 1.095h2.577v2.578c0 0.604 0.491 1.096 1.096 1.096s1.096-0.492 1.096-1.096v-2.578h2.577c0.605 0 1.096-0.491 1.096-1.095 0-0.606-0.491-1.097-1.096-1.097h-2.577v-2.577" fill="#A5B7D1"/>
<path d="m335.02 83.661c-0.886 0.256-1.725 0.616-2.505 1.066-0.8 0.463-1.537 1.02-2.198 1.656-0.128 0.124-0.32 0.143-0.467 0.057l-2.97-1.714-0.016-0.01c-0.17-0.092-0.364-0.11-0.542-0.062-0.182 0.049-0.346 0.167-0.446 0.342l-0.013 0.02-2.089 3.618c-0.101 0.175-0.121 0.376-0.072 0.56 0.049 0.182 0.167 0.346 0.342 0.447l0.02 0.013 2.945 1.699c0.155 0.089 0.226 0.268 0.185 0.434h1e-3c-0.108 0.438-0.192 0.888-0.248 1.35-0.055 0.449-0.083 0.908-0.083 1.376 0 0.467 0.028 0.927 0.083 1.377 0.056 0.461 0.14 0.911 0.248 1.35 0.045 0.182-0.045 0.365-0.208 0.445l-2.943 1.7v1e-3c-0.175 0.1-0.293 0.264-0.342 0.447s-0.029 0.385 0.072 0.559l2.101 3.639 1e-3 -1e-3c0.1 0.175 0.264 0.293 0.446 0.342 0.183 0.049 0.384 0.029 0.558-0.071l0.022-0.012 2.949-1.703c0.154-0.088 0.344-0.06 0.466 0.057 0.661 0.637 1.398 1.194 2.198 1.656 0.784 0.454 1.629 0.815 2.521 1.071 0.173 0.049 0.285 0.207 0.285 0.378v3.425c0 0.202 0.083 0.386 0.216 0.518 0.134 0.134 0.318 0.217 0.519 0.217h4.203c0.202 0 0.386-0.083 0.519-0.217 0.133-0.132 0.216-0.316 0.216-0.518v-3.425c0-0.185 0.129-0.341 0.302-0.383 0.885-0.255 1.725-0.615 2.504-1.066 0.8-0.462 1.537-1.019 2.198-1.656 0.134-0.13 0.338-0.144 0.487-0.044l2.95 1.702c0.173 0.1 0.375 0.12 0.558 0.071 0.182-0.049 0.346-0.166 0.447-0.342l0.013-0.02 2.089-3.619c0.1-0.175 0.12-0.375 0.071-0.558s-0.166-0.347-0.34-0.447l-2.967-1.713c-0.155-0.09-0.225-0.268-0.185-0.433 0.108-0.438 0.192-0.889 0.247-1.35 0.055-0.45 0.083-0.909 0.083-1.377s-0.028-0.927-0.083-1.377c-0.055-0.461-0.139-0.911-0.247-1.349-0.045-0.183 0.046-0.367 0.207-0.446l2.945-1.7c0.174-0.1 0.291-0.264 0.34-0.447s0.029-0.384-0.071-0.558l-0.012-0.022-2.089-3.618h-1e-3c-0.101-0.175-0.265-0.293-0.447-0.342-0.183-0.049-0.384-0.029-0.558 0.072l-2.969 1.714c-0.158 0.092-0.355 0.06-0.477-0.065-0.658-0.633-1.393-1.187-2.189-1.648-0.784-0.453-1.629-0.815-2.521-1.071-0.172-0.049-0.285-0.206-0.285-0.377v-3.426c0-0.201-0.083-0.385-0.216-0.518s-0.317-0.216-0.519-0.216h-4.203c-0.201 0-0.385 0.083-0.519 0.216-0.133 0.133-0.216 0.317-0.216 0.518v3.426c0 0.185-0.129 0.341-0.301 0.382zm-1.381 6.334c1.156-1.156 2.754-1.872 4.519-1.872 1.764 0 3.362 0.716 4.518 1.872 1.157 1.156 1.872 2.754 1.872 4.518 0 1.765-0.715 3.362-1.872 4.519-1.156 1.156-2.754 1.872-4.518 1.872-1.765 0-3.363-0.716-4.519-1.872-1.156-1.157-1.871-2.754-1.871-4.519 0-1.764 0.715-3.362 1.871-4.518z" fill="#A5B7D1"/>
<path d="m689.73 73.764c0-0.605-0.491-1.096-1.096-1.096-0.606 0-1.096 0.491-1.096 1.096v2.577h-2.577c-0.605 0-1.097 0.49-1.097 1.097 0 0.605 0.492 1.095 1.097 1.095h2.577v2.578c0 0.605 0.49 1.095 1.096 1.095 0.605 0 1.096-0.49 1.096-1.095v-2.578h2.578c0.604 0 1.095-0.49 1.095-1.095 0-0.607-0.491-1.097-1.095-1.097h-2.578v-2.577" fill="#A5B7D1"/>
<path d="m50.864 359.69c0-0.605-0.49-1.096-1.095-1.096-0.606 0-1.096 0.491-1.096 1.096v2.578h-2.577c-0.606 0-1.097 0.49-1.097 1.095 0 0.606 0.491 1.097 1.097 1.097h2.577v2.577c0 0.605 0.49 1.096 1.096 1.096 0.605 0 1.095-0.491 1.095-1.096v-2.577h2.578c0.605 0 1.096-0.491 1.096-1.097 0-0.605-0.491-1.095-1.096-1.095h-2.578v-2.578" fill="#A5B7D1"/>
<path d="m404.97 141.63c-0.886 0.256-1.726 0.617-2.505 1.067-0.8 0.462-1.537 1.02-2.198 1.656-0.128 0.125-0.32 0.143-0.467 0.057l-2.97-1.714-0.016-0.01c-0.171-0.092-0.364-0.109-0.542-0.062-0.182 0.049-0.345 0.167-0.447 0.341l-0.012 0.021-2.089 3.618c-0.101 0.175-0.121 0.376-0.072 0.56 0.049 0.182 0.167 0.346 0.342 0.447l0.02 0.013 2.946 1.699c0.153 0.089 0.224 0.268 0.183 0.433h2e-3c-0.109 0.438-0.192 0.889-0.249 1.35-0.054 0.45-0.082 0.91-0.082 1.377s0.028 0.927 0.082 1.377c0.057 0.461 0.14 0.912 0.249 1.35 0.044 0.182-0.045 0.365-0.208 0.445l-2.944 1.7h1e-3c-0.175 0.101-0.293 0.266-0.342 0.448-0.049 0.183-0.029 0.384 0.072 0.558l2.101 3.64v-1e-3c0.102 0.175 0.265 0.293 0.447 0.342 0.183 0.049 0.384 0.029 0.558-0.072l0.022-0.012 2.949-1.702c0.154-0.089 0.344-0.06 0.466 0.057 0.661 0.636 1.398 1.194 2.198 1.656 0.784 0.454 1.629 0.815 2.521 1.071 0.173 0.049 0.284 0.207 0.285 0.378v3.425c0 0.201 0.083 0.385 0.216 0.519 0.134 0.133 0.318 0.215 0.52 0.215h4.202c0.201 0 0.386-0.082 0.519-0.215 0.133-0.134 0.216-0.318 0.216-0.519v-3.425c0-0.186 0.129-0.342 0.302-0.383 0.886-0.255 1.726-0.615 2.505-1.066 0.8-0.462 1.537-1.02 2.196-1.656 0.135-0.13 0.339-0.144 0.488-0.045l2.95 1.702c0.174 0.101 0.375 0.121 0.558 0.072 0.182-0.049 0.346-0.167 0.447-0.342l0.012-0.02 2.09-3.62c0.101-0.174 0.12-0.375 0.071-0.557-0.049-0.183-0.167-0.347-0.34-0.448l-2.967-1.712c-0.155-0.089-0.225-0.268-0.185-0.433 0.109-0.438 0.192-0.889 0.247-1.35 0.055-0.45 0.083-0.909 0.083-1.377 0-0.467-0.028-0.927-0.083-1.377-0.055-0.461-0.138-0.912-0.247-1.35-0.045-0.182 0.045-0.365 0.207-0.445l2.945-1.7c0.173-0.1 0.291-0.264 0.34-0.447 0.049-0.184 0.03-0.384-0.071-0.558l-0.013-0.022-2.088-3.619c-0.102-0.174-0.266-0.292-0.448-0.341s-0.384-0.029-0.558 0.071l1e-3 1e-3 -2.971 1.714c-0.157 0.092-0.354 0.061-0.476-0.065-0.658-0.633-1.392-1.187-2.188-1.648-0.784-0.453-1.631-0.815-2.522-1.071-0.172-0.049-0.285-0.206-0.285-0.377v-3.426c0-0.201-0.083-0.385-0.216-0.518-0.133-0.134-0.318-0.216-0.519-0.216h-4.202c-0.202 0-0.386 0.082-0.52 0.216-0.133 0.133-0.216 0.317-0.216 0.518v3.426c0 0.185-0.129 0.341-0.301 0.381zm-1.381 6.335c1.157-1.156 2.755-1.872 4.519-1.872s3.362 0.716 4.519 1.872c1.155 1.156 1.871 2.754 1.871 4.518 0 1.765-0.716 3.362-1.871 4.519-1.157 1.156-2.755 1.872-4.519 1.872s-3.362-0.716-4.519-1.872c-1.156-1.157-1.871-2.754-1.871-4.519 0-1.764 0.715-3.362 1.871-4.518z" fill="#A5B7D1"/>
<path d="m360.39 144.28c0-0.605-0.491-1.096-1.096-1.096-0.606 0-1.096 0.491-1.096 1.096v2.577h-2.577c-0.605 0-1.096 0.491-1.096 1.096s0.491 1.097 1.096 1.097h2.577v2.577c0 0.605 0.49 1.096 1.096 1.096 0.605 0 1.096-0.491 1.096-1.096v-2.577h2.577c0.606 0 1.096-0.492 1.096-1.097s-0.49-1.096-1.096-1.096h-2.577v-2.577" fill="#A5B7D1"/>
<path d="m364.86 265.65c0-0.604-0.49-1.095-1.095-1.095-0.606 0-1.096 0.491-1.096 1.095v2.577h-2.578c-0.605 0-1.095 0.492-1.095 1.097 0 0.606 0.49 1.096 1.095 1.096h2.578v2.577c0 0.605 0.49 1.097 1.096 1.097 0.605 0 1.095-0.492 1.095-1.097v-2.577h2.578c0.605 0 1.096-0.49 1.096-1.096 0-0.605-0.491-1.097-1.096-1.097h-2.578v-2.577" fill="#A5B7D1"/>
<path d="m268.8 211.3c0-0.605-0.491-1.096-1.096-1.096s-1.096 0.491-1.096 1.096v2.577h-2.577c-0.605 0-1.097 0.491-1.097 1.097 0 0.605 0.492 1.096 1.097 1.096h2.577v2.577c0 0.605 0.491 1.096 1.096 1.096s1.096-0.491 1.096-1.096v-2.577h2.577c0.605 0 1.097-0.491 1.097-1.096 0-0.606-0.492-1.097-1.097-1.097h-2.577v-2.577" fill="#A5B7D1"/>
<path d="m633.14 204.81c0-0.605-0.491-1.096-1.096-1.096-0.606 0-1.097 0.491-1.097 1.096v2.577h-2.576c-0.605 0-1.097 0.49-1.097 1.096 0 0.605 0.492 1.096 1.097 1.096h2.576v2.577c0 0.605 0.491 1.096 1.097 1.096 0.605 0 1.096-0.491 1.096-1.096v-2.577h2.577c0.605 0 1.096-0.491 1.096-1.096 0-0.606-0.491-1.096-1.096-1.096h-2.577v-2.577" fill="#A5B7D1"/>
<path d="m472.38 285.65s6.529 2.164 11.679 8.417c2.912 3.536 38.546 71.805 40.835 76.248 2.288 4.446 2.284 15.68-3.116 22.594-2.095 2.686-8.121 10.201-14.706 18.391h-21.348c7.752-11.632 17.873-26.843 18.598-28.068 1.186-2.001 1.781-3.937-0.385-7.318-2.166-3.382-30.692-38.16-30.692-38.16s-14.023-39.204-0.865-52.104" fill="#151322"/>
<path d="m472.38 285.65s6.529 2.164 11.679 8.417c2.912 3.536 38.546 71.805 40.835 76.248 2.288 4.446 2.284 15.68-3.116 22.594-2.095 2.686-8.121 10.201-14.706 18.391h-21.348c7.752-11.632 17.873-26.843 18.598-28.068 1.186-2.001 1.781-3.937-0.385-7.318-2.166-3.382-30.692-38.16-30.692-38.16s-14.023-39.204-0.865-52.104z" stroke="#151323" stroke-width=".216"/>
<path d="m434.9 280.16s35.932 5.108 37.481 5.491c1.549 0.384 4.172 3.998 5.585 6.436 1.414 2.438 3.074 37.511 3.879 47.332 0.804 9.821-2.364 52.635-1.42 64.134 0.156 1.908 0.449 4.593 0.829 7.748h-107.48c-1.379-12.716-10.964-52.503-11.748-62.063-0.804-9.82-4.876-44.695-3.878-47.331 0.997-2.635 2.997-6.629 4.462-7.26 1.466-0.629 36.507-11.553 36.507-11.553l17.964 1.981 17.822-4.915" fill="#C0B9BA"/>
<path d="m434.9 280.16s2.381 0.34 5.94 0.848c-0.164 0.87-0.576 1.687-1.231 2.438-13.96 16-28.226 17.17-44.605 3.657-0.773-0.638-1.315-1.383-1.617-2.221 3.433-1.073 5.727-1.788 5.727-1.788l17.964 1.981 17.822-4.915" fill="#FFFFFE"/>
<path d="m428.61 245.55 0.307 8.945s1.496 18.253 1.724 21.025c0.109 1.339 1.66 3.159 4.253 4.64-11.747 13.464-22.003 14.305-35.786 2.933 2.319-1.884 3.552-3.931 3.443-5.271-0.227-2.771-1.724-21.025-1.724-21.025l-1.152-8.876s7.214 0.563 14.694 1.576c7.214-2.217 14.241-3.947 14.241-3.947" fill="#E05856"/>
<path d="m437.87 280.58s-4.154 17.955-4.463 21.609c-0.307 3.655-5.189 40.44-4.679 46.658 0.231 2.829 5.852 31.573 11.97 62.45h48.955c-1.2-7.526-2.231-14.015-2.785-17.679-1.989-13.174-3.323-40.555-2.888-57.465 0.434-16.91-3.769-42.286-4.269-44.695-0.501-2.408-5.299-5.418-6.786-5.977l-35.055-4.901" fill="#151322"/>
<path d="m432.51 309.88c-1.473 12.121-4.167 34.274-3.781 38.974 0 0 23.811-25.925 23.45-28.481-0.362-2.557-10.049-21.628-10.049-21.628s-4.162 4.786-9.62 11.135" fill="#363849"/>
<path d="m436.67 280.41s1.054-0.942 1.43-0.97431c0.377-0.029694 6.837 2.1563 6.837 2.1563s9.424 14.816 9.579 16.708-23.142 20.953-23.142 20.953l2.065-17.429s3.377-17.038 4.425-21.243l-1.194-0.171" fill="#4B525F"/>
<path d="m363.02 294.61s-6.09 3.199-10.152 10.207c-2.298 3.963-26.343 77.122-27.877 81.879-1.535 4.758 0.299 15.843 6.752 21.785 0.699 0.644 1.761 1.608 3.097 2.817h26.643c-7.057-7.568-13.446-14.438-14.092-15.206-1.496-1.782-2.397-3.596-0.811-7.285s24.069-42.648 24.069-42.648 7.453-40.964-7.629-51.549" fill="#151322"/>
<path d="m396.25 284s7.022 17.039 7.922 20.595c0.898 3.555 11.703 39.054 12.214 45.272 0.226 2.765-0.597 30.797-1.577 61.439h-48.429c-0.021-3.198-0.045-5.883-0.07-7.799-0.182-13.321-3.324-40.554-6.507-57.168-3.182-16.614-3.166-42.336-3.064-44.794 0.101-2.458 4.345-6.209 5.722-7.002l33.789-10.543" fill="#151322"/>
<path d="m406.31 312.02c3.425 11.72 9.69 33.139 10.076 37.838 0 0-27.715-21.702-27.775-24.283s6.394-22.975 6.394-22.975 4.885 4.044 11.305 9.42" fill="#363849"/>
<path d="m397.4 283.63s-1.192-0.76-1.568-0.729c-0.378 0.031-6.395 3.24-6.395 3.24s-6.887 16.152-6.731 18.044c0.154 1.893 26.244 16.906 26.244 16.906l-4.875-16.861s-6.105-16.259-7.824-20.238l1.149-0.362" fill="#4B525F"/>
<path d="m384.2 251c-0.18 0.041-0.357 0.088-0.532 0.142l-5e-3 2e-3v-1e-3c-3.22 0.988-5.451 4.094-5.199 7.597 0.295 4.072 3.834 7.135 7.904 6.841 4.072-0.294 7.135-3.832 6.841-7.903-0.169-2.367-1.437-4.392-3.267-5.616 0.386 2.157 0.286 4.877-2.464 5.4l-0.306-4.251c-0.124-1.721-1.798-2.365-2.972-2.211" fill="#E05856"/>
<path d="m437.33 246.16c0.185 9e-3 0.367 0.022 0.548 0.043l6e-3 1e-3v-1e-3c3.345 0.389 6.102 3.042 6.487 6.532 0.447 4.057-2.479 7.71-6.535 8.158-4.058 0.448-7.711-2.479-8.159-6.535-0.261-2.359 0.619-4.58 2.197-6.114 0.011 2.19 0.603 4.848 3.4 4.864l-0.467-4.236c-0.19-1.715 1.341-2.652 2.523-2.712" fill="#E05856"/>
<path d="m407.41 211.81-3e-3 1e-3c-13.857 1.264-24.165 13.639-22.9 27.5l2.09 22.922c1.264 13.861 13.641 24.166 27.499 22.903l3e-3 -1e-3c13.858-1.264 24.166-13.639 22.901-27.5l-2.09-22.923c-1.265-13.86-13.641-24.166-27.5-22.902" fill="#ED997A"/>
<path d="m386.07 228.03c-1.338 3.49-1.921 7.325-1.559 11.282l2.09 22.921c1.191 13.054 12.237 22.954 25.095 23.006-14.651-1.127-17.364-18.442-18.483-27.558-1.117-9.12 2.296-11.16 3.654-11.612 1.358-0.453 22.634-3.984 27.341-4.527 4.708-0.543 7.075 2.068 7.075 2.068l1.979-2.883-1.902-6.156s1.624 0.054 3.539 6e-3c-0.159-1.643-0.474-3.236-0.929-4.764-2.72-0.96-5.777-2.116-8.314-3.753-5.612-3.621-32.411 0.906-36.756 0.906-0.651 0-1.63 0.39-2.83 1.064" fill="#E77D69"/>
<path d="m433.34 246.88s0.153 1.684 0.297 3.249c0.142 1.564 1.753 3.176 2.953 3.066l-0.325-3.549s0.271-2.665 3.504-2.959c8.879-12.309 5.919-30.293-5.525-38.713-11.445-8.42-34.243-6.947-38.093-5.261-3.849 1.686-7.325 8.796-7.325 8.796s-3.645-2.701-6.631-0.852c-2.985 1.85-11.655 22.537-11.204 27.472 0.45 4.933 10.892 13.838 10.892 13.838 3.232-0.295 3.979 2.276 3.979 2.276l0.324 3.55c1.2-0.109 2.493-1.986 2.351-3.551-0.143-1.564-0.297-3.249-0.297-3.249 0.113-0.062 0.223-0.128 0.333-0.193 3.056-1.986 2.449-8.051 2.449-8.051l-2.816-3.94 5.59-7.353 6.431-2.116 14.612 0.56s17.23 2.142 15.721 7.156c-1.507 5.016 2.78 9.824 2.78 9.824" fill="#151323"/>
<path d="m371.64 233.79c-0.48 1.86-0.73 3.385-0.643 4.332 0.347 3.802 13.005 22.161 15.815 26.334 1.463-0.133 1.659-11.009 1.434-13.47 0.113-0.063 0.222-0.127 0.333-0.193 3.056-1.986 2.449-8.051 2.449-8.051l-2.816-3.94 5.59-7.354 6.135-2.018c-3.088-1.245-3.98-2.556-3.98-2.556-12.682 12.832-20.042 12.131-24.317 6.916zm61.706 13.083c0.175 1.93 1.467 10.554 3.716 10.349 6.703-14.12 12.893-28.858 2.907-43.324-1.175 9.309-10.448 14.987-19.734 16.941 4.913 1.07 11.273 3.08 10.331 6.21-1.507 5.016 2.78 9.824 2.78 9.824z" fill="#0D0B13"/>
<path d="m382.1 247.27s-10.601-22.984 10.724-26.914c0 0 5.645-11.144 16.953-8.349 11.31 2.794 18.388 2.716 23.46-2.281 0 0 2.909 5.474-0.623 10.26 10.705 8.306 6.987 18.956 2.607 24.704-1.755-11.912-33.136 1.348-37.238-10.102-0.409 10.941-11.879 8.219-15.883 12.682" fill="#151323"/>
<path d="m382.1 247.27s-2.115-4.588-2.554-10.013c4.122-0.392 9.469-3.352 16.415-10.381 0 0 2.837 4.17 15.935 4.708 7.955 0.327 18.069-2.617 23.771-8.751 6.816 7.766 3.447 16.748-0.446 21.857-1.755-11.912-33.135 1.348-37.239-10.102-0.408 10.941-11.878 8.219-15.882 12.682" fill="#0D0B13"/>
<path d="m690.29 249.75c-4.484-16.811-20.15-7.567-26.854 6.826-6.705 14.394-22.067 70.535-35.348 85.072-5.148 5.634-3.573 6.108 1.159 3.364 23.605-13.684 67.215-72.121 61.043-95.262" fill="#1F273C"/>
<path d="m624.91 346.02c-0.162 0.756 0.549 0.792 1.895 0.235 35.786-30.266 54.79-97.925 54.851-98.142 0.106-0.372-0.11-0.759-0.481-0.865-0.372-0.107-0.76 0.109-0.867 0.481-0.061 0.218-19.325 68.8-55.398 98.291" fill="#006CA1"/>
<path d="m650.63 258.71c-7.82-12.257-17.962-0.936-19.664 12.223-1.703 13.159 0.248 61.758-6.657 76.693-2.676 5.789-1.303 5.768 1.773 2.387 15.344-16.865 35.312-74.431 24.548-91.303" fill="#006CA1"/>
<path d="m622.89 351.92c0.061 0.644 0.636 0.491 1.567-0.293 20.856-33.15 18.895-91.843 18.889-92.031-9e-3 -0.323-0.28-0.578-0.602-0.56923-0.323 0.010231-0.577 0.28023-0.568 0.60323 6e-3 0.189 1.994 59.684-19.286 92.29" fill="#1F273C"/>
<path d="m689.4 300.42c13.515 1.409 8.294 14.621-1.991 21.548-10.285 6.925-51.719 25.621-61.313 37.637-3.719 4.659-4.276 3.501-2.737-0.484 7.678-19.876 47.439-60.641 66.041-58.701" fill="#006CA1"/>
<path d="m623.1 362.59c-0.563 0.217-0.676-0.327-0.411-1.433 18.984-31.295 68.858-54.202 69.017-54.277 0.274-0.126 0.599-8e-3 0.726 0.266s9e-3 0.599-0.265 0.727c-0.16 0.074-50.715 23.295-69.067 54.717" fill="#1F273C"/>
<path d="m496.39 283.54-3.356 29.487s5.072 69.057 7.567 98.279h37.659l0.827-117.53-42.697-10.235" fill="#151323"/>
<path d="m516.36 309.11-1.658 10.422 3.3 91.769h45.91c0.766-6.352 1.457-11.783 2.017-15.698 3.448-24.137 4.628-57.683 4.6131-65.623-0.016141-7.939-9.2111-19.721-12.372-20.584-3.16-0.861-41.81-0.286-41.81-0.286" fill="#151323"/>
<path d="m501.01 167.42s-1.568-2.918-2.806-2.371c-1.238 0.548-42.807 61.715-44.216 66.978-1.407 5.263-0.829 14.593 7.217 27.54 8.045 12.948 25.26 44.727 25.867 45.412 0.608 0.686 10.015-5.691 11.018-7.473 0 0 0.412-0.586-0.191-1.777-0.603-1.192-21.068-49.666-22.364-53.146-1.295-3.479 35.165-46.634 36.904-50.085 1.741-3.452 8.442-21.558-11.429-25.078" fill="#1B182A"/>
<path d="m534.32 149.9-18.103 12.931s-12.915 50.565-12.965 52.863c-0.051 2.298-4.995 30.182-4.995 30.182s18.103 7.183 20.689 0.287 31.61-56.321 33.046-64.08c1.437-7.758-2.012-26.149-3.736-28.16-1.724-2.012-13.936-4.023-13.936-4.023" fill="#BAB4BA"/>
<path d="m516.1 158.42s-16.395 5.769-17.903 6.631c-1.509 0.862-10.364 33.132-11.082 36.149-0.719 3.017 4.024 58.331 4.024 63.217s-6.178 65.947-6.323 66.953c-0.142 1.006 0.432 2.155 1.868 2.155 1.437 0 17.529-30.315 18.822-33.763 1.293-3.449-2.893-55.456-2.893-55.456l10.941-74.428 2.546-11.458" fill="#1B182A"/>
<path d="m564.77 166.6s23.499 23.685 24.361 25.122-23.562 82.327-23.849 86.062c-0.288 3.736 12.07 58.764 12.501 60.2 0 0 0.071 0.575-0.359 1.437-0.431 0.862-1.437 1.365-1.939 1.725-0.504 0.359-57.973-8.909-62.572-11.783-4.597-2.872-14.511-47.556-14.511-53.591 0-6.034 3.476-29.129 3.476-29.129l28.277-47.881s20.428-30.638 34.615-32.162" fill="#211E35"/>
<path d="m561.05 162.88s27.221 27.41 28.083 28.846c0.862 1.437-23.562 82.327-23.849 86.062-0.288 3.736 12.07 58.764 12.501 60.2 0 0 0.071 0.575-0.359 1.437-0.431 0.862-1.437 1.365-1.94 1.725-0.259 0.184-15.546-2.171-30.977-4.895 13.386-19.294 12.687-51.26 11.519-53.204-1.357-2.265-8.51-7.152-7.424-7.515 1.087-0.362 8.419-0.543 8.962-2.353 0.543-1.811 10.859-59.093 10.859-59.093l6.886-4.643s3.079-22.271 0.906-25.53c-2.165-3.246-16.503-15.583-16.62-15.683 1.782-0.875-0.202-5.175 1.453-5.354" fill="#181628"/>
<path d="m585.85 188.11s3.557 2.837 6.019 6.048 33.125 67.307 33.758 73.315c0.634 6.007-1.61 16.127-12.658 28.92-11.048 12.792-35.39 44.627-36.174 45.273s-9.986-7.962-10.777-10.088c0 0-0.351-0.712 0.515-1.913 0.867-1.202 31.652-50.763 33.672-54.35s-30.466-57.149-31.775-61.231c-1.311-4.081-4.953-25.549 17.42-25.974" fill="#37364F"/>
<path d="m551.52 127.4c0.166 8.958-2.157 18.211-1.57 27.182 0.12 1.83 0.996 2.438 3.254 3.905 3.127 4.653-5.425 19.368-11.049 20.244-0.372 0.057651-9.533-7.1263-16.022-8.7943-3.33-0.855-6.073 3.398-6.323 3.216-1.349-0.981 1.552-8.592 0.607-11.48 1.141-0.306 2.158-2.856 2.968-3.599 5.256-4.849 3.542-16.952-0.765-21.525-3.216-3.413 28.9-9.149 28.9-9.149" fill="#E77D69"/>
<path d="m557.45 162c-0.715 2.026-18.084 25.209-18.084 25.209s-0.621 0.833-1.529-0.223c-0.906-1.055-11.609-15.993-11.609-15.993l23.766-17.709-0.543-4.074c0.349-0.372 8.734 10.708 7.999 12.79" fill="#FFFFFE"/>
<path d="m525.6 154.46c6e-3 -0.012-0.026-0.035-0.091-0.04-8.124-0.573-9.355 22.445-7.927 26.957 0.01 0.029911 4.937-7.5331 8.334-10.542 1.537-1.36-3.272-11.761-0.316-16.375" fill="#FFFFFE"/>
<path d="m555.4 155.38s-30.387 37.67-32.543 40.83c-2.154 3.161-18.677 42.098-20.976 50.431 0 0 25.431-31.753 29.023-34.626 3.591-2.873 16.885-13.937 16.885-13.937s0.358-0.719 0.179-1.222c-0.179-0.502-3.878-8.871-3.878-8.871s11.063 1.652 12.068 1.58c1.006-0.071 5.973-24.754 6.116-25.473 0.145-0.718-6.874-8.712-6.874-8.712" fill="#37364F"/>
<path d="m525.66 154.4s-8.038 1.863-9.331 2.581c-1.292 0.719-11.494 17.672-11.781 19.109 0 0-0.144 0.683 0.43 0.97 0.576 0.288 2.695 1.616 2.911 1.832 0.214 0.215-3.557 0.646-3.557 0.646s-0.43 0.163-0.358 0.827-1.362 63.938-1.362 63.938 12.541-69.965 14.397-74.571c1.855-4.605 6.847-11.889 6.847-11.889l1.804-3.443" fill="#37364F"/>
<path d="m511.99 114.36c3.957-0.020897 7.184 3.1691 7.2061 7.1261 0.021887 3.958-3.1691 7.184-7.1271 7.2061-3.956 0.021887-7.182-3.1691-7.2051-7.1261-0.021887-3.957 3.1691-7.183 7.1261-7.2061" fill="#E05856"/>
<path d="m559.82 114.09c3.957-0.021887 7.183 3.1691 7.2051 7.1261 0.021887 3.957-3.1681 7.183-7.1261 7.2051-3.957 0.021887-7.183-3.1681-7.2051-7.1261-0.021887-3.956 3.1681-7.183 7.1261-7.2051" fill="#E05856"/>
<path d="m533.43 77.529h1e-3c13.499-0.081582 24.605 11.896 24.681 26.618l0.12437 24.326c0.073628 14.722-10.909 26.833-24.408 26.916-13.499 0.081581-24.606-11.896-24.682-26.617l-0.12438-24.327c-0.074618-14.722 10.908-26.834 24.408-26.916" fill="#ED997A"/>
<path d="m557.16 96.915c0.609 2.301 0.942 4.727 0.955 7.232l0.12438 24.326c0.068618 13.537-9.2124 24.866-21.203 26.666-1.177 0.123-1.933 0.198-2.096 0.215h-0.011c13.405-1.327 16.243-18.936 16.243-24.246v-13.789c0-13.029-7.211-14.39-12.145-14.39h-24.478c-3.163 0-4.302 2.91-4.302 2.91l-1.22-0.927-0.002387-0.467c-0.039613-7.796 3.0224-14.859 7.9154-19.792 12.29 2.401 32.728 6.484 34.137 7.365 0.766 0.478 3.268 2.53 6.083 4.897" fill="#E77D69"/>
<path d="m505.68 97.132 4.409 4.426s2.113-8.229 19.89-5.691c17.78 2.538-16.392-16.522-20.262-14.441s-7.242 8.2-4.037 15.706" fill="#0A0A0E"/>
<path d="m551.86 97.53s-17.496 1.919-26.4-3.735c-8.904-5.653-16.441-8.274-18.725-5.203-2.165 2.914 6.542 10.781 3.039 24.163-0.19 0.726-0.648 13.103-0.915 13.862-0.085-4.843-1.636-17.217-3.241-20.314-4.789-9.244-12.28-16.194-2.551-30.057 5.973-8.508 16.117-12.495 20.828-8.19 15.356 14.027 36.496-4.198 36.625 19.046 0 0 11.389 3.835 0.805 27.138-2.395 0.013-3.137 1.826-3.128 3.36l0.094 12.441c-8.552 1e-3 -8.726-22.42-6.431-32.511" fill="#151323"/>
<path d="m544.32 402.05h49.51c2.393 0 4.352-1.958 4.352-4.353v-85.117c0-2.393-1.959-4.352-4.352-4.352h-49.51c-2.393 0-4.351 1.959-4.351 4.352v85.117c0 2.394 1.958 4.353 4.351 4.353" fill="#D4D1D2"/>
<path d="m594.93 402.05h40.049c2.013 0 3.662-1.648 3.662-3.662v-86.498c0-2.014-1.649-3.662-3.662-3.662h-40.049c-2.014 0-3.662 1.649-3.662 3.662v86.498c0 2.013 1.647 3.662 3.662 3.662" fill="#FFFFFE"/>
<path d="m530.07 343.86h51.29c0-9.191 9.908-10.207 9.908-10.207h-51.29s-9.908 1.016-9.908 10.207" fill="#FFFFFE"/>
<path d="m539.97 386.95h53.08c1.576 0 2.865 1.29 2.865 2.865v18.622c0 1.575-1.289 2.865-2.865 2.865h-53.08c-1.577 0-2.866-1.289-2.866-2.865v-18.622c0-1.576 1.289-2.865 2.866-2.865" fill="#BC3062"/>
<path d="m591.38 386.95h11.657c0.263 3e-3 3.102 0.111 4.694 3.581 1.672 3.641 1.493 7.282 6.447 7.282h2.132c4.954 0 4.815-3.726 6.447-7.282 1.632-3.555 4.432-3.578 4.695-3.581h11.061c1.576 0 2.865 1.29 2.865 2.865v18.622c0 1.575-1.29 2.865-2.865 2.865h-47.133c-1.576 0-2.866-1.289-2.866-2.865v-18.622c0-1.576 1.29-2.865 2.866-2.865" fill="#DD3E7A"/>
<path d="m530.07 376h51.29c0-9.191 9.908-10.206 9.908-10.206h-51.29s-9.908 1.015-9.908 10.206" fill="#FFFFFE"/>
<path d="m646.98 360.68h-46.646c0-9.192-9.066-10.206-9.066-10.206h46.644s9.068 1.014 9.068 10.206" fill="#9B9DA7"/>
<path d="m598.69 318.42h35.753c0.868 0 1.577 0.709 1.577 1.576s-0.709 1.576-1.577 1.576h-35.753c-0.866 0-1.575-0.709-1.575-1.576s0.709-1.576 1.575-1.576" fill="#D4D1D2"/>
<path d="m598.69 335.79h35.753c0.868 0 1.577 0.709 1.577 1.576 0 0.866-0.709 1.576-1.577 1.576h-35.753c-0.866 0-1.575-0.709-1.575-1.576s0.709-1.576 1.575-1.576" fill="#D4D1D2"/>
<path d="m598.69 372.05h35.753c0.868 0 1.577 0.709 1.577 1.576s-0.709 1.576-1.577 1.576h-35.753c-0.866 0-1.575-0.709-1.575-1.576s0.709-1.576 1.575-1.576" fill="#D4D1D2"/>
<path d="m547.55 317.14h34.537c0.867 0 1.576 0.709 1.576 1.576s-0.709 1.576-1.576 1.576h-34.537c-0.867 0-1.576-0.709-1.576-1.576s0.708-1.576 1.576-1.576" fill="#9B9DA7"/>
<path d="m547.55 356.26h34.537c0.867 0 1.576 0.709 1.576 1.576v1e-3c0 0.866-0.709 1.575-1.576 1.575h-34.537c-0.867 0-1.576-0.709-1.576-1.575v-1e-3c0-0.867 0.708-1.576 1.576-1.576" fill="#9B9DA7"/>
<path d="m547.55 381.29h34.537c0.867 0 1.576 0.709 1.576 1.576s-0.709 1.576-1.576 1.576h-34.537c-0.867 0-1.576-0.709-1.576-1.576s0.708-1.576 1.576-1.576" fill="#9B9DA7"/>
<path d="m518.96 405.7h29.962c1.449 0 2.634-1.184 2.634-2.634v-51.51c0-1.449-1.185-2.634-2.634-2.634h-29.962c-1.448 0-2.634 1.185-2.634 2.634v51.51c0 1.45 1.186 2.634 2.634 2.634" fill="#D4D1D2"/>
<path d="m549.58 405.7h24.237c1.219 0 2.215-0.997 2.215-2.216v-52.346c0-1.218-0.997-2.216-2.215-2.216h-24.237c-1.219 0-2.216 0.998-2.216 2.216v52.346c0 1.219 0.997 2.216 2.216 2.216" fill="#FFFFFE"/>
<path d="m510.33 370.49h31.039c0-5.561 5.996-6.175 5.996-6.175h-31.04s-5.995 0.614-5.995 6.175" fill="#FFFFFE"/>
<path d="m516.32 396.56h32.123c0.954 0 1.735 0.78 1.735 1.734v11.268c0 0.954-0.781 1.735-1.735 1.735h-32.123c-0.953 0-1.733-0.781-1.733-1.735v-11.268c0-0.954 0.78-1.734 1.733-1.734" fill="#BC3062"/>
<path d="m547.43 396.56h7.054c0.158 1e-3 1.878 0.067 2.842 2.167 1.011 2.204 0.903 4.407 3.9 4.407h1.291c2.997 0 2.914-2.255 3.902-4.407 0.986-2.152 2.682-2.166 2.841-2.167h6.694c0.953 0 1.733 0.78 1.733 1.734v11.268c0 0.954-0.78 1.735-1.733 1.735h-28.524c-0.954 0-1.735-0.781-1.735-1.735v-11.268c0-0.954 0.781-1.734 1.735-1.734" fill="#DD3E7A"/>
<path d="m510.33 389.94h31.039c0-5.562 5.996-6.175 5.996-6.175h-31.04s-5.995 0.613-5.995 6.175" fill="#FFFFFE"/>
<path d="m581.08 380.67h-28.228c0-5.562-5.487-6.176-5.487-6.176h28.229s5.486 0.614 5.486 6.176" fill="#9B9DA7"/>
<path d="m551.85 355.09h21.636c0.526 0 0.954 0.429 0.954 0.954 0 0.524-0.428 0.954-0.954 0.954h-21.636c-0.524 0-0.954-0.43-0.954-0.954 0-0.525 0.43-0.954 0.954-0.954" fill="#D4D1D2"/>
<path d="m551.85 365.6h21.636c0.526 0 0.954 0.428 0.954 0.953 0 0.524-0.428 0.954-0.954 0.954h-21.636c-0.524 0-0.954-0.429-0.954-0.954 0-0.526 0.43-0.953 0.954-0.953" fill="#D4D1D2"/>
<path d="m551.85 387.55h21.636c0.526 0 0.954 0.43 0.954 0.954s-0.428 0.954-0.954 0.954h-21.636c-0.524 0-0.954-0.43-0.954-0.954s0.43-0.954 0.954-0.954" fill="#D4D1D2"/>
<path d="m520.91 354.32h20.901c0.524 0 0.953 0.43 0.953 0.954v1e-3c0 0.524-0.429 0.954-0.953 0.954h-20.901c-0.525 0-0.954-0.429-0.954-0.954v-1e-3c0-0.524 0.429-0.954 0.954-0.954" fill="#9B9DA7"/>
<path d="m520.91 377.99h20.901c0.524 0 0.953 0.43 0.953 0.953v1e-3c0 0.525-0.429 0.954-0.953 0.954h-20.901c-0.525 0-0.954-0.429-0.954-0.954v-1e-3c0-0.523 0.429-0.953 0.954-0.953" fill="#9B9DA7"/>
<path d="m520.91 393.14h20.901c0.524 0 0.953 0.429 0.953 0.954 0 0.524-0.429 0.954-0.953 0.954h-20.901c-0.525 0-0.954-0.43-0.954-0.954 0-0.525 0.429-0.954 0.954-0.954" fill="#9B9DA7"/>
<path d="m222.99 273.92-39.023-0.189-6e-3 2.332 39.023 0.188 6e-3 -2.331zm-39.999-2.148 40.979 0.195c0.54 0 0.978 0.438 0.978 0.977l-9e-3 4.287c0 0.541-0.438 0.979-0.979 0.979l-40.979-0.194c-0.54 1e-3 -0.977-0.438-0.978-0.978l0.01-4.287c0-0.54 0.438-0.978 0.978-0.979z" fill="#151323"/>
<path d="m184.12 273.33-52.85 60.224 1.752 1.538 52.85-60.224-1.752-1.538zm-54.968 59.67 54.141-61.693c0.355-0.407 0.973-0.449 1.38-0.094l3.223 2.828c0.406 0.355 0.448 0.973 0.093 1.38l-54.14 61.694c-0.355 0.407-0.973 0.449-1.38 0.093l-3.223-2.828c-0.407-0.355-0.448-0.973-0.094-1.38z" fill="#151323"/>
<path d="m183.54 269.56c2.989-0.38 5.721 1.735 6.1 4.725 0.38 2.989-1.737 5.721-4.726 6.1-2.989 0.38-5.721-1.737-6.1-4.726s1.737-5.721 4.726-6.099" fill="#37364F"/>
<path d="m168.46 404.24-37.16-70.986 2.065-1.081 37.161 70.986-2.066 1.081zm-39.348-70.948 38.068 72.72c0.249 0.479 0.84 0.665 1.319 0.416l3.798-1.988c0.479-0.25 0.665-0.84 0.416-1.32l-38.068-72.719c-0.249-0.479-0.839-0.665-1.318-0.416l-3.799 1.989c-0.479 0.249-0.665 0.84-0.416 1.318z" fill="#151323"/>
<path d="m167.01 407.76c2.815 1.073 5.968-0.339 7.042-3.155 1.073-2.816-0.339-5.968-3.155-7.043-2.815-1.073-5.968 0.339-7.042 3.155-1.073 2.816 0.339 5.969 3.155 7.043" fill="#37364F"/>
<path d="m132.23 328.03c2.989-0.38 5.72 1.737 6.1 4.726 0.379 2.989-1.737 5.721-4.726 6.1-2.99 0.379-5.721-1.736-6.1-4.726-0.379-2.989 1.736-5.72 4.726-6.1" fill="#37364F"/>
<path d="m119.94 416.93h76.054c3.79 0 6.891-3.102 6.891-6.892v-1e-3c0-3.79-3.101-6.891-6.891-6.891h-76.054c-3.791 0-6.892 3.101-6.892 6.891v1e-3c0 3.79 3.101 6.892 6.892 6.892" fill="#37364F"/>
<path d="m147.03 416.93h76.054c3.79 0 6.892-3.102 6.892-6.892v-1e-3c0-3.79-3.102-6.891-6.892-6.891h-76.054c-3.791 0-6.892 3.101-6.892 6.891v1e-3c0 3.79 3.101 6.892 6.892 6.892" fill="#151323"/>
<path d="m215.15 285.76h20.045c5.816 0 10.574-4.758 10.574-10.573h-41.192c0 5.815 4.757 10.573 10.573 10.573" fill="#FFFFFE"/>
<path d="m215.53 283.65h12.044c3.494 0 6.353-2.859 6.353-6.353h-24.75c0 3.494 2.859 6.353 6.353 6.353" fill="#C7E6E1"/>
<path d="m208.41 270.34h33.528c4.448 0 8.087 3.639 8.087 8.087h-49.702c0-4.448 3.638-8.087 8.087-8.087" fill="#37364F"/>
<path d="m208.41 270.34h15.331c4.447 0 8.087 3.639 8.087 8.087h-31.505c0-4.448 3.638-8.087 8.087-8.087" fill="#0A0A0E"/>
<path d="m613.09 119.91c-0.236 0.332-0.698 0.41-1.031 0.173-0.333-0.236-0.411-0.698-0.174-1.031 2.896-4.048 6.732-7.379 11.187-9.671 4.295-2.21 9.165-3.459 14.323-3.459 8.655 0 16.492 3.509 22.165 9.182 5.671 5.672 9.18 13.508 9.18 22.165 0 8.655-3.509 16.492-9.18 22.164-5.673 5.672-13.51 9.181-22.165 9.181-7.272 0-13.968-2.479-19.289-6.639-5.433-4.248-9.43-10.249-11.139-17.152-0.097-0.396 0.145-0.798 0.542-0.895 0.395-0.097 0.797 0.145 0.895 0.542 1.627 6.576 5.436 12.294 10.612 16.341 5.065 3.96 11.445 6.32 18.379 6.32 8.246 0 15.711-3.342 21.115-8.747 5.404-5.403 8.747-12.869 8.747-21.115 0-8.247-3.343-15.713-8.747-21.117-5.404-5.403-12.869-8.747-21.115-8.747-4.918 0-9.558 1.188-13.645 3.291-4.247 2.185-7.902 5.359-10.66 9.214" fill="#151323"/>
<path d="m645.94 131.55c1.765-6.533 5.068-9.075 5.41-9.324 0.201-0.161 0.488-0.189 0.723-0.051 2.666 1.583 4.226 3.535 5.04 5.441 1.131 2.645 0.812 5.225 0.018 6.64l-12.855 22.264c-0.812 1.407-2.901 2.999-5.784 3.346-2.049 0.247-4.512-0.125-7.207-1.633-0.223-0.114-0.367-0.354-0.346-0.618 0-0.012 0.339-4.324 5.354-9.369 0.198-0.219 0.528-0.278 0.792-0.123 0.013 6e-3 4.246 2.45 5.545 0.263l6.596-11.427c1.23-2.129-2.624-4.477-2.964-4.679-0.259-0.135-0.4-0.436-0.322-0.73zm5.855-8.049c-0.83 0.721-3.078 3.032-4.496 7.929 1.23 0.82 4.621 3.413 3.03 6.168l-6.616 11.453c-1.609 2.677-5.505 1.057-6.823 0.407-3.539 3.684-4.413 6.79-4.619 7.858 2.285 1.195 4.351 1.49 6.072 1.283 2.445-0.295 4.177-1.583 4.831-2.715l12.848-22.253c0.641-1.142 0.877-3.271-0.082-5.517-0.68-1.592-1.968-3.232-4.145-4.613z" fill="#151323"/>
<text fill="#151323" font-family="LucidaGrande, Lucida Grande" font-size="24.526" letter-spacing="-1e-4"><tspan x="611.726" y="137.176476">24</tspan></text>
<path d="m438.76 85.647h42.701c3.66 0 6.654 2.995 6.654 6.654v37.195c0 0.307-0.175 0.568-0.458 0.686s-0.593 0.056-0.809-0.161l-11.34-11.339h-36.748c-3.66 0-6.654-2.994-6.654-6.654v-19.727c0-3.66 2.994-6.654 6.654-6.654" fill="#A5B7D1"/>
<path d="m476.42 83.08h-42.702c-1.586 0-3.031 0.65-4.077 1.697-1.047 1.047-1.698 2.491-1.698 4.078v19.726c0 1.587 0.651 3.031 1.698 4.078 1.046 1.047 2.491 1.697 4.077 1.697h37.113l11.363 11.365v-36.866c0-1.587-0.649-3.031-1.696-4.078-1.048-1.047-2.491-1.697-4.078-1.697zm-42.702-1.759h42.702c2.072 0 3.956 0.848 5.321 2.213 1.364 1.365 2.212 3.249 2.212 5.321v37.194c0 0.328-0.098 0.639-0.274 0.902-0.174 0.262-0.423 0.47-0.727 0.596h-3e-3c-0.306 0.12623-0.628 0.157-0.931 0.096-0.312-0.061-0.6-0.212-0.834-0.446l-11.081-11.082h-36.385c-2.073 0-3.955-0.848-5.322-2.212-1.364-1.365-2.21-3.249-2.21-5.322v-19.726c0-2.073 0.846-3.957 2.21-5.321 1.367-1.365 3.249-2.213 5.322-2.213z" fill="#FFFFFE"/>
<path d="m433.36 88.676c-0.265 0-0.481-0.215-0.481-0.481 0-0.265 0.216-0.481 0.481-0.481h43.411c0.266 0 0.482 0.216 0.482 0.481 0 0.266-0.216 0.481-0.482 0.481h-43.411" fill="#FFFFFE"/>
<path d="m444.08 93.368c-0.266 0-0.481-0.216-0.481-0.482 0-0.265 0.215-0.48 0.481-0.48h32.69c0.266 0 0.482 0.215 0.482 0.48 0 0.266-0.216 0.482-0.482 0.482h-32.69zm-10.721 0c-0.265 0-0.481-0.216-0.481-0.482 0-0.265 0.216-0.48 0.481-0.48h4.599c0.266 0 0.48 0.215 0.48 0.48 0 0.266-0.214 0.482-0.48 0.482h-4.599z" fill="#FFFFFE"/>
<path d="m433.36 98.059c-0.265 0-0.481-0.215-0.481-0.481s0.216-0.481 0.481-0.481h43.411c0.266 0 0.482 0.215 0.482 0.481s-0.216 0.481-0.482 0.481h-43.411" fill="#FFFFFE"/>
<path d="m445.44 104.42c-0.265 0-0.481-0.216-0.481-0.481 0-0.266 0.216-0.481 0.481-0.481h31.338c0.266 0 0.482 0.215 0.482 0.481 0 0.265-0.216 0.481-0.482 0.481h-31.338" fill="#FFFFFE"/>
<path d="m459.43 109.51c-0.265 0-0.481-0.216-0.481-0.482 0-0.265 0.216-0.48 0.481-0.48h17.344c0.266 0 0.482 0.215 0.482 0.48 0 0.266-0.216 0.482-0.482 0.482h-17.344" fill="#FFFFFE"/>
<path d="m449.49 109.51c-0.265 0-0.481-0.216-0.481-0.482 0-0.265 0.216-0.48 0.481-0.48h6.201c0.266 0 0.482 0.215 0.482 0.48 0 0.266-0.216 0.482-0.482 0.482h-6.201" fill="#FFFFFE"/>
<path d="m685.26 416.28c0-0.605-0.491-1.095-1.097-1.095-0.605 0-1.096 0.49-1.096 1.095v2.577h-2.576c-0.606 0-1.097 0.492-1.097 1.097s0.491 1.095 1.097 1.095h2.576v2.578c0 0.605 0.491 1.096 1.096 1.096 0.606 0 1.097-0.491 1.097-1.096v-2.578h2.577c0.605 0 1.096-0.49 1.096-1.095s-0.491-1.097-1.096-1.097h-2.577v-2.577" fill="#A5B7D1"/>
<path d="m257.38 398.93h-37.131c-1.527 0-2.915 0.624-3.92 1.629-1.006 1.006-1.63 2.394-1.63 3.92 0 1.528 0.624 2.916 1.63 3.92 1.005 1.006 2.393 1.63 3.92 1.63h37.131c1.527 0 2.915-0.624 3.92-1.63 1.006-1.004 1.63-2.392 1.63-3.92 0-1.526-0.624-2.914-1.63-3.92-1.005-1.005-2.393-1.629-3.92-1.629" fill="#006CA1"/>
<path d="m174.32 399.58h47.484c2.696 0 4.903 2.206 4.903 4.902 0 2.698-2.207 4.905-4.903 4.905h-47.484v-9.807" fill="#FFFFFE"/>
<path d="m174.32 398.93c-0.357 0-0.647 0.29-0.647 0.647s0.29 0.646 0.647 0.646h47.484c1.17 0 2.234 0.479 3.005 1.251 0.772 0.772 1.251 1.835 1.251 3.005 0 1.171-0.479 2.236-1.251 3.007-0.771 0.772-1.835 1.25-3.005 1.25h-47.484c-0.357 0-0.647 0.29-0.647 0.648 0 0.356 0.29 0.645 0.647 0.645h47.484c1.526 0 2.914-0.624 3.92-1.63 1.005-1.004 1.63-2.392 1.63-3.92 0-1.526-0.625-2.914-1.63-3.92-1.006-1.005-2.394-1.629-3.92-1.629h-47.484" fill="#26446F"/>
<path d="m255.67 404.48c0-1.526-0.624-2.914-1.63-3.92-1.005-1.005-2.394-1.629-3.92-1.629h4.827c1.527 0 2.915 0.624 3.92 1.629 1.006 1.006 1.631 2.394 1.631 3.92 0 1.528-0.625 2.916-1.631 3.92-1.005 1.006-2.393 1.63-3.92 1.63h-4.827c1.526 0 2.915-0.624 3.92-1.63 1.006-1.004 1.63-2.392 1.63-3.92" fill="#26446F"/>
<path d="m248.68 404.48c0-1.526-0.625-2.914-1.63-3.92-1.005-1.005-2.393-1.629-3.921-1.629h4.828c1.527 0 2.915 0.624 3.921 1.629 1.005 1.006 1.629 2.394 1.629 3.92 0 1.528-0.624 2.916-1.629 3.92-1.006 1.006-2.394 1.63-3.921 1.63h-4.828c1.528 0 2.916-0.624 3.921-1.63 1.005-1.004 1.63-2.392 1.63-3.92" fill="#26446F"/>
<path d="m184.08 389.21h32.515c1.337 0 2.551 0.547 3.432 1.428 0.881 0.879 1.427 2.095 1.427 3.432s-0.546 2.552-1.427 3.433-2.095 1.427-3.432 1.427h-32.515c-1.337 0-2.552-0.546-3.432-1.427-0.881-0.881-1.428-2.096-1.428-3.433s0.547-2.553 1.428-3.432c0.88-0.881 2.095-1.428 3.432-1.428" fill="#DD3E7A"/>
<path d="m256.81 389.78h-41.58c-2.36 0-4.293 1.932-4.293 4.294 0 2.363 1.933 4.294 4.293 4.294h41.58v-8.588" fill="#FFFFFE"/>
<path d="m256.81 389.21c0.312 0 0.566 0.254 0.566 0.566 0 0.313-0.254 0.567-0.566 0.567h-41.58c-1.024 0-1.956 0.419-2.631 1.094-0.676 0.676-1.096 1.609-1.096 2.633 0 1.025 0.42 1.957 1.096 2.633 0.675 0.675 1.607 1.095 2.631 1.095h41.58c0.312 0 0.566 0.254 0.566 0.566 0 0.313-0.254 0.566-0.566 0.566h-41.58c-1.337 0-2.552-0.546-3.432-1.427-0.881-0.881-1.428-2.096-1.428-3.433s0.547-2.553 1.428-3.432c0.88-0.881 2.095-1.428 3.432-1.428h41.58" fill="#BC3062"/>
<path d="m185.58 394.07c0-1.337 0.546-2.553 1.427-3.432 0.881-0.881 2.096-1.428 3.433-1.428h-4.228c-1.336 0-2.552 0.547-3.432 1.428-0.881 0.879-1.428 2.095-1.428 3.432s0.547 2.552 1.428 3.433c0.88 0.881 2.096 1.427 3.432 1.427h4.228c-1.337 0-2.552-0.546-3.433-1.427s-1.427-2.096-1.427-3.433" fill="#BC3062"/>
<path d="m191.71 394.07c0-1.337 0.547-2.553 1.427-3.432 0.881-0.881 2.096-1.428 3.433-1.428h-4.227c-1.337 0-2.552 0.547-3.433 1.428-0.88 0.879-1.427 2.095-1.427 3.432s0.547 2.552 1.427 3.433c0.881 0.881 2.096 1.427 3.433 1.427h4.227c-1.337 0-2.552-0.546-3.433-1.427-0.88-0.881-1.427-2.096-1.427-3.433" fill="#BC3062"/>
<path d="m477.68 411.3h-159.69c-2.789 0-5.208-2.282-5.375-5.073-0.167-2.79 1.979-5.071 4.768-5.071h159.69c2.789 0 5.208 2.281 5.375 5.071 0.167 2.791-1.978 5.073-4.767 5.073" fill="#9899A3"/>
<path d="m477.68 411.3h-159.69c-1.807 0-3.459-0.958-4.444-2.392 0.813-1.432 2.351-2.39 4.157-2.39h159.69c1.806 0 3.458 0.958 4.443 2.39-0.813 1.434-2.35 2.392-4.156 2.392" fill="#878790"/>
<path d="m481.01 401.16h-127.73c-3.65 0-6.447-2.986-6.216-6.636l5.229-82.732c0.231-3.649 3.405-6.635 7.055-6.635h127.73c3.65 0 6.447 2.986 6.216 6.635l-5.229 82.732c-0.23 3.65-3.404 6.636-7.054 6.636" fill="#878790"/>
<path d="m481.01 401.16h-123.96c-3.65 0-6.447-2.986-6.216-6.636l5.229-82.732c0.23-3.649 3.405-6.635 7.054-6.635h123.96c3.649 0 6.445 2.986 6.215 6.635l-5.229 82.732c-0.23 3.65-3.404 6.636-7.053 6.636" fill="#FFFFFE"/>
<path d="m371.9 305.16 115.35 92.195c0.461-0.86 0.751-1.818 0.814-2.828l0.814-12.865-95.718-76.502h-21.26zm102.36 96.003h-12.756l-105.74-84.516 0.307-4.852c0.092-1.449 0.648-2.794 1.514-3.888l116.68 93.256z" fill="#E8E3E0"/>
<path d="m347 411.3h-29.021c-2.79 0-5.209-2.282-5.376-5.073-0.167-2.79 1.979-5.071 4.768-5.071h29.022c2.79 0 5.208 2.281 5.375 5.071 0.167 2.791-1.978 5.073-4.768 5.073" fill="#FFFFFE"/>
<path d="m479.76 403.69h-132.88c-1.394 0-2.603-1.14-2.687-2.535v-1e-3c-0.083-1.395 0.989-2.536 2.383-2.536h132.88c1.395 0 2.605 1.141 2.688 2.536v1e-3c0.083 1.395-0.99 2.535-2.384 2.535" fill="#C4BEBF"/>
<path d="m328.53 298.65c-0.98-4.875-0.735-7.604 0.203-12.23l-20.94-1.768 29.146-12.773s6.185-7.59 9.1-15.044c2.916-7.455-4.991-26.411-7.963-31.115-2.972-4.702-9.145-3.999-13.211-1.454 0 0-6.105-9.2-13.393-9.815s-30.453 1.52-37.182 18.52 4.097 33.992-6.74 51.48c0 0-0.954 2.212 0.452 4.075 1.407 1.865 18.494 21.778 57.437 13.754 0 0 3.103-0.72 3.091-3.63" fill="#151323"/>
<path d="m301.08 303.86c2.145-23.417 3.657-43.77 3.657-43.77l-1.987-6.599s-17.932 14.493-30.664-0.755c0.605 10.461 2.1 20.995-4.542 31.713 0 0-0.954 2.212 0.452 4.075l0.057 0.076 0.021 0.025 0.049 0.063 0.052 0.063 0.031 0.04 0.092 0.11 6e-3 6e-3 0.11 0.131 0.032 0.037 0.092 0.106 0.078 0.09 0.06 0.066 0.134 0.15 0.018 0.018 0.164 0.179 0.037 0.04 0.143 0.151 0.099 0.106 0.093 0.095 0.067 0.069 0.14 0.142 0.22 0.222 0.153 0.148 0.115 0.115c3.726 3.604 12.405 10.27 27.028 12.584l0.043 6e-3c1.268 0.201 2.581 0.368 3.939 0.497l0.011 1e-3" fill="#0D0B13"/>
<path d="m328.53 298.65c-1.331-6.624-0.4-9.287 1.456-18.136l-33.323-5.244-14.562 2.822s-1.272 8.159-5.078 18.031c8.865 5.488 24.527 11.079 48.416 6.157 0 0 3.103-0.72 3.091-3.63" fill="#0D0B13"/>
<path d="m284.32 300.09c9.221 2.893 21.827 6.351 32.696 11.694 0.751 0.37-0.78 3.263-0.083 3.65 1.062 0.588 2.829 1.958 4.769 3.877 5.077 5.02 15.407 44.309 14.485 48.223-1.484 6.297-14.535 23.596-14.535 23.596-2.592 5.006-5.805 12.297-8.961 20.176h-64.822c4.515-14.677 6.196-24.619 6.315-33.58h1e-3c3.461-30.463-12.918-37.09-12.918-37.09l16.964-39.919c6.599-2.337 19.76-1.458 19.76-1.458 3.479-3e-3 3.214-0.147 6.329 0.831" fill="#DD3E7A"/>
<path d="m312.69 411.3h-9.149c1.705-4.563 9.636-26.14 11.332-30.745-7.71-1.342-18.324-3.182-20.195-3.627-1.871-0.447-9.037 3.649-9.037 3.649l0.796-4.657-7.694 7.748 13.155-24.566s21.466 4.848 26.027 5.679c4.56 0.83 1.779 0.198 2.627 0.131 2.536-7.135-1.617-9.131-1.124-12.584s0.639-36.943 0.639-36.943c2.774 1.437 4.027 4.561 5.597 9.49 1.032 3.243 6.513 24.558 8.782 37.165 0.54 2.999 0.967 5.243 1.237 7.033-5.086 12.967-16.504 26.023-22.993 42.227" fill="#BC3062"/>
<path d="m300.32 263.29-3.245 9.75s-4.909 23.008-6.044 25.992c-0.395 1.035-1.693 1.352-3.689 1.304 2.872 4.113 8.45 10.388 16.513 11.916 5.149 0.976 8.749 0.015 11.194-1.427-1.721-0.909-3.368-1.989-3.361-2.876 0.07-7.852 1.419-21.672 5.675-24.227 4.873-2.927-17.043-20.432-17.043-20.432" fill="#E05856"/>
<path d="m288.96 300.27c-1.156 0.153-2.733 0.044-4.646-0.181 1.984 2.859 5.185 6.071 10.321 9.325 12.714 8.056 18.836 3.666 20.772 1.596-1.189-0.61-2.396-1.313-3.099-1.989-11.865 5.797-23.347-8.751-23.347-8.751h-1e-3" fill="#FFFFFE"/>
<path d="m316.5 311.53s5.07 51.026 4.454 55.335c-0.616 4.311-8.676 25.543-15.742 44.436h12.149c2.4-4.624 4.234-8.235 4.567-9.105 0.217-0.562 1.056-2.194 2.211-4.332 2.076-3.844 5.177-9.324 7.514-13.161 7.449-12.228 7.429-9.373 4.851-23.697-2.269-12.607-9.232-35.934-10.265-39.177-1.569-4.93-8.424-10.658-9.739-10.299" fill="#211E35"/>
<path d="m315.78 382.55c-1.671 4.668-3.613 9.984-5.627 15.441 3.694 0.32 6.644 0.69 7.689 1.1 3.694 1.451 4.08 3.106 4.08 3.106 0.216-0.562 1.055-2.194 2.21-4.332 2.077-3.844 5.177-9.324 7.514-13.161 2.241-3.679 3.804-5.991 4.827-7.817-1.434 1.258-3.719 3.157-4.832 3.494-1.345 0.408-11.699 1.671-15.861 2.169" fill="#151323"/>
<path d="m282.41 299s9.303 45.068 10.578 58.169c1.276 13.1-2.822 22.477-7.431 32.32-1.554 3.318-6.536 11.785-12.672 21.813h-28.644l3.064-70.795-8.214-1.903c0.488-3.557 0.887-6.502 1.16-8.566l16.173-28.594s6.096-4.945 25.986-2.444" fill="#211E35"/>
<path d="m264.99 320.69c-4.57 18.353-1.397 25.964-1.397 25.964l2.448-11.42s2.315 16.857 4.891 19.006c1.279 1.068 16.505 3.987 22.211 5.051 0.394 7.151-0.829 13.196-2.804 18.882-4.095 0.421-28.733-3.05-29.91 4.91-0.587 3.97-0.455-8.803-0.455-8.803l-1.458 37.02h-14.281l3.064-70.795-8.214-1.903 0.022-0.167 0.046-0.33 0.022-0.164 0.023-0.162 0.022-0.162 0.044-0.32 0.022-0.159 0.021-0.158 0.021-0.157h1e-3l0.021-0.156 0.021-0.155 0.021-0.154v-1e-3l0.042-0.304 0.02-0.151 0.021-0.15 0.02-0.15 0.04-0.294h1e-3l0.019-0.147 0.02-0.144v-1e-3l0.02-0.144 0.019-0.143 0.038-0.282v-1e-3l0.038-0.278 0.019-0.137 0.018-0.137 0.019-0.135 0.018-0.134v-1e-3l0.018-0.133 0.018-0.132 0.017-0.131v-1e-3l0.018-0.128v-1e-3l0.017-0.128v-1e-3l0.018-0.127 0.017-0.127 0.016-0.125 0.017-0.124 0.017-0.123v-1e-3l0.017-0.121 0.016-0.12v-1e-3l0.016-0.12 0.016-0.118v-1e-3l0.015-0.117 0.016-0.115 0.015-0.115 0.015-0.114v-1e-3l0.016-0.111 0.015-0.111v-1e-3l0.014-0.11 0.014-0.108v-1e-3l0.015-0.106 0.014-0.107 0.014-0.104v-1e-3l0.014-0.103v-1e-3l0.013-0.101v-1e-3l0.014-0.101v-1e-3l0.013-0.099v-1e-3l0.013-0.097v-1e-3l0.013-0.097 8.758-15.483 15.987 6.137" fill="#151323"/>
<path d="m242.34 321.44c-5.244 14.33-6.671 63.475-2.35 89.859h23.01c-9.411-52.372 10.355-89.833 6.012-103.1-6.952-21.246-23.224 3.828-26.672 13.246" fill="#37364F"/>
<path d="m334.37 273 2.565-1.124s4.338-5.324 7.461-11.434c-0.61 1.163-4.651 8.228-10.567 3.91-6.432-4.698-6.691 2.741-6.691 2.741s3.891 4.42 6.151 5.453c0.292 0.134 0.66 0.288 1.081 0.454z" fill="#0D0B13"/>
<path d="m331.64 268.73c-4.029-0.416-7.633 2.511-8.051 6.541-0.417 4.029 2.511 7.633 6.539 8.05 4.03 0.417 7.635-2.51 8.052-6.54 0.418-4.028-2.511-7.634-6.54-8.051" fill="#E05856"/>
<path d="m280.56 263.52c-0.183 9e-3 -0.364 0.025-0.544 0.046l-5e-3 1e-3c-3.318 0.408-6.035 3.059-6.394 6.525-0.417 4.029 2.512 7.635 6.54 8.052 4.03 0.416 7.635-2.512 8.052-6.541 0.243-2.341-0.644-4.54-2.221-6.051 3e-3 2.173-0.565 4.814-3.341 4.849l0.435-4.207c0.176-1.703-1.349-2.623-2.522-2.674" fill="#E05856"/>
<path d="m312.14 229.42c-13.745-1.423-26.154 8.657-27.578 22.401l-2.352 22.711c-1.423 13.744 8.657 26.154 22.402 27.577 13.744 1.423 26.154-8.656 27.577-22.401l2.352-22.711c1.424-13.745-8.657-26.154-22.401-27.577" fill="#ED997A"/>
<path d="m284.15 255.8-1.94 18.728c-1.192 11.507 5.681 22.075 16.014 26.048-14.622-6.058-7.126-31.473-7.126-31.473 2.961-0.504 7.631-6.023 10.346-9.235 2.714-3.211 4.816-6.452 9.501-6.357 4.685 0.094 14.585 2.554 14.585 2.554 2.07 4.894 5.877 8.454 8.051 10.199l0.96-9.27c0.287-2.769 0.106-5.483-0.476-8.065-0.606-0.356-1.228-0.716-1.885-1.086-20.122-11.313-37.2-2.161-48.03 7.957" fill="#E77D69"/>
<path d="m330.8 249.89-4.064 1.726s-3.783-2.33-8.192-1.318c0 0-8.921-3.279-13.648-1.452-4.726 1.827-1.946-4.737-1.08-5.025 0.867-0.287 9.82-0.855 13.727-0.104 3.908 0.751 9.787 1.668 9.787 1.668l3.47 4.505" fill="#0D0B13"/>
<path d="m283.29 262.31 2.408 0.423s1.672 7.613-3.054 7.672l0.435-4.207c0.03-0.293 0.01-0.561-0.049-0.806l0.26-3.082" fill="#0D0B13"/>
<path d="m318.55 250.3c-3.672-4.955-9.673-5.968-14.339 0.991-4.261 6.358-10.592 17.36-21.245 16.462l-0.053-0.195 0.026 3e-3 0.599-7.099s-0.897 0.234-1.986 0.49c-0.569-3.709-0.965-8.412-0.368-12.722 1.234-8.921 13.645-21.952 27.646-22.454 14-0.502 24.128 7.812 26.134 12.554 2.007 4.742 3.986 15.498 3.986 15.498l-2.463 3.523-2.654 7.003c-6.44-6.265-5.779-12.19-8.578-15.175-1.515-1.616-3.782-1.621-6.705 1.121" fill="#151323"/>
<path d="m302.75 253.49c-4.225 6.393-10.287 15.06-19.789 14.259l-0.053-0.195 0.026 3e-3 0.599-7.099s-0.897 0.234-1.986 0.49c-0.094-0.613-0.183-1.255-0.264-1.918 10.73 3.115 21.432-5.512 21.467-5.54" fill="#0D0B13"/>
<path d="m313.79 310.11s6.538 53.631 6.408 55.372c-0.129 1.742-1.866 10.128-1.866 10.128s3.156-5.291 3.93-9.676c0.774-4.386 2.838-34.054 2.838-34.054l-3.482-1.87 3.225-0.194-5.323-16.661s-0.61-1.237-1.449-1.72c-0.838-0.485-3.893-2.017-3.942-2.04-0.048-0.025-0.814-0.108-1.195 0.144 0 0 0.633 0.432 0.856 0.571" fill="#41465C"/>
<path d="m282.41 299s9.303 45.068 10.578 58.169c0.523 5.37 0.143 10.114-0.806 14.522 1.714-13.401-17.145-44.933-17.145-44.933l4.902-2.322-6.579-2.967s3.032-16.962 3.225-19.799c0.188-2.759-1.274-3.272-1.356-3.299 2.165 0.099 4.551 0.299 7.181 0.629" fill="#41465C"/>
<path d="m70.252 410.03c2.587 0 4.685 2.098 4.685 4.686 0 2.586-2.098 4.684-4.685 4.684s-4.685-2.098-4.685-4.684c0-2.588 2.098-4.686 4.685-4.686zm26.031 21.173h8.144c3.246 0 5.903-2.655 5.903-5.901s-2.657-5.903-5.903-5.903h-21.516c-2.574 0-4.685-2.107-4.685-4.683 0-2.577 2.109-4.686 4.685-4.686h568.42c2.576 0 4.685 2.109 4.685 4.686 0 2.576-2.112 4.683-4.685 4.683h-29.507c-3.247 0-5.902 2.657-5.902 5.903s2.655 5.901 5.902 5.901h6.915c5.154 0 9.368 4.217 9.368 9.369 0 5.154-4.218 9.369-9.368 9.369h-532.45c-5.148 0-9.369-4.215-9.369-9.369 0-5.152 4.216-9.369 9.369-9.369z" fill="#0A0A0E"/>
<path d="m344.53 166.24h42.7c1.588 0 3.032 0.651 4.079 1.698 1.046 1.047 1.697 2.491 1.697 4.078v19.726c0 1.588-0.651 3.031-1.697 4.078-1.047 1.047-2.491 1.697-4.079 1.697h-37.112l-11.363 11.364v-36.865c0-1.587 0.65-3.031 1.697-4.078s2.491-1.698 4.078-1.698zm42.7-1.758h-42.7c-2.072 0-3.957 0.847-5.321 2.212-1.366 1.366-2.213 3.249-2.213 5.322v37.195c0 0.327 0.098 0.637 0.274 0.901 0.175 0.262 0.423 0.47 0.727 0.596h4e-3c0.306 0.12578 0.627 0.156 0.931 0.096 0.311-0.062 0.6-0.213 0.834-0.447l11.081-11.081h36.383c2.073 0 3.958-0.847 5.322-2.212 1.365-1.366 2.213-3.249 2.213-5.322v-19.726c0-2.073-0.848-3.957-2.213-5.322-1.364-1.365-3.249-2.212-5.322-2.212z" fill="#1D202E"/>
<path d="m387.58 171.83c0.266 0 0.48-0.216 0.48-0.48 0-0.266-0.214-0.481-0.48-0.481h-43.412c-0.265 0-0.481 0.215-0.481 0.481 0 0.264 0.216 0.48 0.481 0.48h43.412" fill="#1D202E"/>
<path d="m376.86 176.52c0.266 0 0.481-0.215 0.481-0.481 0-0.265-0.215-0.481-0.481-0.481h-32.691c-0.265 0-0.481 0.216-0.481 0.481 0 0.266 0.216 0.481 0.481 0.481h32.691zm10.721 0c0.266 0 0.48-0.215 0.48-0.481 0-0.265-0.214-0.481-0.48-0.481h-4.599c-0.264 0-0.48 0.216-0.48 0.481 0 0.266 0.216 0.481 0.48 0.481h4.599z" fill="#1D202E"/>
<path d="m387.58 181.22c0.266 0 0.48-0.216 0.48-0.481 0-0.266-0.214-0.481-0.48-0.481h-43.412c-0.265 0-0.481 0.215-0.481 0.481 0 0.265 0.216 0.481 0.481 0.481h43.412" fill="#1D202E"/>
<path d="m375.51 187.58c0.265 0 0.48-0.216 0.48-0.481 0-0.266-0.215-0.481-0.48-0.481h-31.34c-0.265 0-0.481 0.215-0.481 0.481 0 0.265 0.216 0.481 0.481 0.481h31.34" fill="#1D202E"/>
<path d="m361.52 192.67c0.265 0 0.481-0.216 0.481-0.482 0-0.265-0.216-0.48-0.481-0.48h-17.346c-0.265 0-0.481 0.215-0.481 0.48 0 0.266 0.216 0.482 0.481 0.482h17.346" fill="#1D202E"/>
<path d="m371.46 192.67c0.265 0 0.48-0.216 0.48-0.482 0-0.265-0.215-0.48-0.48-0.48h-6.202c-0.265 0-0.481 0.215-0.481 0.48 0 0.266 0.216 0.482 0.481 0.482h6.202" fill="#1D202E"/>
</g>
</svg>
